<?xml version="1.0" encoding="UTF-8"?>
<!DOCTYPE svg PUBLIC "-//W3C//DTD SVG 1.1//EN" "http://www.w3.org/Graphics/SVG/1.1/DTD/svg11.dtd">
<!-- Creator: CorelDRAW -->
<svg xmlns="http://www.w3.org/2000/svg" xml:space="preserve" width="49px" height="49px" style="shape-rendering:geometricPrecision; text-rendering:geometricPrecision; image-rendering:optimizeQuality; fill-rule:evenodd; clip-rule:evenodd"
viewBox="0 0 1.82692 1.82692"
 xmlns:xlink="http://www.w3.org/1999/xlink">
 <defs>
  <style type="text/css">
   <![CDATA[
    .fil0 {fill:#848484;fill-rule:nonzero}
   ]]>
  </style>
 </defs>
 <g id="Слой_x0020_1">
  <metadata id="CorelCorpID_0Corel-Layer"/>
  <path class="fil0" d="M0.913462 0c-0.252221,0 -0.480621,0.102258 -0.645908,0.267554 -0.165297,0.165286 -0.267554,0.393686 -0.267554,0.645908 0,0.252232 0.102258,0.480621 0.267554,0.645918 0.165286,0.165286 0.393676,0.267544 0.645908,0.267544 0.252232,0 0.480621,-0.102258 0.645918,-0.267544 0.165286,-0.165297 0.267544,-0.393686 0.267544,-0.645918 0,-0.252232 -0.102258,-0.480621 -0.267544,-0.645908 -0.165297,-0.165297 -0.393686,-0.267554 -0.645918,-0.267554zm-0.197606 0.872474l0.301047 -0.314738c0.0052355,-0.00540611 0.0139258,-0.00564069 0.0193959,-0.000405192 0.00540611,0.00518219 0.00557672,0.0138725 0.000405192,0.0193426l-0.292015 0.305248 0.292015 0.305355c0.00517153,0.00541677 0.00500092,0.0141071 -0.000405192,0.0193426 -0.00265507,0.00252712 -0.0060992,0.00374269 -0.00950068,0.00374269 -0.0036254,0 -0.00718682,-0.00138618 -0.00989521,-0.0042012l-0.301047 -0.314749c-0.00501158,-0.00528882 -0.00501158,-0.0136379 0,-0.0189374zm-0.433225 -0.589842c0.161426,-0.161437 0.384474,-0.261306 0.63083,-0.261306 0.246357,0 0.469404,0.0998691 0.630841,0.261306 0.161426,0.161426 0.261295,0.384474 0.261295,0.63083 0,0.246346 -0.0998691,0.469404 -0.261295,0.630841 -0.161437,0.161426 -0.384495,0.261295 -0.630841,0.261295 -0.246357,0 -0.469404,-0.0998691 -0.63083,-0.261295 -0.161437,-0.161437 -0.261306,-0.384484 -0.261306,-0.630841 0,-0.246357 0.0998691,-0.469404 0.261306,-0.63083z"/>
 </g>
</svg>
