<?xml version="1.0" encoding="UTF-8"?>
<!DOCTYPE svg PUBLIC "-//W3C//DTD SVG 1.1//EN" "http://www.w3.org/Graphics/SVG/1.1/DTD/svg11.dtd">
<!-- Creator: CorelDRAW -->
<svg xmlns="http://www.w3.org/2000/svg" xml:space="preserve" width="49px" height="49px" style="shape-rendering:geometricPrecision; text-rendering:geometricPrecision; image-rendering:optimizeQuality; fill-rule:evenodd; clip-rule:evenodd"
viewBox="0 0 1.65347 1.65347"
 xmlns:xlink="http://www.w3.org/1999/xlink">
 <defs>
  <style type="text/css">
   <![CDATA[
    .fil0 {fill:#848484;fill-rule:nonzero}
   ]]>
  </style>
 </defs>
 <g id="Слой_x0020_1">
  <metadata id="CorelCorpID_0Corel-Layer"/>
  <path class="fil0" d="M0.826736 0c0.228275,0 0.43499,0.092549 0.584584,0.242152 0.149603,0.149594 0.242152,0.356309 0.242152,0.584584 0,0.228284 -0.092549,0.43499 -0.242152,0.584593 -0.149594,0.149594 -0.356299,0.242143 -0.584584,0.242143 -0.228284,0 -0.43499,-0.092549 -0.584593,-0.242143 -0.149594,-0.149603 -0.242143,-0.356309 -0.242143,-0.584593 0,-0.228284 0.092549,-0.43499 0.242143,-0.584584 0.149603,-0.149603 0.356309,-0.242152 0.584593,-0.242152zm0.178845 0.789639l-0.272465 -0.284856c-0.00473843,-0.00489284 -0.0126037,-0.00510516 -0.0175544,-0.000366722 -0.00489284,0.00469018 -0.00504725,0.0125554 -0.000366722,0.0175061l0.264291 0.276267 -0.264291 0.276364c-0.00468053,0.00490249 -0.00452612,0.0127677 0.000366722,0.0175061 0.00240299,0.00228719 0.00552013,0.00338735 0.00859867,0.00338735 0.0032812,0 0.00650449,-0.00125458 0.00895574,-0.00380233l0.272465 -0.284866c0.00453577,-0.00478669 0.00453577,-0.0123431 0,-0.0171394zm0.392093 -0.533841c-0.1461,-0.14611 -0.347971,-0.236497 -0.570938,-0.236497 -0.222967,0 -0.424838,0.0903873 -0.570948,0.236497 -0.1461,0.1461 -0.236487,0.347971 -0.236487,0.570938 0,0.222957 0.0903873,0.424838 0.236487,0.570948 0.14611,0.1461 0.34799,0.236487 0.570948,0.236487 0.222967,0 0.424838,-0.0903873 0.570938,-0.236487 0.14611,-0.14611 0.236497,-0.347981 0.236497,-0.570948 0,-0.222967 -0.0903873,-0.424838 -0.236497,-0.570938z"/>
 </g>
</svg>
