<svg width="30" height="32" viewBox="0 0 30 32" fill="none" xmlns="http://www.w3.org/2000/svg">
<path d="M3.48407 4.9141C1.52564 5.42184 -0.0701556 7.6704 0.00237879 10.6443C0.0749132 11.8774 0.365157 13.038 1.01797 14.0534C1.45317 14.7062 1.67078 15.5767 1.74331 16.4471C1.74331 17.2449 1.59821 18.0428 1.163 18.7682C0.582725 19.7837 0.292516 20.9442 0.365051 22.2498C0.437585 25.2237 2.25098 27.3272 4.20941 27.7624C5.80517 28.1251 7.47346 27.3998 8.56147 25.8765C9.43189 24.6435 10.3749 23.8456 11.3178 23.628C14.872 22.54 17.2655 19.421 17.193 16.0844C17.0479 12.6753 14.4368 9.70137 10.8101 8.90349C9.86716 8.68589 8.77915 7.96054 7.90873 6.79999C6.74818 5.05917 5.07982 4.47889 3.48407 4.9141Z" fill="#2DA771"/>
<path d="M14.2191 27.8349C14.2917 29.7208 15.8875 31.1715 17.7008 31.099C19.6593 31.0264 22.7056 29.3581 22.633 27.5448C22.5605 25.7314 19.369 24.2807 17.4106 24.3533C15.5972 24.4258 14.1466 25.949 14.2191 27.8349Z" fill="#2DA771"/>
<path d="M29.1612 20.4354C29.0887 18.622 25.8972 17.1714 23.9388 17.2439C22.0529 17.3164 20.6022 18.9122 20.6747 20.7255C20.7473 22.6114 22.3431 24.0621 24.1564 23.9896C26.1874 23.9896 29.2337 22.3213 29.1612 20.4354Z" fill="#2DA771"/>
<path d="M16.6127 0.488022C14.7993 0.560556 13.2761 2.15631 13.3486 3.96967C13.4212 5.85557 14.9442 7.30626 16.8301 7.23372C18.7886 7.16119 21.835 5.4929 21.7625 3.67954C21.69 1.86618 18.5711 0.415488 16.6127 0.488022Z" fill="#2DA771"/>
<path d="M28.726 10.2079C28.6535 8.3945 25.4619 6.94381 23.576 7.01634C21.6901 7.08888 20.2394 8.68464 20.3119 10.498C20.3845 12.3839 21.9803 13.8346 23.7936 13.762C25.752 13.6895 28.7985 12.0212 28.726 10.2079Z" fill="#2DA771"/>
</svg>
