<svg width="13" height="14" viewBox="0 0 13 14" fill="none" xmlns="http://www.w3.org/2000/svg">
<path d="M3.59693 11.3789C3.99311 10.8378 4.44469 10.5217 4.87466 10.4112C6.47983 10.0015 7.60121 8.62897 7.60121 7.14462C7.60121 5.66047 6.47983 4.33756 4.87388 3.92786C4.44528 3.81739 3.99311 3.5013 3.59614 2.96C3.11235 2.30107 2.36437 1.9997 1.64271 2.17335C0.774916 2.38208 0.00297255 3.33308 0.00297249 4.63389C0.00297247 5.1839 0.145772 5.70621 0.41605 6.14362C0.596563 6.43413 0.692221 6.77988 0.692221 7.14326C0.692221 7.50645 0.597152 7.90104 0.416836 8.19543C0.145183 8.6342 0.00140112 9.15359 0.00140109 9.69857C0.00140104 10.9986 0.769612 11.9554 1.64271 12.1657C2.36437 12.3393 3.11314 12.0372 3.59693 11.3789Z" fill="#32A071"/>
<path d="M9.86322 12.4019C9.86322 11.5949 8.47372 10.9141 7.60121 10.9141C6.76995 10.9141 6.09327 11.5817 6.09327 12.4019C6.09327 13.2223 6.76995 13.8899 7.60121 13.8899C8.47372 13.8899 9.86322 13.2091 9.86322 12.4019Z" fill="#32A071"/>
<path d="M10.6171 7.93799C9.78582 7.93799 9.10914 8.60564 9.10914 9.42582C9.10914 10.246 9.78582 10.9137 10.6171 10.9137C11.4896 10.9137 12.8791 10.233 12.8791 9.42582C12.8791 8.61863 11.4896 7.93799 10.6171 7.93799Z" fill="#32A071"/>
<path d="M10.6171 3.42529C9.78582 3.42529 9.10914 4.09295 9.10914 4.91313C9.10914 5.73331 9.78582 6.40096 10.6171 6.40096C11.4896 6.40096 12.8791 5.72013 12.8791 4.91313C12.8791 4.10593 11.4896 3.42529 10.6171 3.42529Z" fill="#32A071"/>
<path d="M7.60123 3.42508C8.47374 3.42508 9.86324 2.74425 9.86324 1.93705C9.86324 1.13005 8.47374 0.449219 7.60123 0.449219C6.76996 0.449219 6.09328 1.11687 6.09328 1.93705C6.09328 2.75743 6.76996 3.42508 7.60123 3.42508Z" fill="#32A071"/>
</svg>
