<svg width="22" height="23" viewBox="0 0 22 23" fill="none" xmlns="http://www.w3.org/2000/svg">
<path d="M5.91178 18.4784C6.56089 17.5919 7.30075 17.074 8.00522 16.893C10.6351 16.2218 12.4724 13.973 12.4724 11.5411C12.4724 9.10942 10.6351 6.94197 8.00393 6.27071C7.30172 6.08972 6.56089 5.57183 5.91049 4.68497C5.11784 3.60537 3.89235 3.11161 2.70998 3.39612C1.28818 3.73809 0.0234231 5.29621 0.023423 7.42747C0.023423 8.32862 0.257387 9.18436 0.700212 9.90102C0.995965 10.377 1.15269 10.9435 1.15269 11.5388C1.15269 12.1339 0.996931 12.7804 0.701499 13.2627C0.256421 13.9816 0.0208478 14.8326 0.0208477 15.7255C0.0208476 17.8555 1.27949 19.4231 2.70998 19.7676C3.89235 20.0521 5.11913 19.5571 5.91178 18.4784Z" fill="black"/>
<path d="M16.1785 20.155C16.1785 18.8328 13.9019 17.7173 12.4724 17.7173C11.1104 17.7173 10.0018 18.8112 10.0018 20.155C10.0018 21.4991 11.1104 22.593 12.4724 22.593C13.9019 22.593 16.1785 21.4775 16.1785 20.155Z" fill="black"/>
<path d="M17.4137 12.8413C16.0517 12.8413 14.943 13.9352 14.943 15.279C14.943 16.6228 16.0517 17.7167 17.4137 17.7167C18.8432 17.7167 21.1198 16.6015 21.1198 15.279C21.1198 13.9565 18.8432 12.8413 17.4137 12.8413Z" fill="black"/>
<path d="M17.4137 5.44775C16.0517 5.44775 14.943 6.54164 14.943 7.88543C14.943 9.22921 16.0517 10.3231 17.4137 10.3231C18.8432 10.3231 21.1198 9.20762 21.1198 7.88543C21.1198 6.56292 18.8432 5.44775 17.4137 5.44775Z" fill="black"/>
<path d="M12.4724 5.44744C13.9019 5.44744 16.1785 4.33196 16.1785 3.00945C16.1785 1.68726 13.9019 0.571777 12.4724 0.571777C11.1104 0.571777 10.0018 1.66567 10.0018 3.00945C10.0018 4.35355 11.1104 5.44744 12.4724 5.44744Z" fill="black"/>
</svg>
