<svg width="22" height="23" viewBox="0 0 22 23" fill="none" xmlns="http://www.w3.org/2000/svg">
<path d="M6.60966 18.7752C7.25878 17.8887 7.99864 17.3708 8.70311 17.1898C11.333 16.5185 13.1703 14.2698 13.1703 11.8378C13.1703 9.40618 11.333 7.23872 8.70182 6.56746C7.99961 6.38647 7.25878 5.86858 6.60838 4.98172C5.81573 3.90212 4.59024 3.40836 3.40787 3.69287C1.98607 4.03485 0.721311 5.59296 0.72131 7.72422C0.72131 8.62537 0.955274 9.48111 1.3981 10.1978C1.69385 10.6738 1.85058 11.2402 1.85058 11.8356C1.85058 12.4306 1.69482 13.0771 1.39939 13.5595C0.954308 14.2783 0.718735 15.1293 0.718735 16.0222C0.718735 18.1522 1.97738 19.7198 3.40787 20.0644C4.59024 20.3489 5.81702 19.8538 6.60966 18.7752Z" fill="white"/>
<path d="M16.8763 20.4513C16.8763 19.1292 14.5998 18.0137 13.1703 18.0137C11.8083 18.0137 10.6996 19.1076 10.6996 20.4513C10.6996 21.7954 11.8083 22.8893 13.1703 22.8893C14.5998 22.8893 16.8763 21.7739 16.8763 20.4513Z" fill="white"/>
<path d="M18.1115 13.1382C16.7496 13.1382 15.6409 14.2321 15.6409 15.5759C15.6409 16.9196 16.7496 18.0135 18.1115 18.0135C19.5411 18.0135 21.8176 16.8984 21.8176 15.5759C21.8176 14.2533 19.5411 13.1382 18.1115 13.1382Z" fill="white"/>
<path d="M13.1703 5.74383C14.5998 5.74383 16.8764 4.62835 16.8764 3.30584C16.8764 1.98365 14.5998 0.868164 13.1703 0.868164C11.8083 0.868164 10.6997 1.96205 10.6997 3.30584C10.6997 4.64994 11.8083 5.74383 13.1703 5.74383Z" fill="white"/>
<path d="M18.1115 5.74365C16.7496 5.74365 15.6409 6.83754 15.6409 8.18133C15.6409 9.52511 16.7496 10.619 18.1115 10.619C19.5411 10.619 21.8176 9.50352 21.8176 8.18133C21.8176 6.85882 19.5411 5.74365 18.1115 5.74365Z" fill="white"/>
</svg>
