<svg width="30" height="32" viewBox="0 0 30 32" fill="none" xmlns="http://www.w3.org/2000/svg">
<path d="M15.7809 27.8349C15.7083 29.7208 14.1125 31.1715 12.2992 31.099C10.3407 31.0264 7.29444 29.3581 7.36697 27.5448C7.43951 25.7314 10.631 24.2807 12.5894 24.3533C14.4028 24.4258 15.8534 25.949 15.7809 27.8349Z" fill="#2DA771"/>
<path d="M26.5159 4.9141C28.4744 5.42184 30.0702 7.6704 29.9976 10.6443C29.9251 11.8774 29.6348 13.038 28.982 14.0534C28.5468 14.7062 28.3292 15.5767 28.2567 16.4471C28.2567 17.2449 28.4018 18.0428 28.837 18.7682C29.4173 19.7837 29.7075 20.9442 29.6349 22.2498C29.5624 25.2237 27.749 27.3272 25.7906 27.7624C24.1948 28.1251 22.5265 27.3998 21.4385 25.8765C20.5681 24.6435 19.6251 23.8456 18.6822 23.628C15.128 22.54 12.7345 19.421 12.807 16.0844C12.9521 12.6753 15.5632 9.70137 19.1899 8.90349C20.1328 8.68589 21.2209 7.96054 22.0913 6.79999C23.2518 5.05917 24.9202 4.47889 26.5159 4.9141Z" fill="#2DA771"/>
<path d="M0.838786 20.4354C0.911321 18.622 4.1028 17.1714 6.06123 17.2439C7.94712 17.3164 9.39781 18.9122 9.32528 20.7255C9.25274 22.6114 7.65695 24.0621 5.84359 23.9896C3.81263 23.9896 0.766252 22.3213 0.838786 20.4354Z" fill="#2DA771"/>
<path d="M13.3873 0.488022C15.2007 0.560556 16.7239 2.15631 16.6514 3.96967C16.5788 5.85557 15.0558 7.30626 13.1699 7.23372C11.2114 7.16119 8.16496 5.4929 8.2375 3.67954C8.31003 1.86618 11.4289 0.415488 13.3873 0.488022Z" fill="#2DA771"/>
<path d="M1.27401 10.2079C1.34654 8.3945 4.53813 6.94381 6.42402 7.01634C8.30991 7.08888 9.7606 8.68464 9.68807 10.498C9.61553 12.3839 8.01974 13.8346 6.20638 13.762C4.24795 13.6895 1.20147 12.0212 1.27401 10.2079Z" fill="#2DA771"/>
</svg>
