<svg width="18" height="18" viewBox="0 0 18 18" fill="none" xmlns="http://www.w3.org/2000/svg">
<path d="M8.15861 1.30996C8.55219 0.697194 9.44781 0.697195 9.84139 1.30996L11.8577 4.4491C11.9931 4.65994 12.2027 4.81225 12.4451 4.87589L16.0537 5.82344C16.7581 6.0084 17.0348 6.86019 16.5737 7.42386L14.2112 10.3115C14.0526 10.5054 13.9725 10.7519 13.9869 11.0021L14.2008 14.7268C14.2426 15.4539 13.518 15.9803 12.8394 15.7159L9.36304 14.3615C9.12956 14.2705 8.87044 14.2705 8.63696 14.3615L5.1606 15.7159C4.48202 15.9803 3.75745 15.4539 3.79921 14.7268L4.01314 11.0021C4.02751 10.7519 3.94744 10.5054 3.78877 10.3115L1.42633 7.42386C0.965182 6.86018 1.24194 6.0084 1.94634 5.82344L5.55491 4.87589C5.79727 4.81225 6.00691 4.65994 6.14233 4.4491L8.15861 1.30996Z" fill="#FFE000"/>
</svg>
