<svg width="10" height="18" viewBox="0 0 10 18" fill="none" xmlns="http://www.w3.org/2000/svg">
<path d="M2.92613 10.012H0.771944C0.433862 10.012 0.3125 9.88845 0.3125 9.5482C0.3125 8.67121 0.3125 7.79495 0.3125 6.9194C0.3125 6.58132 0.440364 6.45345 0.774111 6.45345H2.92613V4.55716C2.90059 3.70537 3.10496 2.86242 3.51777 2.11691C3.94691 1.36426 4.63456 0.79288 5.45308 0.50885C5.98428 0.31557 6.54572 0.218693 7.11098 0.22278H9.24133C9.5469 0.22278 9.67476 0.357146 9.67476 0.656219V3.12898C9.67476 3.43889 9.54473 3.56242 9.24133 3.56242C8.65835 3.56242 8.07538 3.56242 7.49457 3.58626C6.91376 3.6101 6.59735 3.8745 6.59735 4.48131C6.58435 5.13147 6.59735 5.76862 6.59735 6.43178H9.10046C9.45588 6.43178 9.57724 6.55315 9.57724 6.91073C9.57724 7.77761 9.57724 8.64882 9.57724 9.52436C9.57724 9.87761 9.46455 9.98814 9.10696 9.99031H6.58435V17.0423C6.58435 17.4194 6.46732 17.5386 6.09456 17.5386H3.38124C3.054 17.5386 2.92613 17.4108 2.92613 17.0835V10.012Z" fill="#3B5998"/>
</svg>
