<svg width="15" height="15" viewBox="0 0 15 15" fill="none" xmlns="http://www.w3.org/2000/svg">
<path d="M10.5719 7.88069C10.5719 9.46089 9.29097 10.7418 7.71076 10.7418C6.13056 10.7418 4.84961 9.46089 4.84961 7.88069C4.84961 6.30048 6.13056 5.01953 7.71076 5.01953C9.29097 5.01953 10.5719 6.30048 10.5719 7.88069Z" fill="url(#paint0_linear_90_1162)"/>
<path d="M14.4021 2.81832C14.2645 2.44562 14.0451 2.10828 13.76 1.83138C13.4831 1.54627 13.146 1.32684 12.7731 1.18931C12.4706 1.07184 12.0163 0.932021 11.1794 0.89393C10.2741 0.852646 10.0027 0.84375 7.71085 0.84375C5.41878 0.84375 5.14735 0.852417 4.24229 0.893702C3.40543 0.932021 2.95085 1.07184 2.64863 1.18931C2.2757 1.32684 1.93836 1.54627 1.66168 1.83138C1.37657 2.10828 1.15715 2.44539 1.01938 2.81832C0.901918 3.12077 0.762099 3.57535 0.724008 4.41221C0.682724 5.31727 0.673828 5.5887 0.673828 7.88077C0.673828 10.1726 0.682724 10.444 0.724008 11.3493C0.762099 12.1862 0.901918 12.6405 1.01938 12.943C1.15715 13.3159 1.37634 13.653 1.66146 13.9299C1.93836 14.215 2.27547 14.4345 2.6484 14.572C2.95085 14.6897 3.40543 14.8295 4.24229 14.8676C5.14735 14.9089 5.41855 14.9176 7.71062 14.9176C10.0029 14.9176 10.2743 14.9089 11.1792 14.8676C12.016 14.8295 12.4706 14.6897 12.7731 14.572C13.5217 14.2832 14.1133 13.6916 14.4021 12.943C14.5195 12.6405 14.6594 12.1862 14.6977 11.3493C14.739 10.444 14.7476 10.1726 14.7476 7.88077C14.7476 5.5887 14.739 5.31727 14.6977 4.41221C14.6596 3.57535 14.5198 3.12077 14.4021 2.81832ZM7.71085 12.2881C5.27645 12.2881 3.30302 10.3149 3.30302 7.88054C3.30302 5.44614 5.27645 3.47294 7.71085 3.47294C10.145 3.47294 12.1185 5.44614 12.1185 7.88054C12.1185 10.3149 10.145 12.2881 7.71085 12.2881ZM12.2927 4.32873C11.7239 4.32873 11.2627 3.86753 11.2627 3.29868C11.2627 2.72982 11.7239 2.26863 12.2927 2.26863C12.8616 2.26863 13.3228 2.72982 13.3228 3.29868C13.3225 3.86753 12.8616 4.32873 12.2927 4.32873Z" fill="url(#paint1_linear_90_1162)"/>
<defs>
<linearGradient id="paint0_linear_90_1162" x1="10.9556" y1="4.37685" x2="5.16831" y2="12.1927" gradientUnits="userSpaceOnUse">
<stop stop-color="#FFDC80"/>
<stop offset="0.114583" stop-color="#FCAF45"/>
<stop offset="0.208333" stop-color="#F77737"/>
<stop offset="0.307292" stop-color="#F56040"/>
<stop offset="0.442708" stop-color="#FD1D1D"/>
<stop offset="0.557292" stop-color="#E1306C"/>
<stop offset="0.671875" stop-color="#C13584"/>
<stop offset="0.776042" stop-color="#833AB4"/>
<stop offset="0.901042" stop-color="#5851DB"/>
<stop offset="1" stop-color="#405DE6"/>
</linearGradient>
<linearGradient id="paint1_linear_90_1162" x1="15.6914" y1="-0.736899" x2="1.45767" y2="18.4859" gradientUnits="userSpaceOnUse">
<stop stop-color="#FFDC80"/>
<stop offset="0.114583" stop-color="#FCAF45"/>
<stop offset="0.208333" stop-color="#F77737"/>
<stop offset="0.307292" stop-color="#F56040"/>
<stop offset="0.442708" stop-color="#FD1D1D"/>
<stop offset="0.557292" stop-color="#E1306C"/>
<stop offset="0.671875" stop-color="#C13584"/>
<stop offset="0.776042" stop-color="#833AB4"/>
<stop offset="0.901042" stop-color="#5851DB"/>
<stop offset="1" stop-color="#405DE6"/>
</linearGradient>
</defs>
</svg>
