<svg width="23" height="14" viewBox="0 0 23 14" fill="none" xmlns="http://www.w3.org/2000/svg">
<path d="M18.5158 7.83747C18.1546 7.38144 18.2592 7.17923 18.5158 6.77202C18.5199 6.76783 21.4988 2.65244 21.8042 1.25647L21.8056 1.25508C21.959 0.746061 21.8056 0.372314 21.0678 0.372314H18.6273C18.0067 0.372314 17.7195 0.693067 17.5675 1.05147C17.5675 1.05147 16.3249 4.02471 14.5677 5.95201C14.0001 6.50844 13.7393 6.68834 13.4284 6.68834C13.275 6.68834 13.0393 6.50984 13.0393 6.00082V1.25508C13.0393 0.645652 12.8649 0.372314 12.3517 0.372314H8.51527C8.12619 0.372314 7.89469 0.656808 7.89469 0.921777C7.89469 1.49913 8.77327 1.63301 8.86391 3.26048V6.79154C8.86391 7.56414 8.72306 7.70638 8.41207 7.70638C7.58369 7.70638 5.56993 4.7206 4.37757 1.30529C4.1377 0.642863 3.90062 0.37371 3.27586 0.37371H0.836745C0.140853 0.37371 0 0.694461 0 1.05287C0 1.6874 0.828378 4.83914 3.856 9.00473C5.87395 11.8483 8.71469 13.3893 11.2988 13.3893C12.8524 13.3893 13.0421 13.0476 13.0421 12.4577C13.0421 9.74106 12.9012 9.48446 13.6794 9.48446C14.0406 9.48446 14.6612 9.66297 16.1115 11.0338C17.7683 12.6613 18.0416 13.3893 18.969 13.3893H21.4095C22.1054 13.3893 22.4582 13.0476 22.2546 12.3726C21.7916 10.9543 18.6566 8.03271 18.5158 7.83747Z" fill="#45668E"/>
</svg>
