<svg width="19" height="14" viewBox="0 0 19 14" fill="none" xmlns="http://www.w3.org/2000/svg">
<path d="M15.3391 0.449951H4.15121C3.70411 0.449951 3.26139 0.538051 2.84835 0.709217C2.43532 0.880382 2.06006 1.13126 1.74401 1.44751C1.42797 1.76376 1.17734 2.13919 1.00645 2.55234C0.835559 2.96549 0.747752 3.40826 0.748048 3.85536V9.90592C0.747752 10.353 0.835559 10.7958 1.00645 11.2089C1.17734 11.6221 1.42797 11.9975 1.74401 12.3138C2.06006 12.63 2.43532 12.8809 2.84835 13.0521C3.26139 13.2232 3.70411 13.3113 4.15121 13.3113H15.3391C15.7862 13.3113 16.2289 13.2232 16.642 13.0521C17.055 12.8809 17.4303 12.63 17.7463 12.3138C18.0624 11.9975 18.313 11.6221 18.4839 11.2089C18.6548 10.7958 18.7426 10.353 18.7423 9.90592V3.85536C18.7426 3.40826 18.6548 2.96549 18.4839 2.55234C18.313 2.13919 18.0624 1.76376 17.7463 1.44751C17.4303 1.13126 17.055 0.880382 16.642 0.709217C16.2289 0.538051 15.7862 0.449951 15.3391 0.449951ZM7.37442 9.63826V4.12302L12.1159 6.88064L7.37442 9.63826Z" fill="#FF0000"/>
</svg>
