<svg width="17" height="17" viewBox="0 0 17 17" fill="none" xmlns="http://www.w3.org/2000/svg">
<path d="M8.49969 0C3.8133 0 0 3.813 0 8.5C0 13.187 3.8133 17 8.49969 17C13.187 17 16.9997 13.187 16.9997 8.5C16.9997 3.813 13.187 0 8.49969 0ZM8.49969 15.8667C4.43781 15.8667 1.13327 12.5622 1.13327 8.5C1.13327 4.43781 4.43812 1.13327 8.49969 1.13327C12.5622 1.13327 15.8664 4.43781 15.8664 8.5C15.8664 12.5622 12.5625 15.8667 8.49969 15.8667Z" fill="white"/>
<path d="M12.7094 7.88455H9.0665V3.06777C9.0665 2.75475 8.81273 2.50098 8.50002 2.50098C8.18761 2.50098 7.93384 2.75505 7.93384 3.06777V9.01752H12.7094C13.0221 9.01752 13.2759 8.76405 13.2756 8.45104C13.2756 8.13833 13.0215 7.88455 12.7094 7.88455Z" fill="white"/>
</svg>
