<svg width="36" height="36" viewBox="0 0 36 36" fill="none" xmlns="http://www.w3.org/2000/svg">
<path d="M33.1579 0H2.84211C1.27245 0 0 1.27245 0 2.84211V33.1579C0 34.7275 1.27245 36 2.84211 36H33.1579C34.7275 36 36 34.7275 36 33.1579V2.84211C36 1.27245 34.7275 0 33.1579 0Z" fill="#4A6EA9"/>
<path d="M15.7358 19.2244H13.3816C13.0121 19.2244 12.8795 19.0894 12.8795 18.7176C12.8795 17.7592 12.8795 16.8015 12.8795 15.8447C12.8795 15.4752 13.0192 15.3355 13.3839 15.3355H15.7358V13.2631C15.7079 12.3322 15.9312 11.411 16.3823 10.5963C16.8513 9.77372 17.6028 9.14929 18.4973 8.83889C19.0779 8.62766 19.6914 8.52179 20.3092 8.52626H22.6373C22.9713 8.52626 23.111 8.6731 23.111 8.99994V11.7023C23.111 12.041 22.9689 12.176 22.6373 12.176C22.0002 12.176 21.3631 12.176 20.7284 12.202C20.0937 12.2281 19.7479 12.517 19.7479 13.1802C19.7337 13.8907 19.7479 14.587 19.7479 15.3118H22.4834C22.8718 15.3118 23.0045 15.4444 23.0045 15.8352C23.0045 16.7826 23.0045 17.7347 23.0045 18.6915C23.0045 19.0776 22.8813 19.1984 22.4905 19.2007H19.7337V26.9076C19.7337 27.3197 19.6058 27.4499 19.1984 27.4499H16.2331C15.8755 27.4499 15.7358 27.3102 15.7358 26.9526V19.2244Z" fill="white"/>
</svg>
