<svg width="36" height="36" viewBox="0 0 36 36" fill="none" xmlns="http://www.w3.org/2000/svg">
<path d="M33.1579 0H2.84211C1.27245 0 0 1.27245 0 2.84211V33.1579C0 34.7275 1.27245 36 2.84211 36H33.1579C34.7275 36 36 34.7275 36 33.1579V2.84211C36 1.27245 34.7275 0 33.1579 0Z" fill="#4875B4"/>
<path d="M27.4737 27.4737V20.5248C27.4737 17.1237 26.7418 14.5066 22.7676 14.5066C20.8563 14.5066 19.575 15.5534 19.0516 16.5482H18.9971V14.824H15.2289V27.4737H19.1511V21.2092C19.1511 19.5513 19.4637 17.9645 21.5195 17.9645C23.5753 17.9645 23.5611 19.8592 23.5611 21.3158V27.4737H27.4737Z" fill="white"/>
<path d="M8.83893 14.824H12.7658V27.4737H8.83893V14.824Z" fill="white"/>
<path d="M10.8 8.52639C10.347 8.52452 9.90376 8.65727 9.52641 8.90779C9.14906 9.15831 8.85465 9.5153 8.68056 9.93345C8.50648 10.3516 8.46056 10.812 8.54864 11.2563C8.63671 11.7006 8.85482 12.1087 9.17526 12.4289C9.49571 12.749 9.90404 12.9666 10.3484 13.0543C10.7928 13.1419 11.2532 13.0955 11.6712 12.921C12.0891 12.7464 12.4458 12.4517 12.696 12.074C12.9461 11.6964 13.0784 11.253 13.076 10.8001C13.076 10.5013 13.0171 10.2054 12.9027 9.92942C12.7883 9.65341 12.6206 9.40266 12.4092 9.1915C12.1979 8.98033 11.9469 8.81291 11.6708 8.69878C11.3947 8.58466 11.0988 8.52608 10.8 8.52639Z" fill="white"/>
</svg>
