<svg width="17" height="17" viewBox="0 0 17 17" fill="none" xmlns="http://www.w3.org/2000/svg">
<path fill-rule="evenodd" clip-rule="evenodd" d="M2.48525 17H8.49991C13.1869 17 17 13.187 17 8.5C17 3.81309 13.1869 0 8.49991 0C3.81305 0 0 3.81309 0 8.5C0 10.7739 0.908476 12.94 2.51128 14.5318L1.75536 15.5587C1.53023 15.8654 1.4859 16.2264 1.63677 16.5242C1.78767 16.8222 2.10484 17 2.48525 17ZM15.6987 8.5C15.6987 12.4694 12.4693 15.6987 8.49991 15.6987H3.26811L4.261 14.3499L3.8045 13.9566C2.21367 12.5859 1.30129 10.5971 1.30129 8.5C1.30129 4.53062 4.53058 1.30129 8.49991 1.30129C12.4693 1.30129 15.6987 4.53062 15.6987 8.5ZM5.32841 9.40565C5.82858 9.40565 6.23398 9.00017 6.23398 8.50004C6.23398 7.99983 5.82858 7.5943 5.32841 7.5943C4.82815 7.5943 4.42267 7.99978 4.42267 8.50004C4.42267 9.00017 4.82815 9.40565 5.32841 9.40565ZM8.5004 9.40559C9.00056 9.40559 9.40601 9.00013 9.40601 8.49997C9.40601 7.99982 9.00056 7.59436 8.5004 7.59436C8.00024 7.59436 7.59479 7.99982 7.59479 8.49997C7.59479 9.00013 8.00024 9.40559 8.5004 9.40559ZM12.5782 8.50002C12.5782 9.0002 12.1727 9.40567 11.6726 9.40567C11.1724 9.40567 10.7669 9.0002 10.7669 8.50002C10.7669 7.99984 11.1724 7.59436 11.6726 7.59436C12.1727 7.59436 12.5782 7.99984 12.5782 8.50002Z" fill="white"/>
</svg>
