<svg width="17" height="17" viewBox="0 0 17 17" fill="none" xmlns="http://www.w3.org/2000/svg">
<path d="M16.8392 16.0756L12.45 11.7565C13.5994 10.5077 14.3056 8.85617 14.3056 7.0388C14.3051 3.15113 11.1029 0 7.15253 0C3.20216 0 0 3.15113 0 7.0388C0 10.9265 3.20216 14.0776 7.15253 14.0776C8.85936 14.0776 10.4248 13.4872 11.6545 12.5058L16.0608 16.8419C16.2755 17.0534 16.624 17.0534 16.8387 16.8419C17.0539 16.6304 17.0539 16.2871 16.8392 16.0756ZM7.15253 12.9946C3.81009 12.9946 1.10052 10.3281 1.10052 7.0388C1.10052 3.74948 3.81009 1.08296 7.15253 1.08296C10.495 1.08296 13.2045 3.74948 13.2045 7.0388C13.2045 10.3281 10.495 12.9946 7.15253 12.9946Z" fill="white" fill-opacity="0.8"/>
</svg>
