<svg width="36" height="36" viewBox="0 0 36 36" fill="none" xmlns="http://www.w3.org/2000/svg">
<path d="M33.1579 0H2.84211C1.27245 0 0 1.27245 0 2.84211V33.1579C0 34.7275 1.27245 36 2.84211 36H33.1579C34.7275 36 36 34.7275 36 33.1579V2.84211C36 1.27245 34.7275 0 33.1579 0Z" fill="#39A7DA"/>
<path d="M7.37092 18.1253L12.2097 19.9313L14.0827 25.9546C14.2025 26.3403 14.6742 26.4829 14.9873 26.2269L17.6846 24.0281C17.9673 23.7977 18.37 23.7862 18.6655 24.0007L23.5304 27.5327C23.8653 27.7762 24.3398 27.5926 24.4238 27.1879L27.9876 10.0455C28.0793 9.6034 27.6449 9.23457 27.2239 9.39739L7.36525 17.0583C6.87518 17.2473 6.87945 17.9411 7.37092 18.1253ZM13.7808 18.9699L23.2377 13.1454C23.4076 13.041 23.5825 13.2708 23.4366 13.4062L15.6319 20.661C15.3576 20.9164 15.1806 21.2581 15.1305 21.629L14.8646 23.5993C14.8294 23.8623 14.4599 23.8884 14.3873 23.6338L13.3648 20.0411C13.2477 19.6313 13.4184 19.1936 13.7808 18.9699Z" fill="white"/>
</svg>
