<svg width="20" height="20" viewBox="0 0 20 20" fill="none" xmlns="http://www.w3.org/2000/svg">
<path fill-rule="evenodd" clip-rule="evenodd" d="M20 10C20 15.5228 15.5228 20 10 20C4.47715 20 0 15.5228 0 10C0 4.47715 4.47715 0 10 0C15.5228 0 20 4.47715 20 10ZM10.847 11.1087C10.6234 11.2578 10.3637 11.3366 10.096 11.3366C9.82822 11.3366 9.56851 11.2578 9.34493 11.1087L5.66238 8.65362C5.64194 8.64 5.62204 8.6258 5.60254 8.61119V12.6342C5.60254 13.0954 5.97684 13.4615 6.42984 13.4615H13.7621C14.2233 13.4615 14.5894 13.0872 14.5894 12.6342V8.61118C14.5698 8.62581 14.5499 8.64005 14.5294 8.65369L10.847 11.1087ZM9.63702 10.6705L5.95447 8.21536C5.73411 8.06853 5.60254 7.8228 5.60254 7.55802C5.60254 7.10157 5.97355 6.73058 6.42956 6.73056H13.7624C14.2184 6.73056 14.5894 7.10155 14.5894 7.55758C14.5894 7.8228 14.4578 8.06853 14.2375 8.21536L10.5549 10.6705C10.4155 10.7634 10.2557 10.8099 10.0959 10.8099C9.93618 10.8099 9.77642 10.7634 9.63702 10.6705Z" fill="white"/>
</svg>
