<svg width="36" height="36" viewBox="0 0 36 36" fill="none" xmlns="http://www.w3.org/2000/svg">
<path fill-rule="evenodd" clip-rule="evenodd" d="M17.853 35.3096C27.518 35.3096 35.353 27.4746 35.353 17.8096C35.353 8.14459 27.518 0.30957 17.853 0.30957C8.18805 0.30957 0.353027 8.14459 0.353027 17.8096C0.353027 27.4746 8.18805 35.3096 17.853 35.3096ZM13.0359 10.72C14.3138 9.44214 16.0462 8.7232 17.8533 8.7208C19.6605 8.7232 21.3929 9.44214 22.6707 10.72C23.9486 11.9978 24.6675 13.7303 24.6699 15.5374C24.6699 20.4311 18.3191 26.5604 18.0493 26.8188C17.9968 26.8698 17.9265 26.8984 17.8533 26.8984C17.7802 26.8984 17.7099 26.8698 17.6574 26.8188C17.3875 26.5604 11.0368 20.4311 11.0368 15.5374C11.0392 13.7303 11.7581 11.9978 13.0359 10.72ZM16.1176 18.1351C16.6314 18.4784 17.2354 18.6617 17.8533 18.6617C18.6818 18.6612 19.4762 18.3318 20.062 17.746C20.6478 17.1602 20.9771 16.3658 20.9776 15.5374C20.9776 14.9195 20.7944 14.3154 20.4511 13.8016C20.1078 13.2879 19.6198 12.8874 19.049 12.6509C18.4781 12.4145 17.8499 12.3526 17.2438 12.4731C16.6378 12.5937 16.0811 12.8913 15.6442 13.3282C15.2072 13.7651 14.9097 14.3218 14.7891 14.9279C14.6686 15.5339 14.7304 16.1621 14.9669 16.733C15.2034 17.3039 15.6038 17.7918 16.1176 18.1351Z" fill="#3AB795"/>
</svg>
