<svg width="20" height="20" viewBox="0 0 20 20" fill="none" xmlns="http://www.w3.org/2000/svg">
<path fill-rule="evenodd" clip-rule="evenodd" d="M10 20C15.5228 20 20 15.5228 20 10C20 4.47715 15.5228 0 10 0C4.47715 0 0 4.47715 0 10C0 15.5228 4.47715 20 10 20ZM7.31692 6.00589C8.05412 5.26869 9.05358 4.85392 10.0961 4.85254C11.1387 4.85392 12.1382 5.26869 12.8753 6.00589C13.6125 6.74309 14.0273 7.74255 14.0287 8.7851C14.0287 11.6084 10.3649 15.1444 10.2092 15.2935C10.1789 15.3229 10.1384 15.3394 10.0961 15.3394C10.0539 15.3394 10.0134 15.3229 9.98308 15.2935C9.82741 15.1444 6.16357 11.6084 6.16357 8.7851C6.16496 7.74255 6.57972 6.74309 7.31692 6.00589ZM9.09476 10.2838C9.39117 10.4818 9.73965 10.5875 10.0961 10.5875C10.5741 10.5872 11.0324 10.3972 11.3703 10.0593C11.7083 9.72133 11.8983 9.26305 11.8986 8.7851C11.8986 8.42862 11.7929 8.08014 11.5948 7.78373C11.3967 7.48732 11.1152 7.2563 10.7859 7.11988C10.4565 6.98346 10.0941 6.94776 9.7445 7.01731C9.39487 7.08686 9.0737 7.25852 8.82163 7.51059C8.56956 7.76267 8.39789 8.08383 8.32835 8.43347C8.2588 8.7831 8.29449 9.14551 8.43091 9.47486C8.56734 9.80421 8.79836 10.0857 9.09476 10.2838Z" fill="white"/>
</svg>
