<svg width="20" height="20" viewBox="0 0 20 20" fill="none" xmlns="http://www.w3.org/2000/svg">
<path fill-rule="evenodd" clip-rule="evenodd" d="M10 20C15.5228 20 20 15.5228 20 10C20 4.47715 15.5228 0 10 0C4.47715 0 0 4.47715 0 10C0 15.5228 4.47715 20 10 20ZM13.1134 11.4537L14.5434 12.4528C14.9549 12.7403 15.1248 13.259 14.9565 13.7138C14.9076 13.8455 14.8484 13.9673 14.7804 14.0759L14.6413 14.2745C14.5964 14.3324 14.5546 14.3784 14.5109 14.4221C14.2699 14.6631 13.9651 14.834 13.6047 14.9304C13.382 14.9899 13.1378 15.0201 12.8786 15.0201H12.8785C11.3656 15.0199 9.41926 14.0134 7.79912 12.3933C5.86987 10.464 4.85017 8.13082 5.26178 6.58785C5.35824 6.22744 5.52918 5.92264 5.77007 5.68186C5.81404 5.63788 5.85995 5.59585 5.90932 5.55748L6.10677 5.41845C6.22619 5.34343 6.34798 5.28415 6.47871 5.23587C6.59382 5.1934 6.71475 5.17163 6.83805 5.17163C7.19383 5.17163 7.53086 5.35011 7.73973 5.64888L8.73863 7.07889C8.90763 7.3214 8.9723 7.61434 8.92099 7.90427C8.86958 8.19441 8.7077 8.44726 8.4653 8.61604L7.98978 8.948C8.3628 9.50436 8.8837 10.1252 9.47541 10.7169C10.0672 11.3086 10.688 11.8296 11.2444 12.2027L11.5764 11.727C11.7824 11.4312 12.1207 11.2545 12.4812 11.2545C12.7078 11.2545 12.9264 11.3232 13.1134 11.4537Z" fill="white"/>
</svg>
