<svg width="35" height="36" viewBox="0 0 35 36" fill="none" xmlns="http://www.w3.org/2000/svg">
<path fill-rule="evenodd" clip-rule="evenodd" d="M17.4995 35.3096C27.1645 35.3096 34.9995 27.4746 34.9995 17.8096C34.9995 8.14459 27.1645 0.30957 17.4995 0.30957C7.83453 0.30957 -0.000488281 8.14459 -0.000488281 17.8096C-0.000488281 27.4746 7.83453 35.3096 17.4995 35.3096ZM22.7298 20.163L25.2086 21.8948C25.9219 22.3933 26.2163 23.2922 25.9247 24.0806C25.8398 24.3089 25.7373 24.52 25.6194 24.7084L25.3782 25.0525C25.3005 25.153 25.228 25.2326 25.1521 25.3084C24.7344 25.7262 24.2061 26.0225 23.5814 26.1895C23.1954 26.2926 22.772 26.3449 22.3229 26.3449H22.3227C19.7003 26.3445 16.3265 24.6 13.5182 21.7917C10.1741 18.4476 8.4066 14.4033 9.12007 11.7288C9.28728 11.104 9.58358 10.5757 10.0011 10.1583C10.0773 10.0821 10.1569 10.0092 10.2425 9.94274L10.5848 9.70174C10.7917 9.57171 11.0029 9.46896 11.2295 9.38526C11.429 9.31166 11.6386 9.27392 11.8523 9.27392C12.469 9.27392 13.0532 9.58329 13.4153 10.1012L15.1467 12.5799C15.4397 13.0003 15.5518 13.508 15.4628 14.0106C15.3737 14.5135 15.0931 14.9518 14.673 15.2444L13.8487 15.8198C14.4953 16.7841 15.3982 17.8602 16.4239 18.8859C17.4497 19.9115 18.5258 20.8146 19.4902 21.4614L20.0656 20.6368C20.4228 20.1241 21.0092 19.8177 21.6339 19.8177C22.0268 19.8177 22.4057 19.9369 22.7298 20.163Z" fill="#3AB795"/>
</svg>
