<svg width="49" height="49" viewBox="0 0 49 49" fill="none" xmlns="http://www.w3.org/2000/svg">
<rect width="48.0471" height="48.0471" rx="5" fill="#3AB795"/>
<path d="M25.2982 12.3658L28.4607 18.1665C28.5529 18.3321 28.6788 18.4766 28.8303 18.5905C28.9818 18.7045 29.1554 18.7854 29.3401 18.828L35.8589 20.248C36.0901 20.2976 36.304 20.4079 36.4785 20.5676C36.6529 20.7272 36.7817 20.9305 36.8516 21.1565C36.9214 21.3824 36.9298 21.6229 36.8758 21.8532C36.8219 22.0834 36.7076 22.2952 36.5447 22.4666L32.0025 27.3073C31.8711 27.4461 31.7713 27.6117 31.71 27.7928C31.6487 27.9738 31.6274 28.166 31.6475 28.3561L32.301 34.9394C32.3182 35.1694 32.276 35.4 32.1786 35.6091C32.0811 35.8182 31.9316 35.9987 31.7443 36.1334C31.5512 36.2694 31.3254 36.3515 31.09 36.3713C30.8547 36.3912 30.6183 36.348 30.4051 36.2464L24.4107 33.4388C24.2388 33.3593 24.0516 33.3181 23.8621 33.3181C23.6727 33.3181 23.4855 33.3593 23.3135 33.4388L17.2465 36.1334C17.0337 36.2166 16.8029 36.2432 16.5767 36.2107C16.3504 36.1782 16.1365 36.0876 15.9557 35.9479C15.7688 35.8071 15.622 35.6198 15.53 35.4046C15.438 35.1895 15.4039 34.954 15.4313 34.7216L16.2381 28.1463C16.2632 27.9561 16.2474 27.7626 16.1918 27.579C16.1361 27.3953 16.0419 27.2257 15.9154 27.0814L11.4942 22.1278C11.3309 21.9526 11.2178 21.7365 11.167 21.5024C11.1162 21.2683 11.1295 21.0249 11.2055 20.7977C11.2815 20.5705 11.4174 20.3681 11.5988 20.2117C11.7803 20.0553 12.0006 19.9508 12.2364 19.9091L18.7391 18.6586C18.9237 18.6241 19.0986 18.55 19.2519 18.4414C19.4051 18.3327 19.5329 18.1922 19.6265 18.0293L22.9827 12.3173C23.1023 12.1151 23.2738 11.9485 23.4796 11.835C23.6853 11.7215 23.9177 11.6652 24.1526 11.6719C24.3878 11.676 24.6177 11.7424 24.819 11.8643C25.0202 11.9861 25.1856 12.1592 25.2982 12.3658Z" fill="white"/>
</svg>
