<?xml version="1.0" encoding="UTF-8"?>
<!DOCTYPE svg PUBLIC "-//W3C//DTD SVG 1.1//EN" "http://www.w3.org/Graphics/SVG/1.1/DTD/svg11.dtd">
<!-- Creator: CorelDRAW -->
<svg xmlns="http://www.w3.org/2000/svg" xml:space="preserve" width="147px" height="37px" style="shape-rendering:geometricPrecision; text-rendering:geometricPrecision; image-rendering:optimizeQuality; fill-rule:evenodd; clip-rule:evenodd"
viewBox="0 0 39.9941 10.0847"
 xmlns:xlink="http://www.w3.org/1999/xlink">
 <defs>
  <style type="text/css">
   <![CDATA[
    .fil0 {fill:#FEFEFE;fill-rule:nonzero}
   ]]>
  </style>
 </defs>
 <g id="Слой_x0020_1">
  <metadata id="CorelCorpID_0Corel-Layer"/>
  <path id="logo_x0020__x0028_1_x0029_.svg" class="fil0" d="M13.394 4.54101l0.747079 -1.7583 -0.651988 -1.55963 -0.012648 -0.0302317 0.0327768 0 0.262137 0 0.0144989 0 0.00570701 0.0136506 0.535688 1.3039 0.535611 -1.3039 0.00570701 -0.0136506 0.0144989 0 0.262214 0 0.0326996 0 -0.012648 0.0302317 -0.651833 1.55948 0.757336 1.75869 1.40655 -3.3612 0.00562989 -0.0134963 0.014576 0 0.29368 0 0.0330852 0 -0.0131107 0.0304631 -1.59426 3.72329 -0.00562989 0.0132649 -0.0143447 0 -0.246481 0 -0.0144218 0 -0.00570701 -0.0132649 -0.797979 -1.86727 -0.803223 1.86727 -0.00570701 0.0131878 -0.0144218 0 -0.246481 0 -0.0143447 0 -0.00562989 -0.0132649 -1.58902 -3.72329 -0.0129565 -0.0305402 0.0330852 0 0.288436 0 0.0144989 0 0.00570701 0.0134192 1.41156 3.36097 7.71218e-005 0.000231365zm-7.65688 -3.5867c-0.0826746,0.0671731 -0.122701,0.0698723 -0.0970963,0.114449 0.0261443,0.0458103 0.0343192,0.0653993 -0.031003,0.0686384 -0.0653222,0.00323912 -0.11121,-0.00655535 -0.0898469,0.0261443 0.0212085,0.0326225 0.0571472,0.0718775 -0.0556048,0.0898469 -0.112752,0.0178923 -0.418231,0.129025 -0.602861,0.143755 -0.18463,0.0146531 -0.258281,0.0914664 -0.282651,0.15193 -0.0245247,0.0604635 -0.254965,0.161724 -0.315428,0.070258 -0.0603864,-0.0914664 -0.133961,-0.231982 -0.0980989,-0.308796 0.174527,-0.372884 -0.217329,-0.0922377 -0.321675,-0.24116 0.612887,-0.178768 1.34439,-0.276096 1.89427,-0.115143l0 7.71218e-005zm1.08788 0.330158c1.41773,0.586588 2.16666,2.02607 2.37389,2.84024 -0.249026,0.197123 -0.729187,0.624609 -0.781321,0.337716 -0.0522115,-0.287124 -0.143061,0.0119539 -0.234604,-0.223345 -0.0915436,-0.235144 -0.47052,-0.444376 -0.196121,-0.0914664 0.274554,0.352909 0.0778159,0.1972 0.208383,0.380133 0.130721,0.18301 0.248409,0.287587 0.457486,0.222188 0.209154,-0.0653222 0.169976,0.130721 -0.0130336,0.326765 -0.183087,0.196121 -0.548953,0.548953 -0.535919,0.993329 0.0131107,0.44453 0.143755,0.418231 -0.143678,0.65353 -0.287587,0.235299 -0.0653993,0.300621 -0.261443,0.483631 -0.196044,0.183087 -0.143678,0.392164 -0.496664,0.548953 -0.352909,0.156943 -0.235221,0.156943 -0.339799,-0.182933 -0.104577,-0.339876 -0.365943,-0.509852 -0.339876,-0.928084 0.0261443,-0.418231 0.196044,-0.731963 -0.0130336,-0.954074 -0.209154,-0.222188 0.0130336,-0.640496 -0.300621,-0.614352 -0.313809,0.0261443 -0.705819,0.300544 -1.00644,-0.209154 -0.300621,-0.509698 -0.470597,-0.928007 -0.156866,-1.12405 0.313731,-0.196044 0.300544,-0.496664 0.39201,-0.575097 0.0916207,-0.0784329 0.326919,0.117611 0.849651,-0.0262214 0.522809,-0.143755 0.183087,0.0653222 0.522809,0.222188 0.339876,0.156943 0.44453,0.0262214 0.522886,-0.0261443 0.0784329,-0.0522886 0.705896,-0.143755 0.300621,-0.300544 -0.461805,-0.178768 -0.599468,-0.075965 -0.656384,-0.360699 -0.0522115,-0.261366 -0.696101,-0.15648 -0.476073,-0.0617746 0.220183,0.0945513 0.413527,0.213396 0.322061,0.232985 -0.0914664,0.0195889 -0.172521,0.134269 -0.242085,0.109436 -0.0695639,-0.0249875 0.183241,-0.0767362 0.0460417,-0.168357 -0.137354,-0.0914664 -0.22882,-0.0718004 -0.274554,-0.163344 -0.0457332,-0.0914664 -0.0522115,-0.11121 -0.0522115,-0.11121 0,0 -0.156866,-0.0914664 -0.352986,0.196198 -0.196044,0.28751 -0.470597,0.39201 -0.54903,0.0914664 -0.0783557,-0.300621 0.705896,-0.274476 0.379131,-0.470597 -0.326765,-0.196044 0.313809,-0.274476 0.470597,-0.287587 0.156711,-0.0131107 0.561909,-0.444376 0.28751,-0.379131 -0.274476,0.0653222 -0.392087,0.104577 -0.627386,-0.0522886 -0.231597,-0.154398 0.676512,-0.0934716 0.917055,-0.328385l0 7.71218e-005zm-5.97478 3.01485c0.219874,-1.04739 1.48143,-2.74631 2.55674,-3.01801 0.274476,0 0.171056,0.393553 0.314734,0.641962 0.143678,0.248332 -0.039255,0.392164 -0.640574,0.483631 -0.601242,0.0915436 -0.509698,0.496587 -0.797285,0.627463 -0.287664,0.130567 -0.44453,0.483554 -0.535919,0.326611 -0.0914664,-0.156789 -0.379054,-0.130567 -0.561987,0.379131 -0.183087,0.509698 0.0276096,0.425095 0.175992,0.383835 0.148459,-0.0412602 0.111518,0.171365 0.255196,0.406586 0.143678,0.235299 0.470674,0.111441 0.784329,0.0199745 0.313809,-0.0916207 0.771295,0.143678 0.862684,0.392087 0.0915436,0.248332 0,0.444453 0.627309,0.666564 0.627386,0.222188 0.431342,0.300621 0.339876,0.575097 -0.0916207,0.274554 -0.130721,0.431342 -0.313809,0.692785 -0.182933,0.261366 0.0916207,0.418231 -0.182933,0.548953 -0.274554,0.130721 -0.588208,0.36602 -0.575174,0.614352 0.0131107,0.248409 0.222342,0.666641 -0.156866,0.379131 -0.379054,-0.287587 -0.509698,-0.797362 -0.561909,-1.52933 -0.0523657,-0.73204 -0.248409,-0.352909 -0.522886,-0.666641 -0.274476,-0.313654 -0.254888,-0.725408 -0.143755,-0.934485 0.11121,-0.209154 0.189565,-0.450931 -0.0391007,-0.477075 -0.22882,-0.0261443 -0.326765,-0.0849111 -0.418386,-0.320133 -0.0914664,-0.235299 -0.124089,-0.0784329 -0.326765,-0.11121 -0.0719546,-0.0114911 -0.115991,-0.0356303 -0.139745,-0.0811321l0.000231365 -0.000154244zm10.817 4.25496l16.7057 0 0 0.00115683 0.0106428 0 0 -0.00455019c0.113523,-0.00562989 0.211237,-0.0497436 0.293757,-0.131416 0.0885358,-0.0877646 0.132804,-0.195427 0.132804,-0.322138 0,-0.123703 -0.0434967,-0.229823 -0.132033,-0.317588 -0.0473528,-0.048124 -0.143524,-0.117611 -0.28859,-0.21062 -0.171133,-0.092469 -0.289361,-0.171133 -0.355069,-0.236764 -0.103035,-0.103112 -0.154244,-0.226738 -0.154244,-0.371187 0,-0.146454 0.0511317,-0.271006 0.154244,-0.374735 0.0900011,-0.0912351 0.197123,-0.142444 0.319747,-0.153472 0,-0.00416458 0.607643,-0.00223653 0.665484,-0.00223653l0 0.195272c-0.209617,0 -0.422165,-0.00084834 -0.600933,-0.00223653 -0.089307,-0.000616974 -0.179694,0.0420314 -0.243782,0.105348 -0.0641653,0.0633941 -0.096248,0.140516 -0.096248,0.232059 0,0.0894613 0.0320827,0.165812 0.096248,0.229823 0.0374041,0.0374041 0.116685,0.0940115 0.237304,0.170285 0.190876,0.104577 0.326765,0.196969 0.407049,0.277099 0.126711,0.128254 0.190028,0.280955 0.190028,0.458952 0,0.181699 -0.063317,0.336637 -0.190028,0.464196 -0.126711,0.127482 -0.280183,0.190799 -0.461111,0.190799 -0.0209771,0 -0.0414915,-0.00084834 -0.0617746,-0.00262214l-16.6293 0 0 -0.195427 0.000154244 0zm-6.62492 -8.55427c1.39236,0 2.65291,0.564377 3.56542,1.47696 0.912351,0.912428 1.47688,2.17306 1.47688,3.56542 0,1.39236 -0.564532,2.65299 -1.47688,3.56542 -0.912505,0.912351 -2.17322,1.47688 -3.56542,1.47688 -1.39236,0 -2.65299,-0.564454 -3.56542,-1.47688 -0.912505,-0.912428 -1.47688,-2.17322 -1.47688,-3.56542 0,-1.39236 0.564377,-2.65299 1.47688,-3.56542 0.912428,-0.912428 2.17322,-1.47696 3.56542,-1.47696zm3.3268 1.71557c-0.85127,-0.851425 -2.02761,-1.37801 -3.3268,-1.37801 -1.29935,0 -2.47553,0.526588 -3.32696,1.37801 -0.85127,0.85127 -1.37786,2.02753 -1.37786,3.3268 0,1.29927 0.526588,2.47553 1.37786,3.3268 0.851347,0.851425 2.02761,1.37801 3.32696,1.37801 1.29919,0 2.47538,-0.526742 3.3268,-1.37801 0.851347,-0.85127 1.37794,-2.02761 1.37794,-3.3268 0,-1.29927 -0.526742,-2.47553 -1.37794,-3.3268zm21.558 4.7868l0 -0.935256 0.200825 0 0 0.935256 0.447384 0 0 0.201519 -0.447384 0 0 1.99491 -0.200825 0 0 -1.99491 -0.447384 0 0 -0.201519 0.447384 0zm2.09108 2.22766c-0.274091,0 -0.493194,-0.0808236 -0.655073,-0.243551 -0.162496,-0.162496 -0.246481,-0.367948 -0.251109,-0.615278l0 -1.36891 0.201519 0 0 1.35133c0,0.186249 0.0679443,0.344966 0.203833,0.476304 0.134346,0.13211 0.300004,0.198511 0.498515,0.198511 0.184784,0 0.345043,-0.0657078 0.479389,-0.19774 0.135195,-0.13211 0.203062,-0.290981 0.203062,-0.47723l0 -1.35133 0.200825 0 0 1.36899c-0.00462731,0.24733 -0.0878417,0.452705 -0.250414,0.615278 -0.16265,0.16265 -0.372575,0.243551 -0.630625,0.243551l7.71218e-005 7.71218e-005zm3.92342 -0.0313114l-0.201519 0 0 -0.447306c-0.0389465,0.0519801 -0.0808236,0.102341 -0.127559,0.149616 -0.239695,0.240389 -0.52975,0.360313 -0.869625,0.360313 -0.338873,0 -0.628234,-0.11977 -0.868006,-0.360313 -0.240389,-0.239849 -0.360313,-0.52921 -0.360313,-0.867312 0,-0.340416 0.119924,-0.630625 0.360313,-0.870319 0.239772,-0.239849 0.529133,-0.360313 0.868006,-0.360313 0.339876,0 0.629931,0.120464 0.869625,0.360313 0.0465816,0.0473528 0.0885358,0.0977133 0.127559,0.149539l0 -1.69329 0.201519 0 0 3.57907zm-0.201519 -0.96649l0 -0.397794c-0.0374041,-0.196969 -0.13049,-0.369491 -0.279335,-0.519107 -0.198511,-0.198511 -0.437512,-0.296996 -0.717695,-0.296996 -0.280955,0 -0.519955,0.0984845 -0.718467,0.296996 -0.198511,0.198511 -0.296996,0.437435 -0.296996,0.71839 0,0.280261 0.0984845,0.519107 0.296996,0.717001 0.198511,0.196969 0.437435,0.296302 0.718467,0.296302 0.280183,0 0.519184,-0.0993329 0.717695,-0.297844 0.148845,-0.148922 0.241931,-0.321367 0.279335,-0.516947zm1.11842 -1.22986l0 2.19643 -0.201519 0 0 -2.19643 0.201519 0zm-0.100721 -0.777928c0.0549107,0 0.102263,0.0190491 0.141904,0.0579956 0.0397948,0.0381753 0.059538,0.0854509 0.059538,0.140516 0,0.0564532 -0.0197432,0.1045 -0.059538,0.143447 -0.0397177,0.0388694 -0.0869934,0.0579956 -0.141904,0.0579956 -0.055065,0 -0.102341,-0.0191262 -0.141981,-0.0579956 -0.0397948,-0.0389465 -0.0596151,-0.0869934 -0.0596151,-0.143447 0,-0.055065 0.0198203,-0.102341 0.0596151,-0.140516 0.0396406,-0.0389465 0.0869163,-0.0579956 0.141981,-0.0579956zm1.91015 0.578722c0.339722,0 0.629854,0.120541 0.868854,0.360313 0.239772,0.239695 0.358848,0.529827 0.358848,0.870397 0,0.338179 -0.119076,0.62754 -0.358848,0.867235 -0.238923,0.240466 -0.529133,0.36039 -0.868854,0.36039 -0.338256,0 -0.627694,-0.119847 -0.868083,-0.36039 -0.239695,-0.239772 -0.359542,-0.529133 -0.359542,-0.867235 0,-0.340493 0.119847,-0.630702 0.359542,-0.870397 0.240389,-0.239772 0.529827,-0.360313 0.868083,-0.360313zm0 0.21517c-0.280183,0 -0.519878,0.0984845 -0.717695,0.296996 -0.198434,0.198511 -0.29769,0.437435 -0.29769,0.71839 0,0.280261 0.0992557,0.519107 0.29769,0.717001 0.197817,0.196969 0.437512,0.296302 0.717695,0.296302 0.280183,0 0.519878,-0.0993329 0.71839,-0.296302 0.197817,-0.197817 0.296996,-0.436741 0.296996,-0.717001 0,-0.280878 -0.0992557,-0.519878 -0.296996,-0.71839 -0.198511,-0.198511 -0.438206,-0.296996 -0.71839,-0.296996zm-20.0194 -1.55416c0.131955,-0.000771218 0.257895,-0.0175066 0.378514,-0.050669 0.120618,-0.0332395 0.232368,-0.080438 0.334709,-0.140747 0.102263,-0.0611576 0.191339,-0.132881 0.267381,-0.215787 0.0760421,-0.0830602 0.135503,-0.173987 0.178306,-0.274399l-0.309413 -0.0839856c-0.0437281,0.098793 -0.107585,0.184398 -0.19319,0.258744 -0.0856823,0.0734971 -0.18355,0.131184 -0.295454,0.171365 -0.111827,0.0411059 -0.228975,0.062083 -0.350519,0.0629314 -0.131955,-0.00084834 -0.256121,-0.0262985 -0.372267,-0.0760421 -0.117148,-0.050669 -0.221185,-0.121467 -0.312035,-0.212393 -0.0910037,-0.0910037 -0.165272,-0.198434 -0.221108,-0.322523 -0.0559904,-0.123241 -0.0900011,-0.258666 -0.101338,-0.406432l2.33363 0c0.00262214,-0.0121081 0.0053214,-0.0313886 0.00701808,-0.0593067 0.00262214,-0.027224 0.0035476,-0.0551421 0.0035476,-0.0822118 -0.00169668,-0.188794 -0.0358616,-0.3671 -0.101415,-0.534917 -0.0654764,-0.16774 -0.1581,-0.317279 -0.277793,-0.446612 -0.119847,-0.129333 -0.262214,-0.23152 -0.426561,-0.305017 -0.165272,-0.0742683 -0.346971,-0.111827 -0.547102,-0.1136 -0.19936,0.00084834 -0.381984,0.0384067 -0.548027,0.111904 -0.16612,0.0734199 -0.311264,0.174758 -0.433502,0.303243 -0.122392,0.12941 -0.217715,0.278718 -0.284965,0.447461 -0.0673273,0.168742 -0.101338,0.34967 -0.102263,0.542783 0.000771218,0.195812 0.0349362,0.378514 0.102263,0.55065 0.0681757,0.171288 0.162573,0.322523 0.28589,0.45363 0.123164,0.131107 0.267381,0.234296 0.435198,0.308564 0.166892,0.0742683 0.350441,0.111827 0.55065,0.1136l-0.000154244 -0.000231365zm-1.0069 -1.56272c0.0095631,-0.144989 0.0418771,-0.27787 0.0970192,-0.398565 0.0542166,-0.120618 0.126711,-0.224502 0.216712,-0.313731 0.0900783,-0.0883045 0.193961,-0.15648 0.311109,-0.205452 0.116223,-0.0479698 0.242085,-0.0724945 0.37674,-0.0733428 0.1345,0.00084834 0.26044,0.0244476 0.376586,0.0725716 0.117148,0.0479698 0.221108,0.116145 0.312035,0.20445 0.0910037,0.0883045 0.164347,0.19319 0.22026,0.313809 0.0559133,0.120618 0.0909266,0.254348 0.103112,0.400262l-2.01373 0 0.000154244 0zm19.1368 1.56272c0.131955,-0.000771218 0.257895,-0.0175066 0.378514,-0.050669 0.120618,-0.0332395 0.232445,-0.080438 0.334631,-0.140747 0.102341,-0.0611576 0.191571,-0.132881 0.267458,-0.215787 0.0761192,-0.0830602 0.135426,-0.173987 0.178306,-0.274399l-0.309413 -0.0839856c-0.0437281,0.098793 -0.107508,0.184398 -0.19319,0.258744 -0.0856823,0.0734971 -0.18355,0.131184 -0.295454,0.171365 -0.111827,0.0411059 -0.228975,0.062083 -0.350441,0.0629314 -0.132033,-0.00084834 -0.256121,-0.0262985 -0.372421,-0.0760421 -0.117071,-0.050669 -0.221031,-0.121467 -0.311958,-0.212393 -0.0909266,-0.0910037 -0.165272,-0.198434 -0.221108,-0.322523 -0.0560675,-0.123241 -0.0900011,-0.258666 -0.101338,-0.406432l2.33363 0c0.00262214,-0.0121081 0.00524428,-0.0313886 0.00701808,-0.0593067 0.00254502,-0.027224 0.00347048,-0.0551421 0.00347048,-0.0822118 -0.00169668,-0.188794 -0.0357845,-0.3671 -0.101338,-0.534917 -0.0654764,-0.16774 -0.158254,-0.317279 -0.277947,-0.446612 -0.11977,-0.129333 -0.262137,-0.23152 -0.426561,-0.305017 -0.165195,-0.0742683 -0.346971,-0.111827 -0.547102,-0.1136 -0.19936,0.00084834 -0.381984,0.0384067 -0.548027,0.111904 -0.166043,0.0734199 -0.311186,0.174758 -0.433502,0.303243 -0.122392,0.12941 -0.217638,0.278718 -0.284888,0.447461 -0.0673273,0.168742 -0.101415,0.34967 -0.102341,0.542783 0.000925462,0.195812 0.0350133,0.378514 0.102341,0.55065 0.0681757,0.171288 0.162496,0.322523 0.285813,0.45363 0.123241,0.131107 0.267458,0.234296 0.435275,0.308564 0.166969,0.0742683 0.350519,0.111827 0.550572,0.1136l0 -0.000231365zm-1.00698 -1.56272c0.00971735,-0.144989 0.0419543,-0.27787 0.0970963,-0.398565 0.0541395,-0.120618 0.126788,-0.224502 0.216712,-0.313731 0.0900783,-0.0883045 0.194116,-0.15648 0.311109,-0.205452 0.1163,-0.0479698 0.242085,-0.0724945 0.37674,-0.0733428 0.1345,0.00084834 0.260363,0.0244476 0.376586,0.0725716 0.117148,0.0479698 0.221185,0.116145 0.312035,0.20445 0.0910037,0.0883045 0.164347,0.19319 0.22026,0.313809 0.0559133,0.120618 0.0909266,0.254348 0.103112,0.400262l-2.01373 0 7.71218e-005 0zm-13.7262 1.56519c-0.0704122,0.0124937 -0.143292,0.018972 -0.218563,0.0193576l-0.000231365 0c-0.0733428,-0.000385609 -0.145143,-0.00717233 -0.215093,-0.0203602 -0.0703351,-0.0132649 -0.139128,-0.0328539 -0.205992,-0.0586897l-0.000154244 0c-0.0670188,-0.0262985 -0.130799,-0.0570701 -0.191493,-0.0928546 -0.060772,-0.0358616 -0.118228,-0.0765048 -0.17283,-0.122238 -0.0542166,-0.0452705 -0.10396,-0.0941657 -0.149308,-0.146763 -0.0289207,-0.033548 -0.0561447,-0.0685613 -0.0813635,-0.104963l0 0.471831 0 0.0218255 -0.0219026 0 -0.235993 0 -0.0219797 0 0 -0.0218255 0 -3.82825 0 -0.0219797 0.0219797 0 0.262137 0 0.0218255 0 0 0.0219797 0 1.62457c0.0312343,-0.0428026 0.0637026,-0.0839085 0.0974819,-0.123318l0 -7.71218e-005c0.0482782,-0.0561447 0.0994871,-0.108665 0.153549,-0.157406l0.000154244 0c0.054448,-0.0485867 0.111364,-0.0920063 0.170748,-0.129873 0.0596923,-0.0379439 0.122469,-0.0707207 0.188563,-0.0977904l-0.000154244 -7.71218e-005c0.0660934,-0.0276096 0.134963,-0.0483554 0.207072,-0.0623144 0.0717233,-0.013959 0.14684,-0.0210542 0.225119,-0.0214399l0.000154244 0c0.0792812,0.000385609 0.155092,0.00748081 0.227586,0.0212085 0.0727259,0.0137277 0.14229,0.0340107 0.208692,0.060772l7.71218e-005 0c0.0657849,0.026607 0.128176,0.0583812 0.18702,0.0954768 0.0586126,0.0368642 0.113832,0.0790498 0.165503,0.126325 0.0518258,0.0468901 0.0997185,0.0974048 0.143524,0.151699 0.0435738,0.0539081 0.0832144,0.111518 0.118536,0.172599l-7.71218e-005 0c0.036093,0.0613118 0.0674816,0.124552 0.0945513,0.189411 0.027224,0.065245 0.0499749,0.132727 0.0686384,0.202136 0.0371727,0.139051 0.0558362,0.279952 0.0558362,0.423399l-0.000154244 7.71218e-005c-0.000385609,0.0769676 -0.00593838,0.152316 -0.0169668,0.226044 -0.0108742,0.072803 -0.0269926,0.144372 -0.0485867,0.21463 -0.0219026,0.0704893 -0.0482011,0.138356 -0.0790498,0.203679 -0.0304631,0.0645509 -0.0657078,0.126942 -0.105348,0.18648l0 7.71218e-005c-0.0394092,0.0592295 -0.0828288,0.115143 -0.130259,0.167354 -0.0473528,0.0522886 -0.0983303,0.100798 -0.152933,0.145066l-0.000154244 7.71218e-005c-0.055065,0.0444993 -0.112983,0.0840628 -0.173447,0.118613l-7.71218e-005 0c-0.0606177,0.0346277 -0.124166,0.0643967 -0.190799,0.089307l0 0c-0.066479,0.0250646 -0.13504,0.0436509 -0.205838,0.056376l0 -0.000154244zm-0.38692 -0.269155c0.039255,0.00593838 0.0778159,0.00886901 0.115683,0.00886901l0 7.71218e-005c0.0624687,-0.000385609 0.122701,-0.00593838 0.180928,-0.0166583 0.0580727,-0.0106428 0.113986,-0.026607 0.167817,-0.0474299l7.71218e-005 -7.71218e-005c0.0539853,-0.0205915 0.105348,-0.0451934 0.154089,-0.0739598 0.0489723,-0.0287664 0.0954768,-0.0617746 0.139359,-0.098793l0 0c0.0436509,-0.0371727 0.0843712,-0.0771218 0.122084,-0.120079 0.0376354,-0.0428797 0.0722631,-0.0885358 0.103575,-0.137354 0.0313886,-0.0485867 0.0590753,-0.0988701 0.0832144,-0.150773 0.0242162,-0.0521343 0.0448849,-0.10612 0.0620059,-0.161879l-7.71218e-005 0c0.0167354,-0.0556819 0.0295376,-0.112058 0.0378668,-0.168897 0.0084834,-0.0566074 0.0127251,-0.113986 0.0127251,-0.171827l7.71218e-005 0c-0.000385609,-0.075965 -0.00694096,-0.15031 -0.0195118,-0.223268 -0.0124166,-0.072803 -0.031003,-0.144141 -0.0553734,-0.213627 -0.0244476,-0.0694096 -0.0540624,-0.135195 -0.0889985,-0.1972 -0.0348591,-0.0617746 -0.0750395,-0.119924 -0.120464,-0.174372l-7.71218e-005 -0.000231365c-0.0448849,-0.0547565 -0.0941657,-0.103497 -0.147611,-0.146454 -0.0532912,-0.0428797 -0.111133,-0.0800524 -0.173293,-0.111749 -0.0617746,-0.0316199 -0.127174,-0.0555277 -0.195812,-0.0716461 -0.0687155,-0.0160413 -0.140747,-0.0245247 -0.215478,-0.0249103 -0.0573015,0.000385609 -0.112598,0.0053214 -0.166197,0.0149616 -0.0533683,0.0095631 -0.104963,0.0239078 -0.154783,0.043034l-0.000154244 7.71218e-005c-0.0499749,0.0188948 -0.0977133,0.0412602 -0.143138,0.0670188 -0.0458875,0.0260672 -0.0897698,0.0556819 -0.131493,0.0887672l-7.71218e-005 7.71218e-005c-0.0422627,0.0333166 -0.0821347,0.0687155 -0.119385,0.106428 -0.0373269,0.0376354 -0.0725716,0.0778159 -0.105811,0.120618l0 -7.71218e-005c-0.0322369,0.0420314 -0.062083,0.0856052 -0.0896926,0.13049 -0.027224,0.044345 -0.0520572,0.0895384 -0.0744225,0.135503l0 0.896078c0.00478155,0.0385609 0.0132649,0.0761192 0.0258358,0.112675 0.0128022,0.0370185 0.0296148,0.0729572 0.0505919,0.107893l0.000154244 7.71218e-005c0.0206686,0.0351675 0.0446535,0.0691782 0.0718004,0.101724 0.0273011,0.0328539 0.0573786,0.0640111 0.0900011,0.0933174l7.71218e-005 7.71218e-005c0.0330081,0.0300004 0.0677901,0.0579185 0.104192,0.0836771 0.0363244,0.0257587 0.0744225,0.0495122 0.114294,0.0713377 0.0404118,0.0217483 0.0814406,0.0413373 0.122624,0.0584583 0.0404889,0.0166583 0.081055,0.0311572 0.121467,0.0429568l0 7.71218e-005c0.0409517,0.0118768 0.0813635,0.0207458 0.121235,0.0269155l7.71218e-005 7.71218e-005zm6.10604 -1.70902c0.0138819,0.109127 0.0206686,0.227664 0.020283,0.3553l7.71218e-005 0 0 1.56812 0 0.0218255 -0.0219026 0 -0.262137 0 -0.0219797 0 0 -0.0218255 0 -1.52092c0,-0.169899 -0.0131878,-0.317896 -0.0397948,-0.443682 -0.0262214,-0.124706 -0.0657078,-0.227509 -0.118305,-0.308333 -0.0520572,-0.0795897 -0.117071,-0.139436 -0.195041,-0.179 -0.0783557,-0.039872 -0.170131,-0.0596923 -0.275248,-0.0592295 -0.0743454,0.000385609 -0.145992,0.0095631 -0.214476,0.0273011 -0.068407,0.0178151 -0.133883,0.0442679 -0.196198,0.0792041 -0.0625458,0.0350904 -0.120773,0.0770447 -0.174449,0.125554 -0.0537539,0.0486639 -0.10342,0.1045 -0.148922,0.167123l-0.000154244 7.71218e-005c-0.0455019,0.062083 -0.0851425,0.129487 -0.11923,0.201673 -0.0336251,0.0714919 -0.0618517,0.148074 -0.0845255,0.229514l0 1.68072 0 0.0218255 -0.0219026 0 -0.262214 0 -0.0218255 0 0 -0.0218255 0 -1.52092 0.000154244 0c0.000385609,-0.172367 -0.0125709,-0.321598 -0.0388694,-0.448078 -0.02599,-0.125169 -0.0650137,-0.227586 -0.116685,-0.307407l-0.000154244 -7.71218e-005c-0.0512089,-0.0792812 -0.115451,-0.138356 -0.192804,-0.177303 -0.077893,-0.0391779 -0.169437,-0.0583041 -0.274631,-0.0575329l-0.000154244 0c-0.0724945,0.000462731 -0.142752,0.00940886 -0.21062,0.0268384 -0.0680214,0.0172753 -0.133344,0.0431111 -0.195966,0.0771218l0 0c-0.0629314,0.0347048 -0.121544,0.075965 -0.175838,0.123858l0 7.71218e-005c-0.054448,0.048124 -0.104886,0.10288 -0.151082,0.164501l7.71218e-005 0c-0.0464273,0.0624687 -0.0874561,0.130027 -0.122547,0.20283 -0.0346277,0.0716461 -0.0637797,0.148382 -0.0873019,0.230286l0 1.68557 0 0.0218255 -0.0218255 0 -0.262137 0 -0.0219797 0 0 -0.0218255 0 -2.72695 0 -0.0219797 0.0219797 0 0.241237 0 0.0219026 0 0 0.0219797 0 0.566228c0.027841,-0.0470443 0.0573015,-0.0915436 0.0883816,-0.133806 0.0468901,-0.063317 0.0977904,-0.121544 0.15247,-0.174527l0 -7.71218e-005c0.0547565,-0.0529056 0.112521,-0.0994871 0.172907,-0.139745 0.0603092,-0.0403347 0.123935,-0.0744225 0.190337,-0.102418 0.0665561,-0.0281495 0.135272,-0.0494351 0.205915,-0.0635484l0 -0.000154244c0.0703351,-0.0141133 0.142598,-0.0212085 0.216789,-0.0212085l7.71218e-005 0.000154244c0.0782786,0.000385609 0.15139,0.00871476 0.219489,0.024679 0.0686384,0.0160413 0.132418,0.039872 0.191725,0.0714148l7.71218e-005 7.71218e-005c0.0589211,0.0319284 0.111981,0.0699495 0.159488,0.114372 0.0474299,0.0441908 0.0892299,0.0947827 0.125709,0.15193l7.71218e-005 0c0.0357845,0.0561447 0.0649366,0.117302 0.0878417,0.183319 0.0165041,0.047507 0.0296919,0.0974819 0.0397177,0.149925 0.0577642,-0.100952 0.11977,-0.190876 0.186249,-0.269926 0.0786642,-0.0934716 0.163344,-0.171827 0.253885,-0.234836 0.091158,-0.0633941 0.188563,-0.111287 0.291983,-0.143215 0.10288,-0.0316971 0.211699,-0.0477384 0.326302,-0.0477384l0.000154244 7.71218e-005c0.101338,0.000385609 0.193113,0.0129565 0.275248,0.0374041 0.0829059,0.024679 0.156172,0.0614661 0.219489,0.110516 0.0635484,0.0490495 0.118382,0.10905 0.164501,0.179617 0.0458875,0.0704122 0.0833687,0.151236 0.112212,0.242625l0 7.71218e-005c0.0283808,0.0913122 0.0496664,0.192033 0.0636255,0.30224l0.000539853 0.000308487zm1.67493 1.98249c-0.0731886,0.0100258 -0.147765,0.015193 -0.223807,0.015193l-7.71218e-005 -0.000154244c-0.0649366,-0.000385609 -0.127637,-0.00616974 -0.188023,-0.0170439 -0.0608491,-0.0111827 -0.119385,-0.0275325 -0.175298,-0.0489723l-0.000231365 0c-0.0556048,-0.0218255 -0.107971,-0.0479698 -0.156943,-0.0786642 -0.0490495,-0.0308487 -0.0943971,-0.0657849 -0.135811,-0.104963l0 0c-0.0422627,-0.0391779 -0.0795126,-0.0818262 -0.111981,-0.127559 -0.0326225,-0.0460417 -0.0606949,-0.0953225 -0.0843712,-0.147688l0 -0.000154244c-0.0233679,-0.0525199 -0.0408746,-0.107354 -0.0525971,-0.164269 -0.0118768,-0.0573015 -0.0179694,-0.117071 -0.018355,-0.179154l0 -7.71218e-005c0.000385609,-0.0609262 0.0077893,-0.119153 0.0222111,-0.174758 0.0144218,-0.0556819 0.0360159,-0.108973 0.0643196,-0.159951l7.71218e-005 -0.000231365c0.0287664,-0.0502834 0.0632399,-0.0973277 0.103575,-0.140979 0.0400262,-0.0434967 0.0860679,-0.0836771 0.137971,-0.120464 0.0517487,-0.0365557 0.10851,-0.0692554 0.169822,-0.0975591 0.0611576,-0.0284579 0.126865,-0.0525971 0.196969,-0.0724945l0 0c0.070258,-0.0198203 0.144295,-0.0347048 0.222188,-0.0447306 0.077276,-0.00987159 0.1581,-0.0149616 0.242548,-0.0154244l0.000154244 -0.000154244c0.0492037,0 0.09941,0.00154244 0.150002,0.00470443 0.0505148,0.00316199 0.100798,0.0077893 0.150696,0.0138819 0.0504377,0.00609262 0.100181,0.0133421 0.149231,0.0219026 0.0489723,0.0084834 0.0973277,0.0182779 0.144835,0.0293063l0.000154244 0c0.0464273,0.0107971 0.0913122,0.0228281 0.134578,0.0357074 0.0336251,0.0100258 0.0662476,0.0207458 0.0980989,0.0320827l0 -0.236378 7.71218e-005 0c-0.000385609,-0.0841399 -0.00894613,-0.162804 -0.0255273,-0.235993 -0.0165041,-0.0727259 -0.0410288,-0.139976 -0.0733428,-0.201288 -0.032314,-0.0612347 -0.0714919,-0.115683 -0.117302,-0.162958 -0.0456561,-0.0470443 -0.0980989,-0.0872247 -0.157251,-0.120079l-7.71218e-005 -0.000154244c-0.0593067,-0.0334709 -0.124166,-0.0586897 -0.194501,-0.0756565 -0.0705664,-0.017121 -0.146763,-0.0259129 -0.228358,-0.0262985l0 7.71218e-005c-0.0674044,0 -0.135889,0.00694096 -0.205761,0.0206686 -0.0701037,0.0136506 -0.141827,0.0343963 -0.214938,0.0618517l-0.000154244 0c-0.072803,0.0271469 -0.146377,0.0606949 -0.220337,0.100567 -0.0737284,0.0397948 -0.14792,0.0858366 -0.222188,0.138048l-0.0193576 0.0135734 -0.0119539 -0.0203602 -0.104886 -0.178306 -0.0104114 -0.0176609 0.0170439 -0.011414c0.0887672,-0.0596923 0.176069,-0.111904 0.261751,-0.156557 0.086145,-0.044962 0.17121,-0.0825203 0.255119,-0.112521l0 0c0.0833687,-0.030386 0.165966,-0.0531369 0.247792,-0.0683299 0.0825203,-0.0153472 0.163807,-0.0229052 0.243859,-0.0229052l7.71218e-005 7.71218e-005c0.111518,0.000385609 0.215478,0.0117996 0.311572,0.0340107 0.0963251,0.0222111 0.185169,0.0555277 0.265916,0.0997185l0 -0.000154244c0.0812864,0.0437281 0.153318,0.0972506 0.216018,0.160336 0.0627,0.0630085 0.116068,0.135503 0.159951,0.217561 0.0438052,0.0820576 0.0768904,0.171982 0.0990244,0.269772 0.0220568,0.0971735 0.0332395,0.202445 0.0337793,0.315505l7.71218e-005 0.000154244 0 1.32757c0,0.0203602 0.00208229,0.0377126 0.00632399,0.0521343 0.00377897,0.0134192 0.00925462,0.0242934 0.0162727,0.0323912l0.000231365 0.000308487c0.00663247,0.00802067 0.015193,0.013959 0.0255273,0.0179694 0.0108742,0.00439594 0.0243705,0.00655535 0.0400262,0.00655535l0.0219026 0 0 0.0218255 0 0.235144 0 0.0188948 -0.0187406 0.00262214c-0.00910037,0.00123395 -0.0180465,0.00239078 -0.0275325,0.00323912 -0.00971735,0.000925462 -0.0184321,0.00131107 -0.0263757,0.00131107l0 0c-0.0166583,0.00084834 -0.0310801,0.00084834 -0.0436509,0.00084834 -0.0232137,0 -0.0456561,-0.00293063 -0.0677129,-0.00825203 -0.0219026,-0.00547565 -0.0431882,-0.0134963 -0.0636255,-0.0236764l-0.000154244 -0.000231365c-0.0205144,-0.0104886 -0.0393321,-0.0231365 -0.0561447,-0.0377126 -0.0166583,-0.0144989 -0.0316971,-0.0312343 -0.0445764,-0.0497436l7.71218e-005 0c-0.0135734,-0.0193576 -0.0237535,-0.039872 -0.0305402,-0.0617746 -0.00686384,-0.0219797 -0.0104114,-0.0454247 -0.0109513,-0.0707978l-7.71218e-005 -0.000385609 0 -0.164424c-0.0323912,0.0375583 -0.0667104,0.0731115 -0.102803,0.106505 -0.0505148,0.0464273 -0.104886,0.0887672 -0.163344,0.126942l0 0c-0.0584583,0.0384838 -0.119847,0.0724945 -0.183935,0.101647 -0.0646281,0.0294605 -0.131647,0.0542166 -0.201211,0.0740369 -0.0694867,0.0198974 -0.14121,0.0350133 -0.214861,0.0451162l0.000231365 -0.000308487zm-0.354529 -0.260517c0.0576871,0.0143447 0.11869,0.0217483 0.183164,0.022134l0 -7.71218e-005c0.0669417,0 0.13211,-0.0042417 0.195041,-0.012648 0.0636255,-0.0084834 0.125863,-0.0212085 0.186326,-0.038021 0.0599236,-0.0166583 0.116994,-0.0370185 0.170671,-0.0606949 0.0533683,-0.0236764 0.103575,-0.0509004 0.150002,-0.0815949l0.000231365 -7.71218e-005c0.0466587,-0.0301546 0.0886129,-0.063317 0.125631,-0.0993329 0.0374041,-0.0362472 0.0701808,-0.0755022 0.0977904,-0.117225l0.000385609 -0.000694096 0.00084834 -0.00100258c0.0138048,-0.0167354 0.0262985,-0.0334709 0.0368642,-0.0504377 0.0103343,-0.0164269 0.0192033,-0.0332395 0.0262214,-0.0505148 0.00709521,-0.0174295 0.0124166,-0.0340107 0.0159642,-0.0498207 0.00339336,-0.0153472 0.00509004,-0.030386 0.00509004,-0.0451934l0 -0.467127c-0.0596151,-0.0215941 -0.120002,-0.0407203 -0.180851,-0.0573015 -0.0657078,-0.0178923 -0.132727,-0.0333166 -0.200517,-0.0458103l0 7.71218e-005c-0.0692554,-0.0123395 -0.138819,-0.0218255 -0.208152,-0.0281495 -0.0677129,-0.00593838 -0.136737,-0.00917749 -0.206609,-0.00917749l0 -7.71218e-005c-0.0901554,0.000385609 -0.174758,0.00686384 -0.253422,0.0194347 -0.0784329,0.0124937 -0.151159,0.0311572 -0.218023,0.0560675 -0.0665561,0.0247561 -0.125631,0.0543709 -0.177149,0.0887672 -0.0511317,0.0342421 -0.095014,0.0731886 -0.131801,0.117071 -0.0364015,0.0439594 -0.063934,0.0912351 -0.0822118,0.141904 -0.0184321,0.0508233 -0.0277638,0.105117 -0.0281495,0.16319 0.000385609,0.0593838 0.00817491,0.115914 0.0232137,0.169359 0.0150387,0.0535996 0.0374041,0.10396 0.0670188,0.151236l0 7.71218e-005c0.0298461,0.0471985 0.0647823,0.0897698 0.10504,0.127251 0.0397948,0.0369413 0.0846026,0.0689469 0.134886,0.0957081l7.71218e-005 0c0.0507461,0.0274554 0.104886,0.0485867 0.16211,0.0627l0.000308487 0zm3.45344 0.249643c-0.093703,0.0167354 -0.194501,0.0255273 -0.302009,0.0259129l-0.000154244 0.000154244c-0.0709521,0 -0.141133,-0.00401033 -0.210388,-0.0121081 -0.0693325,-0.00786642 -0.13774,-0.0198203 -0.205375,-0.0357074l-7.71218e-005 0c-0.0669417,-0.0158871 -0.132264,-0.0356303 -0.196044,-0.0593067 -0.0635484,-0.0237535 -0.125246,-0.0511317 -0.184861,-0.0825203 -0.0597694,-0.0314657 -0.116762,-0.0668646 -0.170593,-0.106042 -0.0542166,-0.0393321 -0.105734,-0.0828288 -0.154321,-0.130104l-0.0137277 -0.0132649 0.0112598 -0.0152701 0.131107 -0.178306 0.0143447 -0.0194347 0.0178923 0.0160413c0.0718775,0.0645509 0.14522,0.120618 0.219951,0.168357 0.0754251,0.0482011 0.152624,0.0882273 0.231597,0.120387l0 7.71218e-005c0.0785871,0.0313114 0.160182,0.0548336 0.244939,0.070258 0.0846026,0.0155786 0.172676,0.0232908 0.264296,0.0232908 0.0781244,0 0.151159,-0.00555277 0.218717,-0.0165041l0 0c0.0680214,-0.0109513 0.130953,-0.0274554 0.188717,-0.0492808 0.0575329,-0.0216712 0.108665,-0.0482011 0.153318,-0.0796668 0.0441908,-0.031003 0.0820576,-0.0668646 0.113369,-0.107199l0.000154244 -0.000231365c0.0313886,-0.0396406 0.055065,-0.0838314 0.0710292,-0.132264 0.0161185,-0.0489723 0.0244476,-0.102186 0.0247561,-0.159257l-7.71218e-005 0c0,-0.0407203 -0.00431882,-0.0778159 -0.0131107,-0.111287 -0.00863764,-0.0331624 -0.0217483,-0.0632399 -0.039255,-0.0900011l-7.71218e-005 -7.71218e-005c-0.0171982,-0.027224 -0.0389465,-0.0523657 -0.0649366,-0.0754251 -0.0263757,-0.0235221 -0.0571472,-0.0448078 -0.0923148,-0.0640111l-7.71218e-005 -7.71218e-005c-0.0353989,-0.0196661 -0.0755022,-0.0383295 -0.119924,-0.0559133 -0.0442679,-0.0176609 -0.0936259,-0.0345506 -0.147457,-0.0505919l0 0c-0.0546022,-0.0161956 -0.112906,-0.0323912 -0.175298,-0.0484325 -0.0617746,-0.0160413 -0.128716,-0.032314 -0.200979,-0.0491266 -0.0778159,-0.0180465 -0.150233,-0.036093 -0.217098,-0.0539081 -0.067096,-0.0178923 -0.129333,-0.0359388 -0.18648,-0.0539853l-7.71218e-005 0c-0.056993,-0.0178923 -0.10959,-0.0375583 -0.157637,-0.0589211 -0.048124,-0.0212856 -0.0908495,-0.0440365 -0.128176,-0.0684842 -0.0384838,-0.0245247 -0.072186,-0.0522886 -0.10103,-0.0832915 -0.0289207,-0.0311572 -0.0529056,-0.0655535 -0.0718775,-0.10288l7.71218e-005 0c-0.0191262,-0.0375583 -0.0334709,-0.0793583 -0.0428797,-0.125631 -0.00925462,-0.0459646 -0.0138048,-0.096248 -0.0138048,-0.150619l0.000154244 -7.71218e-005c0.000385609,-0.0694867 0.00748081,-0.134578 0.0209771,-0.195118 0.0138048,-0.0618517 0.0342421,-0.118922 0.060772,-0.171288l0.000154244 -0.000154244c0.0268384,-0.0519801 0.0589982,-0.0997185 0.0961709,-0.14283l0 -0.000154244c0.0373269,-0.0432653 0.0797439,-0.0820576 0.127174,-0.116377l0 0c0.0467358,-0.0342421 0.0975591,-0.0643196 0.152007,-0.0897698 0.0546794,-0.0256044 0.112829,-0.0466587 0.174218,-0.0630085l0 7.71218e-005c0.0605406,-0.0167354 0.12378,-0.0294605 0.189257,-0.0378668 0.0657849,-0.0084834 0.133575,-0.0128022 0.202599,-0.0128022l7.71218e-005 0.000154244c0.0725716,0.000385609 0.141904,0.00462731 0.207997,0.0127251 0.0665561,0.00825203 0.130721,0.0204373 0.192573,0.0370185 0.0616974,0.0163498 0.119847,0.0360159 0.174681,0.0586897 0.0548336,0.0229052 0.106274,0.0489723 0.154552,0.0784329l0 7.71218e-005c0.0477384,0.0289207 0.0913122,0.0605406 0.130721,0.0944742 0.0394092,0.0340107 0.0746539,0.0706436 0.105657,0.109899l0.0122624 0.0154244 -0.0141904 0.0137277 -0.14684 0.141518 -0.0165812 0.0161185 -0.0150387 -0.0175066c-0.0293834,-0.0340107 -0.0616203,-0.065245 -0.0969421,-0.0934716l0 7.71218e-005c-0.0355531,-0.0283808 -0.0742683,-0.0539853 -0.116145,-0.0764277l-0.000154244 0c-0.0421085,-0.0227509 -0.0859908,-0.0427255 -0.131724,-0.0596923 -0.0458875,-0.0170439 -0.0939343,-0.0314657 -0.144218,-0.0431111 -0.0503605,-0.0116454 -0.101569,-0.0202059 -0.153472,-0.0259129 -0.0517487,-0.00570701 -0.104809,-0.0084834 -0.158948,-0.0084834 -0.0505148,0 -0.0993329,0.00254502 -0.145992,0.00794354 -0.046196,0.00516716 -0.0908495,0.0131107 -0.133729,0.0237535 -0.0428797,0.0106428 -0.0832144,0.024062 -0.121004,0.0403347 -0.0377126,0.0161185 -0.0728801,0.0352447 -0.105348,0.0571472 -0.0320827,0.0217483 -0.0606177,0.0464273 -0.0856052,0.0739598 -0.0250646,0.027841 -0.0470443,0.0589211 -0.0654764,0.0929318l7.71218e-005 0c-0.0178923,0.0337022 -0.0313886,0.0707978 -0.0406432,0.111055 -0.00933174,0.0408746 -0.0142675,0.0849882 -0.014576,0.132187l0.000154244 0c0,0.0375583 0.00308487,0.0718775 0.00933174,0.102341 0.00632399,0.0300775 0.0155786,0.056993 0.0281495,0.0803609 0.0129565,0.0239078 0.0292292,0.0459646 0.0488952,0.065862 0.0198974,0.0200517 0.0434196,0.0381753 0.0705664,0.0542937 0.0281495,0.0164269 0.0600008,0.0322369 0.0958624,0.0470443l7.71218e-005 0c0.0361701,0.0150387 0.0765048,0.0292292 0.121313,0.0425712 0.0454247,0.0136506 0.0946284,0.0274554 0.147457,0.0412602 0.0522886,0.0137277 0.110593,0.0281495 0.174604,0.0431882l0 7.71218e-005c0.0849882,0.0193576 0.165195,0.0391779 0.240697,0.0589211 0.0771989,0.0202059 0.149539,0.0407203 0.216866,0.0612347l7.71218e-005 0c0.0667104,0.0206686 0.128176,0.043034 0.184398,0.0669417 0.0562989,0.0238306 0.107585,0.0494351 0.154012,0.0766591l0.000231365 7.71218e-005c0.093086,0.0560675 0.163807,0.125092 0.212085,0.206995l0.000154244 7.71218e-005c0.0241391,0.0415686 0.0424941,0.0880731 0.0547565,0.139051 0.012031,0.050669 0.0181236,0.10612 0.0181236,0.166506l-7.71218e-005 7.71218e-005c-0.000385609,0.0839856 -0.0118768,0.162341 -0.0343192,0.235144 -0.0225196,0.0729572 -0.0561447,0.140439 -0.100721,0.202213l0 0c-0.0440365,0.0616203 -0.0973277,0.116223 -0.159565,0.163807 -0.0622373,0.0475841 -0.133421,0.0882273 -0.213473,0.121698 -0.0794354,0.0332395 -0.166352,0.0583812 -0.26044,0.0752709l-7.71218e-005 -0.000694096zm1.66706 -2.58474l0 -1.04878 0 -0.0219026 0.0219797 0 0.229823 0 0.0219026 0 0 0.0219026 0 1.04878 0.490263 0 0.0219026 0 0 0.0219797 0 0.230748 0 0.0218255 -0.0219026 0 -0.490263 0 0 2.26198 0 0.0218255 -0.0219026 0 -0.229823 0 -0.0219797 0 0 -0.0218255 0 -2.26198 -0.49034 0 -0.0218255 0 0 -0.0218255 0 -0.230748 0 -0.0219797 0.0218255 0 0.49034 0zm5.73061 -0.218872c0.0103343,-0.00107971 0.0219797,-0.00239078 0.0336251,-0.00385609l0.0245247 -0.00308487 0 0.0247561 0 0.246481 0 0.0210542 -0.0210542 0.000694096c-0.0811321,0.00300775 -0.158948,0.0131107 -0.233216,0.0303089 -0.0740369,0.0171982 -0.144526,0.0414144 -0.211082,0.0724945l-7.71218e-005 7.71218e-005c-0.0671731,0.0311572 -0.12941,0.0689469 -0.186866,0.112829 -0.0574557,0.0438823 -0.110438,0.0942428 -0.158717,0.150696l7.71218e-005 0c-0.0479698,0.0566074 -0.0901554,0.118459 -0.12648,0.185864 -0.0358616,0.0665561 -0.0660163,0.138511 -0.0903867,0.215787l0 1.70115 0 0.0218255 -0.0219026 0 -0.262214 0 -0.0218255 0 0 -0.0218255 0 -2.72695 0 -0.0219026 0.0218255 0 0.246558 0 0.0219026 0 0 0.0219026 0 0.587822c0.0209,-0.0364786 0.0429568,-0.0716461 0.0662476,-0.105194 0.0394864,-0.0570701 0.0824432,-0.110207 0.128485,-0.159334l7.71218e-005 -0.000154244c0.0465816,-0.0488952 0.095631,-0.093086 0.146917,-0.132572 0.0510546,-0.039255 0.104731,-0.0737284 0.16103,-0.103189 0.0559133,-0.0300004 0.112983,-0.0539081 0.170902,-0.0719546 0.0580727,-0.0181236 0.117379,-0.0304631 0.177766,-0.0371727l0.00154244 -7.71218e-005 0.00084834 0c0.0181236,0 0.0344734,-0.000231365 0.0482782,-0.000694096 0.015193,-0.000539853 0.0296919,-0.00138819 0.0431882,-0.00262214l0.000694096 -7.71218e-005c0.014576,-0.000925462 0.0277638,-0.00200517 0.0393321,-0.00308487z"/>
 </g>
</svg>
