<svg width="39" height="41" viewBox="0 0 39 41" fill="none" xmlns="http://www.w3.org/2000/svg">
<g clip-path="url(#clip0_150_1272)">
<path d="M11.6689 23.2671L9.37553 18.8375L14.1552 19.2125C14.2962 19.2281 14.4372 19.15 14.5189 19.025C14.5486 18.9781 16.1888 16.3062 16.1591 16.3453C16.2408 16.2203 16.2408 16.0562 16.174 15.9234L13.8806 11.4937L18.6603 11.8687C18.8013 11.8765 18.9423 11.814 19.024 11.6812C19.0611 11.6187 20.6939 8.96245 20.6642 9.00151C20.7458 8.87651 20.7458 8.71245 20.679 8.57964L16.5599 0.603076C16.4931 0.470264 16.3669 0.392139 16.2259 0.384326C16.0849 0.376514 15.9513 0.454639 15.8771 0.571826C15.8103 0.767139 13.9177 2.97026 15.3353 5.70464L16.5822 8.1187C16.5822 8.1187 11.7431 7.72808 11.7134 7.72808C11.5724 7.72026 11.4388 7.79839 11.3646 7.91558L11.3572 7.92339L9.74662 10.5406C9.67241 10.6656 9.66498 10.8218 9.72436 10.9546C9.73178 10.9703 12.0622 15.4625 12.0622 15.4625C12.0622 15.4625 7.22319 15.0718 7.1935 15.0718C7.05248 15.064 6.91889 15.1421 6.84467 15.2593C6.82241 15.2984 5.13022 18.0484 5.23412 17.8843C5.1599 18.0093 5.15248 18.1656 5.21186 18.2984C5.21928 18.314 7.54975 22.8062 7.54975 22.8062L2.69584 22.4234C2.55483 22.4156 2.41381 22.4859 2.33217 22.6109C2.30248 22.6578 0.684514 25.2984 0.70678 25.2515C0.625139 25.3765 0.625139 25.5406 0.691936 25.6734L4.81108 33.65C4.87787 33.7828 5.00405 33.8609 5.14506 33.8687H5.1599C5.2935 33.8687 5.41967 33.7984 5.49389 33.6812C5.54584 33.5406 7.43842 31.2515 6.03569 28.5484L4.80365 26.1734L9.62045 26.5562C9.76147 26.564 9.90248 26.5015 9.98412 26.3687C10.0064 26.3296 11.654 23.65 11.6244 23.689C11.7283 23.564 11.7357 23.4078 11.6689 23.2671ZM16.033 5.31401C15.0087 3.32964 16.174 1.66558 16.1814 1.6187L19.8701 8.75933L18.7494 10.5796L16.033 5.31401ZM17.0349 8.9937L18.0665 10.9859L13.4353 10.6187L12.4037 8.62651L17.0349 8.9937ZM10.5556 10.7906C10.7263 10.5093 11.6986 8.92339 11.6763 8.97026L15.365 16.1109C15.3056 16.2125 14.1775 18.0484 14.2443 17.9312L10.5556 10.7906ZM12.5298 16.3375L13.5615 18.3296L8.93022 17.9625L7.89858 15.9703L12.5298 16.3375ZM5.3603 28.9546C6.38451 30.939 5.21928 32.6031 5.21186 32.65L1.52319 25.5093C1.61225 25.3687 2.71069 23.5796 2.64389 23.689L5.3603 28.9546ZM4.38061 25.3062L3.34897 23.314L8.01733 23.6812L9.04897 25.6734L4.38061 25.3062ZM9.7392 25.275L6.05053 18.1343C6.08764 18.0718 7.1935 16.2671 7.17123 16.314L10.8599 23.4546L9.7392 25.275Z" fill="white"/>
<path d="M38.655 39.8927C38.5734 39.6973 38.4843 36.7677 35.6937 35.838L33.2742 35.0333L36.948 31.8302C37.0593 31.7364 37.1113 31.5802 37.0816 31.4317C36.6511 29.1036 36.7847 29.8536 36.5101 28.338C36.4804 28.1895 36.3765 28.0645 36.2429 28.0177L31.7304 26.5177L35.3746 23.338C35.4859 23.2442 35.5378 23.088 35.5082 22.9395C35.5007 22.9005 34.8996 19.6427 34.9367 19.8458C34.907 19.6974 34.8031 19.5724 34.6695 19.5255L30.157 18.0255L33.8011 14.8458C33.9124 14.752 33.9644 14.5958 33.9347 14.4474L33.3632 11.3536C33.3335 11.2052 33.2296 11.0802 33.096 11.0333L24.9542 8.33017C24.8206 8.28329 24.6722 8.32235 24.5683 8.4161C24.4644 8.51767 24.4199 8.6661 24.4421 8.80673L24.5757 9.52548C24.8652 11.0958 25.9488 12.377 27.4035 12.8614L29.8601 13.6739C29.8601 13.6739 26.164 16.8849 26.1417 16.9083C26.0378 17.0099 25.9933 17.1583 26.0156 17.2989L26.5796 20.3302V20.338C26.6093 20.4786 26.7058 20.6036 26.832 20.6505C26.8468 20.6583 26.8691 20.6583 26.8839 20.6583L31.4261 22.1661L27.7745 25.3536C27.7078 25.3927 27.5445 25.5255 27.589 25.7989L28.1531 28.8302C28.1828 28.9786 28.2792 29.1114 28.4648 29.1505L33.0144 30.6583L29.3109 33.8927C29.1996 33.9864 29.1476 34.1427 29.1773 34.2911L29.7413 37.3224L29.7488 37.3458C29.7785 37.4942 29.8824 37.6192 30.016 37.6661L38.1578 40.3692C38.4324 40.463 38.7144 40.2052 38.655 39.8927ZM27.641 12.0645C26.4609 11.6739 25.5851 10.6427 25.3476 9.36141L25.3402 9.33016L32.621 11.752L33.007 13.8458L27.641 12.0645ZM30.7581 13.9708L32.7843 14.6427L29.2515 17.7208L27.2253 17.0489L30.7581 13.9708ZM27.3144 19.9239C27.307 19.8692 26.9136 17.7677 26.9285 17.8302L34.2093 20.252C34.2242 20.3302 34.6101 22.4239 34.5953 22.3458L27.3144 19.9239ZM32.3316 22.463L34.3578 23.1349L30.8249 26.213L28.7988 25.5411L32.3316 22.463ZM28.8878 28.4161L28.5019 26.3224L35.7828 28.7442C35.7976 28.8302 36.1984 30.9786 36.1687 30.838L28.8878 28.4161ZM33.9124 30.9552L35.9386 31.627L32.3761 34.7286L30.3499 34.0567L33.9124 30.9552ZM30.4687 36.9395L30.157 35.2442L30.0828 34.8458L35.4562 36.6349C36.6289 37.0255 37.5121 38.0567 37.7496 39.338L37.757 39.3692L30.4687 36.9395Z" fill="white"/>
<path d="M27.4035 5.77525C27.1586 6.09556 27.1438 6.52525 27.359 6.869C27.5743 7.21275 27.9602 7.36119 28.3313 7.25181L29.8973 6.79869C29.9344 6.79087 29.9789 6.8065 30.0012 6.83775L30.8993 8.25962C31.1145 8.60337 31.493 8.75181 31.8715 8.64244C32.25 8.53306 32.5024 8.19712 32.5172 7.78306L32.584 6.07994C32.584 6.03306 32.6137 6.00181 32.6508 5.98619L34.2168 5.53306C34.5954 5.42369 34.8477 5.08775 34.8625 4.67369C34.8774 4.25962 34.6547 3.90806 34.2836 3.75963L32.7621 3.16588C32.725 3.15025 32.7028 3.11119 32.7028 3.07212L32.7696 1.369C32.7844 0.954938 32.5618 0.603375 32.1907 0.454938C31.827 0.314313 31.4336 0.423688 31.1887 0.751813L30.1793 2.08775C30.1571 2.119 30.1125 2.13463 30.0754 2.119L28.5688 1.51744C28.2051 1.37681 27.8118 1.48619 27.5668 1.8065C27.3219 2.12681 27.3071 2.5565 27.5223 2.90025L28.4203 4.32212C28.4426 4.36119 28.4426 4.40806 28.4129 4.43931L27.4035 5.77525ZM29.0735 3.86119L28.1754 2.43931C28.168 2.42369 28.1383 2.37681 28.1828 2.32213C28.2274 2.26744 28.2719 2.28306 28.2868 2.29088L29.8082 2.88463C30.1645 3.02525 30.5727 2.90806 30.8102 2.58775L31.8196 1.25181C31.827 1.23619 31.8641 1.19713 31.9235 1.22056C31.9903 1.244 31.9829 1.29869 31.9829 1.31431L31.9161 3.01744C31.9012 3.42369 32.1313 3.79087 32.4875 3.9315L34.009 4.52525C34.0239 4.53306 34.0758 4.54869 34.0684 4.619C34.0684 4.68931 34.0164 4.70494 34.0016 4.71275L32.4356 5.16587C32.0645 5.27525 31.8047 5.619 31.7899 6.02525L31.7231 7.75181C31.7231 7.76744 31.7231 7.82212 31.6563 7.84556C31.5895 7.869 31.5598 7.82212 31.5524 7.8065L30.6543 6.38462C30.4391 6.04087 30.0457 5.89244 29.6746 6.00181L28.1086 6.45494C28.0938 6.46275 28.0418 6.47056 28.0047 6.41587C27.9825 6.37681 27.9825 6.33775 28.0121 6.29869L29.0215 4.96275C29.2664 4.64244 29.2887 4.20494 29.0735 3.86119Z" fill="white"/>
<path d="M18.2231 34.8303C18.1563 34.76 18.1415 34.6506 18.1786 34.5568L19.1137 32.6428C19.3141 32.2209 19.2473 31.7365 18.9282 31.4006C18.6165 31.0646 18.1489 30.9865 17.7555 31.2053L15.9297 32.174C15.8481 32.2209 15.7442 32.1975 15.6774 32.1271L14.2375 30.6037C13.9258 30.2678 13.4583 30.1896 13.0649 30.4006C12.6641 30.6115 12.4489 31.049 12.5231 31.5178L12.8348 33.6428C12.8497 33.7443 12.8051 33.8381 12.7161 33.885L10.8903 34.8615C10.4895 35.0725 10.2743 35.51 10.3485 35.9787C10.4153 36.4396 10.7418 36.7912 11.1872 36.8693L13.1985 37.2131C13.295 37.2287 13.3692 37.3068 13.384 37.4084L13.6958 39.5334C13.7625 40.0021 14.0965 40.3459 14.5344 40.424C14.9723 40.5021 15.3879 40.2834 15.5958 39.8615L16.5309 37.9475C16.5754 37.8537 16.6645 37.8068 16.761 37.8225L18.7723 38.1662C19.2102 38.2443 19.6333 38.0178 19.8336 37.6037C20.0415 37.1818 19.9672 36.6975 19.6481 36.3615L18.2231 34.8303ZM19.136 37.2131C19.1137 37.26 19.0469 37.3615 18.9059 37.3381L16.8946 36.9943C16.4567 36.9162 16.0336 37.1428 15.8333 37.5568L14.8907 39.4709C14.8239 39.6037 14.7051 39.6037 14.6606 39.5959C14.6161 39.5881 14.4973 39.549 14.475 39.4006L14.1633 37.2756C14.0965 36.8225 13.7625 36.4631 13.3247 36.385L11.3133 36.0412C11.1723 36.0178 11.1352 35.9006 11.1278 35.8459C11.1204 35.799 11.1204 35.674 11.2465 35.6037L13.0723 34.635C13.4657 34.424 13.6809 33.9787 13.6141 33.5178L13.3024 31.3928C13.2801 31.2443 13.3766 31.174 13.4211 31.1506C13.5102 31.1037 13.5993 31.1115 13.6809 31.1896L15.1208 32.7131C15.4325 33.0412 15.9 33.1193 16.2934 32.9162L18.1192 31.9475C18.2454 31.8771 18.3418 31.9553 18.379 31.9865C18.4161 32.0256 18.4829 32.1193 18.4161 32.26L17.4809 34.174C17.2805 34.5881 17.3547 35.0881 17.6665 35.4084L19.1063 36.9318C19.2028 37.049 19.1583 37.1662 19.136 37.2131Z" fill="white"/>
<path d="M18.0156 21.0646C16.7242 21.0646 15.6777 22.1661 15.6777 23.5255C15.6777 24.8849 16.7242 25.9864 18.0156 25.9864C19.307 25.9864 20.3535 24.8849 20.3535 23.5255C20.3535 22.1661 19.2996 21.0646 18.0156 21.0646ZM18.0156 25.1583C17.1621 25.1583 16.4645 24.4239 16.4645 23.5255C16.4645 22.6271 17.1621 21.8927 18.0156 21.8927C18.8691 21.8927 19.5668 22.6271 19.5668 23.5255C19.5594 24.4239 18.8691 25.1583 18.0156 25.1583Z" fill="white"/>
<path d="M3.98008 8.42395C5.29375 8.42395 6.3625 7.29895 6.3625 5.91614C6.3625 4.53333 5.29375 3.40051 3.98008 3.40051C2.66641 3.40051 1.59766 4.52551 1.59766 5.90833C1.59766 7.29114 2.66641 8.42395 3.98008 8.42395ZM3.98008 4.23645C4.85586 4.23645 5.57578 4.98645 5.57578 5.91614C5.57578 6.83801 4.86328 7.59583 3.98008 7.59583C3.09688 7.59583 2.38438 6.84583 2.38438 5.91614C2.38438 4.98645 3.09688 4.23645 3.98008 4.23645Z" fill="white"/>
<path d="M2.51758 36.4788C1.49336 36.4788 0.662109 37.3538 0.662109 38.4319C0.662109 39.51 1.49336 40.385 2.51758 40.385C3.5418 40.385 4.37305 39.51 4.37305 38.4319C4.37305 37.3538 3.5418 36.4788 2.51758 36.4788ZM2.51758 39.5569C1.93125 39.5569 1.45625 39.0569 1.45625 38.4397C1.45625 37.8225 1.93125 37.3225 2.51758 37.3225C3.10391 37.3225 3.57891 37.8225 3.57891 38.4397C3.58633 39.0491 3.10391 39.5569 2.51758 39.5569Z" fill="white"/>
<path d="M22.0816 13.5491C21.1539 13.5491 20.4043 14.3381 20.4043 15.3147C20.4043 16.2913 21.1539 17.0803 22.0816 17.0803C23.0094 17.0803 23.759 16.2913 23.759 15.3147C23.759 14.3381 23.0094 13.5491 22.0816 13.5491ZM22.0816 16.2444C21.5918 16.2444 21.1984 15.8303 21.1984 15.3147C21.1984 14.7991 21.5918 14.385 22.0816 14.385C22.5715 14.385 22.9648 14.7991 22.9648 15.3147C22.9723 15.8303 22.5715 16.2444 22.0816 16.2444Z" fill="white"/>
<path d="M25.1246 29.7444C24.1969 29.7444 23.4473 30.5334 23.4473 31.51C23.4473 32.4866 24.1969 33.2756 25.1246 33.2756C26.0523 33.2756 26.802 32.4866 26.802 31.51C26.802 30.5334 26.0523 29.7444 25.1246 29.7444ZM25.1246 32.4397C24.6348 32.4397 24.2414 32.0256 24.2414 31.51C24.2414 30.9944 24.6348 30.5803 25.1246 30.5803C25.6145 30.5803 26.0078 30.9944 26.0078 31.51C26.0078 32.0256 25.6145 32.4397 25.1246 32.4397Z" fill="white"/>
</g>
<defs>
<clipPath id="clip0_150_1272">
<rect width="38" height="40" fill="white" transform="translate(0.662109 0.408325)"/>
</clipPath>
</defs>
</svg>
