<svg width="157" height="83" viewBox="0 0 157 83" fill="none" xmlns="http://www.w3.org/2000/svg">
<g clip-path="url(#clip0_91_1094)">
<path d="M0 47.4658H30.1849L34.3083 0H18.5533L0 47.4658Z" fill="#3EA3DC"/>
<path d="M70.3087 47.4658H40.1239L36.0005 0H51.7517L70.3087 47.4658Z" fill="#3EA3DC"/>
<path d="M91.3006 33.6845V0H72.1646V47.4658H113.153V33.6845H91.3006Z" fill="#3EA3DC"/>
<path d="M134.308 33.6845V0H115.172V47.4658H156.165V33.6845H134.308Z" fill="#3EA3DC"/>
<path d="M21.9606 78.394C20.537 80.3122 18.5368 81.7366 16.2457 82.4637C13.9546 83.1908 11.4897 83.1834 9.20313 82.4427C6.91651 81.702 4.92503 80.2657 3.51306 78.3391C2.10109 76.4124 1.34082 74.0938 1.34082 71.7144C1.34082 69.3349 2.10109 67.0163 3.51306 65.0897C4.92503 63.163 6.91651 61.7267 9.20313 60.986C11.4897 60.2453 13.9546 60.2379 16.2457 60.965C18.5368 61.6921 20.537 63.1165 21.9606 65.0347L18.034 67.5304C16.5494 66.2128 14.9387 65.3577 12.7749 65.3577C11.076 65.3577 9.44659 66.0251 8.24525 67.2131C7.04392 68.401 6.36901 70.0123 6.36901 71.6923C6.36901 73.3724 7.04392 74.9836 8.24525 76.1716C9.44659 77.3596 11.076 78.027 12.7749 78.027C14.9387 78.027 16.3045 77.337 18.034 75.8873L21.9606 78.394Z" fill="#3EA3DC"/>
<path d="M49.6474 79.4804H39.1626L37.7004 82.4165H31.8438L42.6068 61.0269H46.5335L56.8809 82.4165H51.1097L49.6474 79.4804ZM47.6172 75.3001L44.3883 68.4222L41.3264 75.3001H47.6172Z" fill="#3EA3DC"/>
<path d="M80.8269 82.4091L77.2677 77.0727H73.4857V82.4054H68.1821V61.0196H78.6817C83.1094 61.0196 86.4348 64.7705 86.4348 69.4609C86.4348 72.5548 84.8723 74.7606 82.575 75.9754L87.3367 82.4275L80.8269 82.4091ZM73.4857 72.3713H77.8652C79.6281 72.3713 81.0941 71.2189 81.0941 69.4352C81.0931 68.5974 80.7562 67.7942 80.1571 67.2018C79.558 66.6094 78.7458 66.2762 77.8986 66.2752H73.4857V72.3713Z" fill="#3EA3DC"/>
<path d="M121.293 78.394H121.259C120.101 79.943 118.561 81.1728 116.786 81.9662C115.01 82.7595 113.059 83.09 111.118 82.926C109.177 82.762 107.311 82.1091 105.697 81.0295C104.084 79.9499 102.777 78.4796 101.901 76.7587C101.025 75.0379 100.61 73.1239 100.694 71.1992C100.779 69.2746 101.361 67.4034 102.384 65.7641C103.407 64.1249 104.838 62.7721 106.54 61.8349C108.242 60.8977 110.159 60.4073 112.107 60.4104C115.87 60.4104 118.929 61.9591 121.014 64.7558L117.054 67.2551C116.401 66.622 115.625 66.1264 114.773 65.7984C113.921 65.4703 113.01 65.3167 112.096 65.3467C111.038 65.3488 109.997 65.6101 109.066 66.1071C108.135 66.6042 107.343 67.3215 106.76 68.1951C106.178 69.0688 105.824 70.0714 105.729 71.1135C105.634 72.1555 105.802 73.2046 106.217 74.167C106.632 75.1294 107.282 75.9751 108.108 76.6285C108.934 77.282 109.912 77.7229 110.952 77.9118C111.993 78.1007 113.065 78.0318 114.072 77.7112C115.079 77.3906 115.99 76.8283 116.724 76.0745V73.8357H110.177V69.7251H121.293V78.394Z" fill="#3EA3DC"/>
<path d="M156.993 71.7474C156.989 73.9764 156.317 76.1543 155.062 78.0057C153.807 79.8571 152.024 81.2989 149.94 82.1487C147.857 82.9985 145.565 83.2183 143.355 82.7801C141.144 82.3419 139.115 81.2656 137.524 79.6871C135.932 78.1087 134.85 76.099 134.413 73.9121C133.977 71.7253 134.205 69.4596 135.071 67.4014C135.936 65.3432 137.4 63.5851 139.275 62.3492C141.151 61.1133 143.356 60.4552 145.61 60.4581C147.108 60.4571 148.591 60.7487 149.975 61.3161C151.358 61.8835 152.615 62.7155 153.673 63.7645C154.73 64.8134 155.568 66.0586 156.138 67.4285C156.708 68.7984 156.998 70.2661 156.993 71.7474ZM152.001 71.7474C152.005 70.4931 151.632 69.266 150.929 68.2215C150.227 67.1771 149.227 66.3623 148.056 65.8805C146.885 65.3986 145.595 65.2714 144.351 65.515C143.107 65.7585 141.964 66.3618 141.067 67.2485C140.17 68.1351 139.559 69.2652 139.312 70.4955C139.065 71.7257 139.193 73.0008 139.679 74.1591C140.166 75.3175 140.989 76.3069 142.045 77.002C143.101 77.6971 144.341 78.0666 145.61 78.0637C147.302 78.056 148.922 77.3881 150.119 76.2054C151.316 75.0226 151.992 73.4205 152.001 71.7474Z" fill="#3EA3DC"/>
</g>
<defs>
<clipPath id="clip0_91_1094">
<rect width="157" height="83" fill="white"/>
</clipPath>
</defs>
</svg>
