<svg width="19" height="19" viewBox="0 0 19 19" fill="none" xmlns="http://www.w3.org/2000/svg">
<path d="M17.4166 14.0917L16.3083 12.9833L15.1999 14.0917L13.5374 12.4292C14.4083 11.3208 14.9624 9.81666 14.9624 8.3125C14.9624 4.59166 11.9541 1.58333 8.23325 1.58333C4.51242 1.58333 1.58325 4.59166 1.58325 8.3125C1.58325 12.0333 4.59159 15.0417 8.31242 15.0417C9.89575 15.0417 11.3208 14.4875 12.4291 13.6167L14.0916 15.2792L12.9833 16.3875L14.0916 17.4958L15.1999 16.3875L16.3083 17.4958L17.4166 16.3875L16.3083 15.2792L17.4166 14.0917ZM12.2708 11.4L11.9541 11.875L11.4791 12.2708C10.6083 12.9833 9.49992 13.3792 8.31242 13.3792C5.46242 13.3792 3.16659 11.0833 3.16659 8.3125C3.16659 5.4625 5.46242 3.16666 8.31242 3.16666C11.1624 3.16666 13.4583 5.4625 13.4583 8.3125C13.3791 9.42083 12.9833 10.5292 12.2708 11.4Z" fill="#606060"/>
</svg>
