<svg width="17" height="17" viewBox="0 0 17 17" fill="none" xmlns="http://www.w3.org/2000/svg">
<path d="M13.1071 0H3.27677C1.46707 0 0 1.46706 0 3.27677V13.1071C0 14.9168 1.46707 16.3839 3.27677 16.3839H13.1071C14.9168 16.3839 16.3839 14.9168 16.3839 13.1071V3.27684C16.384 1.46706 14.9169 0 13.1071 0ZM11.4687 2.45759H13.9263V4.91518H11.4687V2.45759ZM8.19195 4.91525C10.0017 4.91525 11.4687 6.38232 11.4687 8.19202C11.4687 10.0017 10.0017 11.4688 8.19195 11.4688C6.38225 11.4688 4.91519 10.0017 4.91519 8.19202C4.91519 6.38232 6.38225 4.91525 8.19195 4.91525ZM14.7456 13.1072C14.7456 14.0121 14.012 14.7456 13.1071 14.7456H3.27677C2.37192 14.7456 1.63835 14.0121 1.63835 13.1072V7.37278H3.35864C2.86669 10.0424 4.63197 12.6054 7.3016 13.0974C9.97124 13.5894 12.5342 11.8241 13.0262 9.15446C13.0848 8.83709 13.1119 8.51473 13.1071 8.19202C13.1031 7.91711 13.0757 7.64311 13.0252 7.37285H14.7455V13.1072H14.7456Z" fill="white"/>
</svg>
