<svg width="19" height="19" viewBox="0 0 19 19" fill="none" xmlns="http://www.w3.org/2000/svg">
<path d="M12.6666 1.58333V3.16666H14.7249L11.7958 6.09583C10.7666 5.225 9.42075 4.75 7.91659 4.75C4.43325 4.75 1.58325 7.6 1.58325 11.0833C1.58325 14.5667 4.43325 17.4167 7.91659 17.4167C11.3999 17.4167 14.2499 14.5667 14.2499 11.0833C14.2499 9.57916 13.7749 8.23333 12.9041 7.20416L15.8333 4.275V6.33333H17.4166V1.58333H12.6666ZM7.91659 15.8333C5.30409 15.8333 3.16659 13.6958 3.16659 11.0833C3.16659 8.47083 5.30409 6.33333 7.91659 6.33333C10.5291 6.33333 12.6666 8.47083 12.6666 11.0833C12.6666 13.6958 10.5291 15.8333 7.91659 15.8333Z" fill="#606060"/>
</svg>
