<svg width="15" height="15" viewBox="0 0 15 15" fill="none" xmlns="http://www.w3.org/2000/svg">
<g clip-path="url(#clip0_132_3666)">
<path d="M13.9944 3.73528C13.3237 2.58627 12.4139 1.67652 11.2649 1.00586C10.1156 0.335243 8.86107 0 7.50022 0C6.13952 0 4.88457 0.335243 3.73552 1.00586C2.58641 1.67642 1.67666 2.58617 1.00597 3.73528C0.335243 4.88447 0 6.13941 0 7.50002C0 8.86069 0.335345 10.1154 1.00586 11.2647C1.67652 12.4137 2.58627 13.3234 3.73539 13.9942C4.88457 14.6648 6.13941 15 7.50009 15C8.86076 15 10.1157 14.6648 11.2649 13.9942C12.4139 13.3237 13.3236 12.4137 13.9942 11.2647C14.6648 10.1155 15 8.86062 15 7.50002C15 6.13928 14.6648 4.8843 13.9944 3.73528ZM8.75031 12.1875C8.75031 12.2786 8.72083 12.3535 8.6623 12.412C8.60402 12.4705 8.52907 12.4998 8.43802 12.4998H6.5628C6.47168 12.4998 6.39677 12.4705 6.33818 12.412C6.27955 12.3535 6.25027 12.2786 6.25027 12.1875V10.3123C6.25027 10.2213 6.27952 10.1463 6.33818 10.0878C6.39677 10.0294 6.47168 10.0002 6.5628 10.0002H8.43802C8.52907 10.0002 8.60402 10.0294 8.6623 10.0878C8.72083 10.1464 8.75031 10.2213 8.75031 10.3123V12.1875ZM11.1282 6.41596C11.0467 6.65687 10.9556 6.85392 10.8547 7.00685C10.7539 7.15985 10.6089 7.31613 10.42 7.47556C10.2316 7.63506 10.0817 7.74906 9.97074 7.81754C9.86026 7.88578 9.70059 7.97875 9.49249 8.0958C9.27758 8.21938 9.10033 8.38059 8.96043 8.57925C8.82043 8.77778 8.75045 8.93885 8.75045 9.06243C8.75045 9.15376 8.72096 9.22863 8.6624 9.28719C8.60402 9.34572 8.52911 9.37496 8.43802 9.37496H6.5629C6.47178 9.37496 6.39687 9.34572 6.33828 9.28719C6.27962 9.22863 6.25044 9.15376 6.25044 9.06243V8.71084C6.25044 8.27466 6.42123 7.86594 6.76307 7.48521C7.10492 7.1043 7.4809 6.82273 7.89112 6.64041C8.20341 6.49723 8.42485 6.3507 8.55503 6.20098C8.68542 6.05127 8.75052 5.8525 8.75052 5.60523C8.75052 5.39032 8.62834 5.1983 8.38415 5.02891C8.13996 4.8597 7.86184 4.77508 7.54924 4.77508C7.21061 4.77508 6.93074 4.85324 6.70934 5.00955C6.49443 5.1657 6.21456 5.46523 5.86947 5.90788C5.81087 5.98607 5.72947 6.02524 5.62528 6.02524C5.54715 6.02524 5.48528 6.00574 5.43975 5.96678L4.15077 4.99016C4.00106 4.87294 3.97503 4.73629 4.07258 4.58001C4.90602 3.19327 6.11366 2.4999 7.69564 2.4999C8.26217 2.4999 8.81564 2.6334 9.35598 2.90037C9.89628 3.16721 10.3472 3.54486 10.7086 4.03321C11.0696 4.52138 11.2506 5.05207 11.2506 5.625C11.2501 5.91144 11.2093 6.17499 11.1282 6.41596Z" fill="#FF6F32"/>
</g>
<defs>
<clipPath id="clip0_132_3666">
<rect width="15" height="15" fill="white"/>
</clipPath>
</defs>
</svg>
