<svg width="19" height="16" viewBox="0 0 19 16" fill="none" xmlns="http://www.w3.org/2000/svg">
<path d="M18.3673 0.264591C17.6049 0.716295 16.7716 1.03556 15.9026 1.2089C15.1641 0.434365 14.1397 -0.00272985 13.0696 0.000110544C10.9614 -0.0157145 9.23396 1.66953 9.19777 3.77743C9.19866 4.07007 9.23347 4.36166 9.30164 4.64627C6.19685 4.4997 3.29713 3.05329 1.31251 0.661192C0.973039 1.23325 0.790604 1.88475 0.783705 2.54989C0.783787 3.83237 1.43456 5.02712 2.51188 5.72286C1.89665 5.70281 1.29481 5.53783 0.755383 5.24121C0.755383 5.24121 0.755383 5.24121 0.755383 5.28844C0.749215 7.13039 2.05369 8.71647 3.86229 9.06576C3.29218 9.21776 2.69521 9.24032 2.11528 9.1319C2.6367 10.6922 4.08717 11.7525 5.73208 11.7761C4.36269 12.841 2.67898 13.4221 0.94431 13.4287C0.628701 13.4284 0.313336 13.4095 0 13.372C1.77711 14.4962 3.83705 15.0923 5.93992 15.0907C11.9366 15.2003 16.8868 10.4277 16.9964 4.43096C16.9975 4.36742 16.9981 4.30388 16.9981 4.24025C16.9981 4.07656 16.9981 3.91288 16.9981 3.74919C17.7383 3.20675 18.3775 2.53877 18.8868 1.77552C18.1779 2.08593 17.4269 2.28955 16.6582 2.37987C17.4666 1.90666 18.0744 1.15445 18.3673 0.264591Z" fill="white"/>
</svg>
