<svg width="27" height="29" viewBox="0 0 27 29" fill="none" xmlns="http://www.w3.org/2000/svg">
<g clip-path="url(#clip0_144_150)" filter="url(#filter0_d_144_150)">
<path d="M21.8792 10.8515C21.7777 10.3904 21.5529 10.0037 21.2054 9.69135C20.8575 9.37895 20.4572 9.19531 20.004 9.1406C18.5665 8.98438 16.3986 8.90631 13.5 8.90631C10.6014 8.90631 8.4374 8.98442 7.00766 9.1406C6.54685 9.19531 6.14452 9.37895 5.80064 9.69135C5.45684 10.0039 5.23027 10.3906 5.12084 10.8515C4.91775 11.7579 4.81616 13.125 4.81616 14.9532C4.81616 16.8125 4.91775 18.1798 5.12084 19.0549C5.22255 19.5156 5.4472 19.9026 5.79485 20.2148C6.14251 20.5274 6.54291 20.707 6.99597 20.7539C8.43363 20.918 10.6017 21 13.5001 21C16.3983 21 18.5667 20.918 20.0039 20.7539C20.4571 20.707 20.8555 20.5274 21.1994 20.2148C21.5432 19.9026 21.7698 19.5156 21.8791 19.0549C22.0822 18.1484 22.1839 16.7813 22.1839 14.9532C22.1838 13.0938 22.0821 11.7265 21.8792 10.8515ZM9.77364 12.0353H8.51974V18.7031H7.34793V12.0353H6.11739V10.9338H9.77368V12.0353H9.77364ZM12.9376 18.7031H11.8947V18.0702C11.4728 18.5469 11.0742 18.7851 10.6992 18.7851C10.3399 18.7851 10.1133 18.6405 10.0197 18.3515C9.95724 18.164 9.92584 17.8787 9.92584 17.496V12.914H10.9688V17.1797C10.9688 17.4295 10.9727 17.5663 10.9806 17.5898C11.0041 17.7539 11.086 17.8359 11.2267 17.8359C11.4376 17.8359 11.6604 17.6718 11.8947 17.3437V12.914H12.9377V18.7031H12.9376ZM16.922 16.9687C16.922 17.539 16.887 17.9298 16.817 18.1409C16.6838 18.5703 16.4067 18.7851 15.9849 18.7851C15.6098 18.7851 15.2466 18.5703 14.8948 18.1409V18.7033H13.852V10.9338H14.8948V13.4767C15.231 13.0551 15.5941 12.8441 15.9849 12.8441C16.4067 12.8441 16.6838 13.0629 16.817 13.5003C16.8869 13.7034 16.922 14.0901 16.922 14.6604V16.9687ZM20.883 16.0079H18.7854V17.0274C18.7854 17.5665 18.965 17.8359 19.3244 17.8359C19.5821 17.8359 19.7385 17.6954 19.7931 17.4139C19.8086 17.3359 19.8166 17.0976 19.8166 16.6993H20.883V16.8515C20.883 17.2344 20.875 17.4609 20.8595 17.5314C20.8362 17.7421 20.7544 17.953 20.6134 18.164C20.3322 18.5781 19.91 18.7851 19.3476 18.7851C18.8087 18.7851 18.3868 18.5859 18.082 18.1876C17.8555 17.8985 17.7423 17.4454 17.7423 16.8282V14.8007C17.7423 14.1835 17.8516 13.7304 18.0702 13.4413C18.375 13.043 18.793 12.8438 19.3244 12.8438C19.8479 12.8438 20.2623 13.043 20.5666 13.4413C20.7778 13.7304 20.883 14.1835 20.883 14.8007V16.0079Z" fill="white"/>
<path d="M15.4218 13.7931C15.2421 13.7931 15.0665 13.8793 14.8945 14.051V17.5782C15.0664 17.75 15.2421 17.8359 15.4218 17.8359C15.7264 17.8359 15.8791 17.5744 15.8791 17.0507V14.5783C15.8791 14.0548 15.7267 13.7931 15.4218 13.7931Z" fill="white"/>
<path d="M19.3127 13.7931C18.9612 13.7931 18.7854 14.0589 18.7854 14.5898V15.1289H19.84V14.5898C19.84 14.0586 19.6641 13.7931 19.3127 13.7931Z" fill="white"/>
<path d="M9.09433 4.67578V7.85168H10.2661V4.67578L11.6839 0H10.4886L9.69191 3.08207L8.85979 0H7.61768C7.83645 0.656318 8.09036 1.38672 8.37944 2.19146C8.74667 3.26952 8.98482 4.09778 9.09433 4.67578Z" fill="white"/>
<path d="M13.2541 7.93375C13.7932 7.93375 14.2072 7.73452 14.4963 7.33609C14.7151 7.04701 14.8244 6.58602 14.8244 5.95331V3.90242C14.8244 3.27751 14.7148 2.82034 14.4963 2.53126C14.2072 2.13283 13.7932 1.93359 13.2541 1.93359C12.7306 1.93359 12.3204 2.13283 12.0236 2.53126C11.8049 2.82034 11.6956 3.27751 11.6956 3.90242V5.95327C11.6956 6.57818 11.8048 7.03921 12.0236 7.33605C12.3205 7.73452 12.7305 7.93375 13.2541 7.93375ZM12.7501 3.69145C12.7501 3.15236 12.9181 2.88281 13.2541 2.88281C13.5901 2.88281 13.758 3.15236 13.758 3.69145V6.15234C13.758 6.69939 13.5901 6.97263 13.2541 6.97263C12.9181 6.97263 12.7501 6.69923 12.7501 6.15234V3.69145Z" fill="white"/>
<path d="M16.4766 7.93371C16.8675 7.93371 17.2699 7.6915 17.6839 7.207V7.85154H18.7503V2.00391H17.6839V6.46871C17.4494 6.80471 17.2269 6.97255 17.0157 6.97255C16.875 6.97255 16.7929 6.88664 16.7696 6.71478C16.7618 6.69914 16.7578 6.5623 16.7578 6.30457V2.00391H15.6914V6.6212C15.6914 7.01955 15.7229 7.31241 15.7852 7.50003C15.8869 7.78911 16.1173 7.93371 16.4766 7.93371Z" fill="white"/>
</g>
<defs>
<filter id="filter0_d_144_150" x="-1" y="0" width="29" height="29" filterUnits="userSpaceOnUse" color-interpolation-filters="sRGB">
<feFlood flood-opacity="0" result="BackgroundImageFix"/>
<feColorMatrix in="SourceAlpha" type="matrix" values="0 0 0 0 0 0 0 0 0 0 0 0 0 0 0 0 0 0 127 0" result="hardAlpha"/>
<feOffset dy="4"/>
<feGaussianBlur stdDeviation="2"/>
<feComposite in2="hardAlpha" operator="out"/>
<feColorMatrix type="matrix" values="0 0 0 0 0 0 0 0 0 0 0 0 0 0 0 0 0 0 0.25 0"/>
<feBlend mode="normal" in2="BackgroundImageFix" result="effect1_dropShadow_144_150"/>
<feBlend mode="normal" in="SourceGraphic" in2="effect1_dropShadow_144_150" result="shape"/>
</filter>
<clipPath id="clip0_144_150">
<rect width="21" height="21" fill="white" transform="translate(3)"/>
</clipPath>
</defs>
</svg>
