<svg width="21" height="25" viewBox="0 0 21 25" fill="none" xmlns="http://www.w3.org/2000/svg">
<path d="M10.6021 12.9878C9.22705 12.9878 8.10205 11.9078 8.10205 10.5878C8.10205 9.26779 9.22705 8.18779 10.6021 8.18779C11.9771 8.18779 13.1021 9.26779 13.1021 10.5878C13.1021 11.9078 11.9771 12.9878 10.6021 12.9878ZM18.1021 10.8278C18.1021 6.47179 14.7896 3.38779 10.6021 3.38779C6.41455 3.38779 3.10205 6.47179 3.10205 10.8278C3.10205 13.6358 5.53955 17.3558 10.6021 21.7958C15.6646 17.3558 18.1021 13.6358 18.1021 10.8278ZM10.6021 0.987793C15.8521 0.987793 20.6021 4.85179 20.6021 10.8278C20.6021 14.8118 17.2646 19.5278 10.6021 24.9878C3.93955 19.5278 0.602051 14.8118 0.602051 10.8278C0.602051 4.85179 5.35205 0.987793 10.6021 0.987793Z" fill="#00488E"/>
</svg>
