<svg width="13" height="14" viewBox="0 0 13 14" fill="none" xmlns="http://www.w3.org/2000/svg">
<path d="M12.7601 10.5771V12.3657C12.7601 12.8589 12.359 13.26 11.8658 13.26H1.13451C0.641316 13.26 0.240234 12.8589 0.240234 12.3657V10.5771C0.240234 10.3303 0.440552 10.13 0.687371 10.13C0.934191 10.13 1.13451 10.3303 1.13451 10.5771V12.3657H11.8658V10.5771C11.8658 10.3303 12.0661 10.13 12.3129 10.13C12.5598 10.13 12.7601 10.3303 12.7601 10.5771Z" fill="#00488E"/>
<path d="M3.05397 7.31616C2.87914 7.14132 2.87914 6.85873 3.05397 6.6839C3.22881 6.50907 3.5114 6.50907 3.68623 6.6839L6.05292 9.0506V1.18725C6.05292 0.94043 6.25324 0.740112 6.50006 0.740112C6.74688 0.740112 6.9472 0.94043 6.9472 1.18725V9.0506L9.31389 6.6839C9.48872 6.50907 9.77131 6.50907 9.94614 6.6839C10.121 6.85873 10.121 7.14132 9.94614 7.31616L6.81618 10.4461C6.63912 10.6236 6.35519 10.6178 6.18349 10.4461L3.05397 7.31616Z" fill="#00488E"/>
</svg>
