<svg width="14" height="16" viewBox="0 0 14 16" fill="none" xmlns="http://www.w3.org/2000/svg">
<path fill-rule="evenodd" clip-rule="evenodd" d="M4.34624 8.41316L0.95659 4.49236C0.415086 3.86568 0.483445 2.91843 1.1104 2.37662C1.73686 1.83482 2.68413 1.90363 3.22612 2.53032L6.20415 5.97492L11.7305 0.836214C12.6094 -0.11299 13.5289 0.412637 12.6465 1.3659L7.88091 7.08241L7.5728 7.55774L11.7281 12.3646C12.2701 12.9913 12.2012 13.9385 11.5748 14.4803C10.9478 15.0221 10.0005 14.9533 9.45903 14.3266L5.87261 10.1782L2.86382 14.8154C2.42192 15.4961 1.50249 15.6719 0.840867 15.2021C0.171433 14.7271 0.0400857 13.7869 0.553269 13.1466L4.34624 8.41316Z" fill="#E30000"/>
</svg>
