<svg width="26" height="26" viewBox="0 0 26 26" fill="none" xmlns="http://www.w3.org/2000/svg">
<path d="M13.1021 24.8378C6.84499 24.8378 1.75205 19.7449 1.75205 13.4878C1.75205 7.23073 6.84499 2.13779 13.1021 2.13779C19.3591 2.13779 24.4521 7.23073 24.4521 13.4878C24.4521 19.7449 19.3591 24.8378 13.1021 24.8378Z" stroke="#00488E" stroke-width="2.3"/>
<path d="M14.2691 16.0947L15.1302 15.2333C15.2462 15.1187 15.393 15.0403 15.5526 15.0075C15.7123 14.9747 15.8781 14.989 16.0298 15.0487L17.0792 15.4679C17.2325 15.5301 17.364 15.6364 17.457 15.7733C17.5501 15.9101 17.6005 16.0715 17.6021 16.237V18.1599C17.6012 18.2725 17.5775 18.3837 17.5325 18.4869C17.4875 18.5901 17.4221 18.6832 17.3402 18.7604C17.2583 18.8377 17.1616 18.8975 17.056 18.9364C16.9504 18.9753 16.838 18.9924 16.7256 18.9867C9.37165 18.5291 7.8878 12.299 7.60717 9.91463C7.59414 9.79754 7.60605 9.67902 7.64209 9.56686C7.67814 9.45471 7.73752 9.35146 7.81632 9.26391C7.89512 9.17636 7.99156 9.10649 8.09929 9.0589C8.20702 9.01131 8.3236 8.98709 8.44136 8.98781H10.2981C10.4638 8.9883 10.6255 9.03837 10.7626 9.13157C10.8996 9.22478 11.0056 9.35686 11.0669 9.51083L11.486 10.5607C11.5476 10.7119 11.5633 10.8778 11.5311 11.0379C11.499 11.1979 11.4204 11.345 11.3053 11.4606L10.4442 12.3221C10.4442 12.3221 10.9401 15.6794 14.2691 16.0947Z" fill="#00488E"/>
</svg>
