<svg width="14" height="14" viewBox="0 0 14 14" fill="none" xmlns="http://www.w3.org/2000/svg">
<path d="M12.3594 1.09375H11.7031V0H10.6094V1.09375H3.39062V0H2.29688V1.09375H1.64062C0.735984 1.09375 0 1.82973 0 2.73438V12.3594C0 13.264 0.735984 14 1.64062 14H9.42009L14 9.24394V2.73438C14 1.82973 13.264 1.09375 12.3594 1.09375ZM9.73438 12.0968V10.1172C9.73438 9.81564 9.9797 9.57031 10.2812 9.57031H12.1673L9.73438 12.0968ZM12.9062 8.47656H10.2812C9.37661 8.47656 8.64062 9.21255 8.64062 10.1172V12.9062H1.64062C1.33908 12.9062 1.09375 12.6609 1.09375 12.3594V5.14062H12.9062V8.47656ZM12.9062 4.04688H1.09375V2.73438C1.09375 2.43283 1.33908 2.1875 1.64062 2.1875H2.29688V3.28125H3.39062V2.1875H10.6094V3.28125H11.7031V2.1875H12.3594C12.6609 2.1875 12.9062 2.43283 12.9062 2.73438V4.04688Z" fill="white"/>
</svg>
