<svg width="12" height="12" viewBox="0 0 12 12" fill="none" xmlns="http://www.w3.org/2000/svg">
<g clip-path="url(#clip0_30_801)">
<path d="M0.586047 11.9999C0.470144 11.9999 0.356838 11.9656 0.26046 11.9012C0.164083 11.8368 0.0889655 11.7453 0.0446082 11.6382C0.000250996 11.5311 -0.0113527 11.4133 0.0112649 11.2996C0.0338824 11.1859 0.0897052 11.0815 0.171672 10.9996L10.9998 0.171457C11.1097 0.0615576 11.2588 -0.000183105 11.4142 -0.000183105C11.5696 -0.000183105 11.7187 0.0615576 11.8286 0.171457C11.9385 0.281356 12.0002 0.430411 12.0002 0.585832C12.0002 0.741252 11.9385 0.890308 11.8286 1.00021L1.00042 11.8283C0.946056 11.8828 0.881462 11.926 0.810351 11.9555C0.73924 11.9849 0.663012 12 0.586047 11.9999Z" fill="white"/>
<path d="M11.4141 11.9999C11.3372 12 11.2609 11.9849 11.1898 11.9554C11.1187 11.926 11.0541 11.8828 10.9998 11.8283L0.17164 1.00018C0.0617407 0.890277 0 0.741222 0 0.585801C0 0.43038 0.0617407 0.281325 0.17164 0.171426C0.281539 0.061527 0.430594 -0.000213623 0.586015 -0.000213623C0.741435 -0.000213623 0.890491 0.061527 1.00039 0.171426L11.8285 10.9996C11.9105 11.0815 11.9663 11.1859 11.9889 11.2996C12.0115 11.4133 11.9999 11.5311 11.9556 11.6382C11.9112 11.7452 11.8361 11.8368 11.7397 11.9011C11.6433 11.9655 11.53 11.9999 11.4141 11.9999Z" fill="white"/>
</g>
<defs>
<clipPath id="clip0_30_801">
<rect width="12" height="12" fill="white"/>
</clipPath>
</defs>
</svg>
