<svg width="25" height="25" viewBox="0 0 25 25" fill="none" xmlns="http://www.w3.org/2000/svg">
<g clip-path="url(#clip0_77_1001)">
<path d="M24.79 18.3124C23.9003 16.7057 20.0036 15.6823 16.5628 15.4883C16.2518 15.1554 15.9362 14.8052 15.6126 14.437C12.6555 11.056 11.4581 6.14268 11.0109 3.53982C10.9577 2.98828 10.8992 2.52977 10.8501 2.18821C10.8102 1.91643 10.7265 1.34961 10.137 1.34961C9.94832 1.34961 9.76625 1.43068 9.63667 1.57488C9.42669 1.81476 9.45792 2.07259 9.49513 2.37029C9.53699 2.71184 9.60012 3.16902 9.68983 3.69066C9.94168 6.3334 10.0606 11.365 8.02658 15.362C7.8146 15.7787 7.60329 16.1787 7.3933 16.5601C3.58702 17.6672 0.515678 19.6414 0.0658084 21.2788C-0.0969953 21.8715 0.0445442 22.4397 0.465176 22.8796C0.954916 23.3912 1.53303 23.6504 2.18358 23.6504C3.98439 23.6504 6.03705 21.6449 8.2844 17.6918C9.28515 17.4286 10.2786 17.2452 11.2388 17.1482C11.6129 17.1103 12.2183 17.0313 12.5904 16.9741C13.6157 16.816 14.776 16.7522 15.9681 16.7914C18.7271 19.6594 20.9831 21.1133 22.6736 21.1133C23.5813 21.1126 24.3329 20.6701 24.7887 19.8674C25.0691 19.3703 25.0705 18.8174 24.79 18.3124ZM2.18292 22.3214C1.90117 22.3214 1.66062 22.2071 1.42472 21.9606C1.32837 21.8602 1.3071 21.7738 1.34697 21.6316C1.57889 20.7884 3.52721 19.3431 6.37462 18.2938C4.76585 20.8322 3.22619 22.3214 2.18292 22.3214ZM12.3864 15.6624C12.0329 15.7169 11.4587 15.7913 11.1039 15.8285C10.4587 15.8923 9.79549 15.994 9.12633 16.1309C9.15424 16.0764 9.18215 16.0212 9.21006 15.9661C10.2075 14.0064 10.8255 11.6567 11.0541 8.96351C11.9691 11.5245 13.1625 13.6549 14.6118 15.3122C14.6543 15.3614 14.6989 15.4112 14.7414 15.4617C13.9048 15.4816 13.1154 15.5501 12.3864 15.6624ZM23.6298 19.2148C23.4092 19.6055 23.0955 19.787 22.6457 19.787H22.645C21.5885 19.787 19.9637 18.7869 18.0187 16.9528C21.0289 17.3309 23.2331 18.242 23.6285 18.9563C23.6856 19.06 23.6856 19.1151 23.6298 19.2148Z" fill="#CC4B4C"/>
</g>
<defs>
<clipPath id="clip0_77_1001">
<rect width="25" height="25" fill="white"/>
</clipPath>
</defs>
</svg>
