<svg width="16" height="16" viewBox="0 0 16 16" fill="none" xmlns="http://www.w3.org/2000/svg">
<path d="M8.00004 0.703125C4.97151 0.703125 2.50732 3.14797 2.50732 6.15325C2.50732 10.6308 7.4532 15.0028 7.66398 15.1868C7.76008 15.2705 7.87992 15.3125 8.00001 15.3125C8.12011 15.3125 8.23998 15.2705 8.33604 15.1868C8.54658 15.0028 13.4927 10.6308 13.4927 6.15325C13.4928 3.14797 11.0286 0.703125 8.00004 0.703125ZM8.00004 9.64738C6.08489 9.64738 4.53236 8.09481 4.53236 6.17969C4.53236 4.26453 6.08489 2.712 8.00004 2.712C9.91517 2.712 11.4677 4.26453 11.4677 6.17969C11.4677 8.09481 9.91517 9.64738 8.00004 9.64738Z" fill="#CECECE"/>
</svg>
