<svg width="18" height="19" viewBox="0 0 18 19" fill="none" xmlns="http://www.w3.org/2000/svg">
<path d="M8.07914 0C3.62682 0 0 3.62682 0 8.07916C0 12.5315 3.62682 16.1654 8.07914 16.1654C9.98086 16.1654 11.7299 15.4989 13.1122 14.3924L16.4775 17.7559C16.6473 17.9187 16.8741 18.0085 17.1094 18.0061C17.3446 18.0037 17.5695 17.9093 17.736 17.743C17.9025 17.5768 17.9972 17.352 17.9999 17.1168C18.0027 16.8816 17.9132 16.6546 17.7506 16.4845L14.3853 13.1193C15.4928 11.7348 16.16 9.98307 16.16 8.07916C16.16 3.62682 12.5315 0 8.07914 0ZM8.07914 1.79578C11.561 1.79578 14.3625 4.59734 14.3625 8.07916C14.3625 11.561 11.561 14.3696 8.07914 14.3696C4.59732 14.3696 1.79575 11.561 1.79575 8.07916C1.79575 4.59734 4.59732 1.79578 8.07914 1.79578Z" fill="white"/>
</svg>
