<svg width="14" height="15" viewBox="0 0 14 15" fill="none" xmlns="http://www.w3.org/2000/svg">
<path d="M6.28378 0C2.82086 0 0 2.82086 0 6.28379C0 9.74669 2.82086 12.5731 6.28378 12.5731C7.7629 12.5731 9.12323 12.0547 10.1984 11.1941L12.8158 13.8101C12.9479 13.9367 13.1243 14.0066 13.3073 14.0047C13.4902 14.0029 13.6652 13.9294 13.7947 13.8001C13.9241 13.6708 13.9978 13.496 14 13.3131C14.0021 13.1301 13.9325 12.9536 13.806 12.8213L11.1886 10.2039C12.0499 9.12708 12.5689 7.76461 12.5689 6.28379C12.5689 2.82086 9.74669 0 6.28378 0ZM6.28378 1.39672C8.99186 1.39672 11.1709 3.57571 11.1709 6.28379C11.1709 8.99187 8.99186 11.1763 6.28378 11.1763C3.57569 11.1763 1.3967 8.99187 1.3967 6.28379C1.3967 3.57571 3.57569 1.39672 6.28378 1.39672Z" fill="white" fill-opacity="0.5"/>
</svg>
