<svg width="15" height="16" viewBox="0 0 15 16" fill="none" xmlns="http://www.w3.org/2000/svg">
<path d="M14.5583 9.27172L13.9145 8.72378C13.4735 8.34844 13.4743 7.65081 13.9145 7.27622L14.5583 6.72828C15.0165 6.33831 15.1336 5.66963 14.8369 5.13822L13.5657 2.86178C13.2689 2.33041 12.6501 2.10103 12.0944 2.31622L11.3135 2.61869C10.7786 2.82581 10.1947 2.47647 10.1009 1.89491L9.96386 1.04447C9.86629 0.439281 9.36474 0 8.77127 0H6.22877C5.63527 0 5.1337 0.439281 5.03616 1.0445L4.89905 1.89491C4.80513 2.4775 4.22037 2.82547 3.68648 2.61872L2.90558 2.31622C2.34993 2.10103 1.73113 2.33044 1.43434 2.86178L0.163102 5.13819C-0.133632 5.66953 -0.016474 6.33825 0.441729 6.72825L1.08552 7.27619C1.52659 7.65156 1.52571 8.34912 1.08552 8.72375L0.441699 9.27169C-0.016474 9.66169 -0.133662 10.3304 0.163071 10.8617L1.43434 13.1382C1.7311 13.6695 2.34978 13.8989 2.90558 13.6838L3.68645 13.3813C4.22143 13.1741 4.80529 13.5237 4.89902 14.1051L5.03612 14.9554C5.1337 15.5607 5.63527 16 6.22874 16H8.77124C9.36471 16 9.86629 15.5607 9.96383 14.9555L10.1009 14.1051C10.1948 13.5227 10.7795 13.1745 11.3135 13.3813L12.0944 13.6838C12.6502 13.899 13.2689 13.6696 13.5657 13.1382L14.837 10.8617C15.1336 10.3304 15.0165 9.66169 14.5583 9.27172ZM12.5186 12.5132L11.7377 12.2107C10.4894 11.7273 9.12704 12.5429 8.90835 13.8996L8.77127 14.75H6.22877L6.09166 13.8996C5.87255 12.5403 4.50822 11.7282 3.26231 12.2107L2.48141 12.5132L1.21018 10.2368L1.85397 9.68884C2.88315 8.81291 2.88101 7.18528 1.85397 6.31116L1.21018 5.76322L2.48144 3.48678L3.26231 3.78925C4.51067 4.27269 5.87298 3.45706 6.09166 2.10041L6.22874 1.25H8.77124L8.90832 2.10041C9.12746 3.45984 10.4919 4.27169 11.7377 3.78925L12.5186 3.48678L13.7901 5.76291C13.7901 5.76291 13.79 5.763 13.7898 5.76319L13.146 6.31112C12.1169 7.187 12.1189 8.81466 13.146 9.68881L13.7898 10.2367L12.5186 12.5132ZM7.50001 4.91666C5.85554 4.91666 4.51765 6.29984 4.51765 8C4.51765 9.70016 5.85554 11.0833 7.50001 11.0833C9.14448 11.0833 10.4824 9.70016 10.4824 8C10.4824 6.29984 9.14448 4.91666 7.50001 4.91666ZM7.50001 9.83334C6.52221 9.83334 5.72671 9.01091 5.72671 8C5.72671 6.98909 6.52221 6.16666 7.50001 6.16666C8.4778 6.16666 9.2733 6.98909 9.2733 8C9.2733 9.01091 8.4778 9.83334 7.50001 9.83334Z" fill="#414141"/>
</svg>
