<svg width="27" height="29" viewBox="0 0 27 29" fill="none" xmlns="http://www.w3.org/2000/svg">
<path d="M23.5938 4.13169H21.2578V1.05029C21.2578 0.60159 20.8941 0.237793 20.4453 0.237793C19.9966 0.237793 19.6328 0.60159 19.6328 1.05029V4.13169H8.25781V1.05029C8.25781 0.60159 7.89407 0.237793 7.44531 0.237793C6.99656 0.237793 6.63281 0.60159 6.63281 1.05029V4.13169H4.29688C2.44879 4.13169 0.945312 5.63517 0.945312 7.48326V24.7489C0.945312 26.597 2.44879 28.1004 4.29688 28.1004H23.5938C25.4418 28.1004 26.9453 26.597 26.9453 24.7489V7.48326C26.9453 5.63517 25.4418 4.13169 23.5938 4.13169ZM25.3203 24.7489C25.3203 25.7024 24.5473 26.4754 23.5938 26.4754H4.29688C3.3433 26.4754 2.57031 25.7024 2.57031 24.7489V11.2918C2.57031 11.1516 2.68401 11.0379 2.82422 11.0379H25.0664C25.2066 11.0379 25.3203 11.1516 25.3203 11.2918V24.7489Z" fill="white"/>
<rect x="12.9062" y="14" width="2" height="10" rx="1" fill="white"/>
<rect x="18.9062" y="18" width="2" height="10" rx="1" transform="rotate(90 18.9062 18)" fill="white"/>
</svg>
