<svg width="4" height="19" viewBox="0 0 4 19" fill="none" xmlns="http://www.w3.org/2000/svg">
<path d="M2.82031 3.625L2.71875 11.7891H1.41406L1.30469 3.625H2.82031ZM1.25781 14.2734C1.25781 14.0391 1.32812 13.8411 1.46875 13.6797C1.61458 13.5182 1.82812 13.4375 2.10938 13.4375C2.38542 13.4375 2.59635 13.5182 2.74219 13.6797C2.89323 13.8411 2.96875 14.0391 2.96875 14.2734C2.96875 14.4974 2.89323 14.6901 2.74219 14.8516C2.59635 15.013 2.38542 15.0938 2.10938 15.0938C1.82812 15.0938 1.61458 15.013 1.46875 14.8516C1.32812 14.6901 1.25781 14.4974 1.25781 14.2734Z" fill="#4A4A4A"/>
</svg>
