<svg width="2" height="13" viewBox="0 0 2 13" fill="none" xmlns="http://www.w3.org/2000/svg">
<path d="M1.72852 0.625L1.62695 8.78906H0.322266L0.212891 0.625H1.72852ZM0.166016 11.2734C0.166016 11.0391 0.236328 10.8411 0.376953 10.6797C0.522786 10.5182 0.736328 10.4375 1.01758 10.4375C1.29362 10.4375 1.50456 10.5182 1.65039 10.6797C1.80143 10.8411 1.87695 11.0391 1.87695 11.2734C1.87695 11.4974 1.80143 11.6901 1.65039 11.8516C1.50456 12.013 1.29362 12.0938 1.01758 12.0938C0.736328 12.0938 0.522786 12.013 0.376953 11.8516C0.236328 11.6901 0.166016 11.4974 0.166016 11.2734Z" fill="#EC1C24"/>
</svg>
