<svg width="17" height="14" viewBox="0 0 17 14" fill="none" xmlns="http://www.w3.org/2000/svg">
<path d="M7.12492 4.01851V1.25474C7.12492 1.0591 7.00727 0.882299 6.82722 0.8056C6.64783 0.729551 6.43788 0.7679 6.29813 0.905048L0.773198 6.26748C0.678299 6.35913 0.625 6.48523 0.625 6.61718C0.625 6.74913 0.678299 6.87523 0.773198 6.96687L6.29813 12.3293C6.43918 12.4658 6.64848 12.5042 6.82722 12.4288C7.00727 12.3521 7.12492 12.1753 7.12492 11.9796V9.21715H8.04661C11.06 9.21715 13.838 10.8551 15.296 13.4889L15.3096 13.5136C15.3967 13.6722 15.5618 13.7671 15.7373 13.7671C15.7776 13.7671 15.8179 13.7625 15.8582 13.7521C16.074 13.6969 16.2248 13.5025 16.2248 13.2796C16.2248 8.22656 12.1578 4.10561 7.12492 4.01851Z" fill="#727272"/>
</svg>
