<svg width="27" height="29" viewBox="0 0 27 29" fill="none" xmlns="http://www.w3.org/2000/svg">
<path d="M23.3184 4.86363H20.9824V1.78223C20.9824 1.33352 20.6187 0.969727 20.1699 0.969727C19.7212 0.969727 19.3574 1.33352 19.3574 1.78223V4.86363H7.98242V1.78223C7.98242 1.33352 7.61868 0.969727 7.16992 0.969727C6.72117 0.969727 6.35742 1.33352 6.35742 1.78223V4.86363H4.02148C2.1734 4.86363 0.669922 6.36711 0.669922 8.21519V25.4808C0.669922 27.3289 2.1734 28.8324 4.02148 28.8324H23.3184C25.1664 28.8324 26.6699 27.3289 26.6699 25.4808V8.21519C26.6699 6.36711 25.1664 4.86363 23.3184 4.86363ZM25.0449 25.4808C25.0449 26.4344 24.2719 27.2074 23.3184 27.2074H4.02148C3.06791 27.2074 2.29492 26.4344 2.29492 25.4808V12.0238C2.29492 11.8836 2.40862 11.7699 2.54883 11.7699H24.791C24.9312 11.7699 25.0449 11.8836 25.0449 12.0238V25.4808Z" fill="#4A4A4A"/>
</svg>
