<svg width="23" height="16" viewBox="0 0 23 16" fill="none" xmlns="http://www.w3.org/2000/svg">
<path d="M11.8496 0.911072C6.84961 0.911072 2.57961 4.02107 0.849609 8.41107C2.57961 12.8011 6.84961 15.9111 11.8496 15.9111C16.8496 15.9111 21.1196 12.8011 22.8496 8.41107C21.1196 4.02107 16.8496 0.911072 11.8496 0.911072ZM11.8496 13.4111C9.08961 13.4111 6.84961 11.1711 6.84961 8.41107C6.84961 5.65107 9.08961 3.41107 11.8496 3.41107C14.6096 3.41107 16.8496 5.65107 16.8496 8.41107C16.8496 11.1711 14.6096 13.4111 11.8496 13.4111ZM11.8496 5.41107C10.1896 5.41107 8.84961 6.75107 8.84961 8.41107C8.84961 10.0711 10.1896 11.4111 11.8496 11.4111C13.5096 11.4111 14.8496 10.0711 14.8496 8.41107C14.8496 6.75107 13.5096 5.41107 11.8496 5.41107Z" fill="#C4C4C4"/>
</svg>
