<svg width="14" height="14" viewBox="0 0 14 14" fill="none" xmlns="http://www.w3.org/2000/svg">
<path d="M9.90871 13.9982H4.09067C3.43272 14.0227 2.79171 13.7865 2.30691 13.341C1.82211 12.8955 1.53269 12.2767 1.50154 11.619V8.50007C1.50154 8.36751 1.5542 8.24038 1.64794 8.14664C1.74168 8.0529 1.86881 8.00024 2.00137 8.00024C2.13394 8.00024 2.26107 8.0529 2.35481 8.14664C2.44854 8.24038 2.5012 8.36751 2.5012 8.50007V11.619C2.53193 12.0116 2.71585 12.3764 3.01325 12.6345C3.31065 12.8926 3.69766 13.0234 4.09067 12.9986H9.90871C10.3017 13.0234 10.6887 12.8926 10.9861 12.6345C11.2835 12.3764 11.4675 12.0116 11.4982 11.619V8.50007C11.4982 8.36751 11.5508 8.24038 11.6446 8.14664C11.7383 8.0529 11.8654 8.00024 11.998 8.00024C12.1306 8.00024 12.2577 8.0529 12.3514 8.14664C12.4452 8.24038 12.4978 8.36751 12.4978 8.50007V11.619C12.4667 12.2767 12.1773 12.8955 11.6925 13.341C11.2077 13.7865 10.5667 14.0227 9.90871 13.9982ZM13.8524 7.35546C13.8992 7.30899 13.9364 7.25371 13.9618 7.1928C13.9872 7.13189 14.0002 7.06656 14.0002 7.00058C14.0002 6.93459 13.9872 6.86926 13.9618 6.80835C13.9364 6.74745 13.8992 6.69216 13.8524 6.6457L7.35457 0.14788C7.30811 0.101032 7.25283 0.0638469 7.19192 0.0384711C7.13101 0.0130953 7.06568 3.05176e-05 6.99969 3.05176e-05C6.93371 3.05176e-05 6.86838 0.0130953 6.80747 0.0384711C6.74656 0.0638469 6.69128 0.101032 6.64481 0.14788L0.146996 6.6457C0.0528762 6.73982 0 6.86747 0 7.00058C0 7.13368 0.0528762 7.26134 0.146996 7.35546C0.241117 7.44958 0.368771 7.50246 0.501877 7.50246C0.634983 7.50246 0.762638 7.44958 0.856758 7.35546L6.99969 1.20752L13.1426 7.35546C13.1891 7.40231 13.2444 7.43949 13.3053 7.46487C13.3662 7.49024 13.4315 7.50331 13.4975 7.50331C13.5635 7.50331 13.6288 7.49024 13.6897 7.46487C13.7506 7.43949 13.8059 7.40231 13.8524 7.35546Z" fill="#EC1C24"/>
</svg>
