<svg width="20" height="20" viewBox="0 0 20 20" fill="none" xmlns="http://www.w3.org/2000/svg">
<path fill-rule="evenodd" clip-rule="evenodd" d="M19.6961 15.8247V4.1714C19.6961 2.14473 17.9953 0.498047 15.902 0.498047H3.86581C1.77254 0.498047 0.0717773 2.14472 0.0717773 4.1714V15.8247C0.0717773 17.8514 1.77254 19.498 3.86581 19.498H15.902C17.9953 19.498 19.6961 17.8514 19.6961 15.8247ZM15.2479 9.99802C15.2479 12.848 12.8276 15.1914 9.88399 15.1914C6.9403 15.1914 4.52001 12.848 4.52001 9.99802C4.51741 9.32469 4.65082 8.65749 4.91244 8.03473H1.96883V15.8247C1.97184 16.3143 2.17332 16.7827 2.52902 17.1271C2.88472 17.4714 3.36548 17.6636 3.86581 17.6613H15.902C16.4023 17.6636 16.8832 17.4714 17.2388 17.1271C17.5945 16.7827 17.796 16.3143 17.799 15.8247V8.03473H14.8554C15.117 8.65748 15.2504 9.32468 15.2479 9.99802ZM9.88399 13.3547C11.781 13.3547 13.3508 11.8347 13.3508 9.99804C13.3508 9.23804 13.0893 8.6047 12.6967 8.03474C12.0426 7.21136 11.0614 6.64133 9.88399 6.64133C8.70647 6.64133 7.72531 7.21135 7.07118 8.03474C6.67868 8.6047 6.41706 9.30138 6.41706 9.99804C6.41706 11.8347 7.98694 13.3547 9.88399 13.3547ZM17.472 2.71471V5.9447H14.1359V2.71471H17.472Z" fill="#4A4A4A"/>
</svg>
