<svg width="15" height="15" viewBox="0 0 15 15" fill="none" xmlns="http://www.w3.org/2000/svg">
<path fill-rule="evenodd" clip-rule="evenodd" d="M14.9085 11.8492V3.15065C14.9085 1.63785 13.639 0.408691 12.0765 0.408691H3.09211C1.5296 0.408691 0.260071 1.63784 0.260071 3.15065V11.8492C0.260071 13.362 1.5296 14.5912 3.09211 14.5912H12.0765C13.639 14.5912 14.9085 13.362 14.9085 11.8492ZM11.5882 7.4999C11.5882 9.62729 9.78159 11.3765 7.58435 11.3765C5.38705 11.3765 3.58043 9.62729 3.58043 7.4999C3.57849 6.9973 3.67807 6.49927 3.87336 6.03441H1.67611V11.8492C1.67836 12.2147 1.82876 12.5643 2.09427 12.8213C2.35978 13.0784 2.71864 13.2218 3.09211 13.2201H12.0765C12.4499 13.2218 12.8089 13.0784 13.0743 12.8213C13.3398 12.5643 13.4902 12.2147 13.4925 11.8492V6.03441H11.2952C11.4905 6.49927 11.5901 6.99729 11.5882 7.4999ZM7.58435 10.0055C9.00039 10.0055 10.1722 8.8709 10.1722 7.49991C10.1722 6.93262 9.97693 6.45987 9.6839 6.03442C9.19563 5.41982 8.46325 4.99432 7.58435 4.99432C6.7054 4.99432 5.97302 5.4198 5.48475 6.03442C5.19176 6.45987 4.99647 6.9799 4.99647 7.49991C4.99647 8.8709 6.1683 10.0055 7.58435 10.0055ZM13.2484 2.06331V4.47432H10.7582V2.06331H13.2484Z" fill="white"/>
</svg>
