<svg width="13" height="12" viewBox="0 0 13 12" fill="none" xmlns="http://www.w3.org/2000/svg">
<path d="M6.9082 0C4.3752 0 2.31445 2.06074 2.31445 4.59375C2.31445 5.40455 2.52867 6.20168 2.93393 6.89895C3.02841 7.06151 3.13402 7.21992 3.24787 7.3698L6.70861 12H7.10777L10.5685 7.36983C10.6824 7.21992 10.788 7.06153 10.8825 6.89897C11.2877 6.20168 11.502 5.40455 11.502 4.59375C11.502 2.06074 9.44121 0 6.9082 0ZM6.9082 6.11719C6.06818 6.11719 5.38477 5.43377 5.38477 4.59375C5.38477 3.75373 6.06818 3.07031 6.9082 3.07031C7.74823 3.07031 8.43164 3.75373 8.43164 4.59375C8.43164 5.43377 7.74823 6.11719 6.9082 6.11719Z" fill="#EC1C24"/>
</svg>
