<svg width="43" height="28" viewBox="0 0 43 28" fill="none" xmlns="http://www.w3.org/2000/svg">
<path d="M29.0009 8.22124L38.0476 17.268C40.6736 15.6794 42.429 12.7964 42.429 9.50332C42.429 4.49483 38.3688 0.43457 33.3602 0.43457H9.81729C4.80871 0.434652 0.748535 4.49483 0.748535 9.50332C0.748535 14.5118 4.80871 18.5721 9.81729 18.5721H22.7469V10.8113C22.7469 9.32431 23.6346 7.99582 25.0084 7.42679C26.7144 6.72034 28.2369 7.45707 29.0009 8.22124Z" fill="#EC1C24"/>
<path d="M27.0371 10.1826C26.7955 9.94086 26.432 9.86865 26.1163 9.99939C25.8006 10.1302 25.5947 10.4383 25.5947 10.78V25.2598C25.5947 25.6016 25.8005 25.9097 26.1163 26.0404C26.4087 26.1615 26.7778 26.1166 27.0371 25.8572L30.384 22.5103L32.5278 26.6871C32.7064 27.1182 33.2007 27.3229 33.6318 27.1444C34.0629 26.9658 34.2676 26.4715 34.089 26.0404L31.9452 21.8636H36.6785C37.0202 21.8636 37.3283 21.6577 37.4591 21.342C37.5898 21.0263 37.5175 20.6629 37.2759 20.4212L27.0371 10.1826Z" fill="#EC1C24"/>
</svg>
