<svg width="31" height="31" viewBox="0 0 31 31" fill="none" xmlns="http://www.w3.org/2000/svg">
<path d="M12.2966 25.0257C14.8282 25.0257 17.167 24.2542 19.12 22.9522L26.1845 30.0167C26.7392 30.5713 27.6555 30.5713 28.2339 30.0167L29.6082 28.6424C30.1628 28.0878 30.1628 27.1716 29.6082 26.593L22.5196 19.5526C23.8213 17.5996 24.5931 15.2608 24.5931 12.7292C24.5931 5.95402 19.0717 0.432617 12.2966 0.432617C5.5214 0.432617 0 5.95402 0 12.7292C0 19.5041 5.49729 25.0257 12.2966 25.0257ZM12.2966 5.2548C16.4195 5.2548 19.7709 8.60622 19.7709 12.7292C19.7709 16.8521 16.4195 20.2036 12.2966 20.2036C8.1736 20.2036 4.82218 16.8521 4.82218 12.7292C4.82218 8.60622 8.1736 5.2548 12.2966 5.2548Z" fill="#EC1C24"/>
</svg>
