<svg width="31" height="35" viewBox="0 0 31 35" fill="none" xmlns="http://www.w3.org/2000/svg">
<path d="M10.1806 30.4326H6C4.89764 30.4326 4 29.535 4 28.4326V6.43262C4 5.33026 4.89764 4.43262 6 4.43262H21.3681C22.4704 4.43262 23.3681 5.33026 23.3681 6.43262V14.1201C23.3681 15.0866 24.1515 15.8701 25.1181 15.8701C26.0846 15.8701 26.8681 15.0866 26.8681 14.1201V6.43262C26.8681 3.39947 24.4012 0.932617 21.3681 0.932617H6C2.96686 0.932617 0.5 3.39947 0.5 6.43262V28.4326C0.5 31.4658 2.96686 33.9326 6 33.9326H10.1806C11.1471 33.9326 11.9306 33.1491 11.9306 32.1826C11.9306 31.2161 11.1471 30.4326 10.1806 30.4326Z" fill="#EC1C24" stroke="#EC1C24"/>
<path d="M28.9357 19.1773L28.9357 19.1773C30.5931 20.8348 30.5931 23.5304 28.9357 25.1877L28.9354 25.1881L22.0871 32.0235C22.0871 32.0235 22.0871 32.0235 22.0871 32.0235C21.8736 32.2367 21.6086 32.3909 21.318 32.4714L28.9357 19.1773ZM28.9357 19.1773C27.2785 17.5201 24.5832 17.5197 22.9266 19.1759M28.9357 19.1773L22.9266 19.1759M22.9266 19.1759L22.9262 19.1763L16.0639 26.0234L16.0639 26.0234C15.8599 26.227 15.7094 26.4778 15.6256 26.7535L15.6256 26.7536L14.131 31.6739L14.131 31.6739C13.9455 32.2846 14.1071 32.9478 14.5529 33.4046L14.5529 33.4046C14.8868 33.7469 15.3404 33.9326 15.8055 33.9326C15.9613 33.9326 16.1184 33.9117 16.2726 33.869C16.2727 33.869 16.2728 33.8689 16.2728 33.8689L21.3179 32.4714L28.5821 19.5308C27.12 18.0687 24.741 18.0686 23.2798 19.5298L22.9266 19.1759ZM26.4609 21.6523C26.7148 21.9061 26.7478 22.2989 26.5614 22.5886L25.5247 21.5518C25.8149 21.3652 26.2073 21.3987 26.4609 21.6523ZM24.0962 25.0731L19.9402 29.2213L18.4047 29.6466L18.8469 28.191L23.0351 24.012L24.0962 25.0731Z" fill="#EC1C24" stroke="#EC1C24"/>
</svg>
