<svg width="20" height="24" viewBox="0 0 20 24" fill="none" xmlns="http://www.w3.org/2000/svg">
<path d="M13.1998 20.873C13.1998 22.0328 12.5815 22.9205 11.5773 23.5007C10.5734 24.0806 9.33639 24.0806 8.33437 23.5007C7.32985 22.9205 6.71182 22.0328 6.71182 20.873" fill="#4A4A4A"/>
<path d="M9.95503 0.622253C10.8399 0.622253 11.5526 1.16779 11.5526 2.00671C11.5526 2.53475 11.571 2.92875 11.9028 3.02967C14.7246 3.88172 16.5339 5.87889 16.5339 8.47252V12.8318C16.5339 14.829 17.351 15.2333 18.3793 15.9972C19.8684 17.1017 19.5285 19.4017 17.8197 19.4001H2.09102C0.382237 19.4017 0.0422934 17.1017 1.53142 15.9972C2.55844 15.2333 3.37674 14.829 3.37674 12.8318V8.47252C3.37674 5.87889 5.18613 3.88172 8.00785 3.02967C8.33874 2.92875 8.35811 2.53475 8.35811 2.00671C8.35842 1.16779 9.07143 0.622253 9.95503 0.622253Z" fill="#4A4A4A"/>
</svg>
