<svg width="19" height="22" viewBox="0 0 19 22" fill="none" xmlns="http://www.w3.org/2000/svg">
<path d="M18.349 5.1479L10.1735 0.284208C9.94633 0.149079 9.66335 0.149079 9.43615 0.284208L1.26065 5.1479C1.04215 5.27791 0.908203 5.51344 0.908203 5.76768V8.54409C0.908203 14.3918 4.28686 19.7329 9.54445 21.7684C9.71182 21.8333 9.89765 21.8333 10.0652 21.7684C15.31 19.738 18.7014 14.4085 18.7014 8.54409V5.76768C18.7014 5.5134 18.5675 5.27791 18.349 5.1479ZM13.3676 9.3795L8.84784 13.8993C8.56622 14.1809 8.10962 14.1809 7.82799 13.8993L6.24176 12.3131C5.96014 12.0315 5.96014 11.5749 6.24176 11.2932C6.52339 11.0117 6.98003 11.0117 7.26161 11.2932L8.33787 12.3695L12.3477 8.35965C12.6293 8.07807 13.086 8.07807 13.3676 8.35965C13.6493 8.64132 13.6493 9.09792 13.3676 9.3795Z" fill="#EC1C24"/>
</svg>
