<svg width="17" height="15" viewBox="0 0 17 15" fill="none" xmlns="http://www.w3.org/2000/svg">
<path d="M14.3699 6.09985C14.1771 6.09985 13.9921 6.17727 13.8557 6.3151C13.7193 6.45292 13.6427 6.63984 13.6427 6.83475V11.9791C13.6427 12.174 13.566 12.3609 13.4297 12.4988C13.2933 12.6366 13.1083 12.714 12.9154 12.714H2.73358C2.54069 12.714 2.35571 12.6366 2.21932 12.4988C2.08293 12.3609 2.0063 12.174 2.0063 11.9791V6.09985C2.0063 5.90494 2.08293 5.71801 2.21932 5.58019C2.35571 5.44237 2.54069 5.36494 2.73358 5.36494H4.18812C4.34672 5.3733 4.50366 5.32898 4.63498 5.23874C4.76631 5.14851 4.86479 5.01731 4.91539 4.8652L5.30812 3.65995C5.35691 3.51398 5.44987 3.3872 5.57385 3.29753C5.69783 3.20785 5.84656 3.15982 5.99903 3.16021H10.0063C10.1992 3.16021 10.3842 3.08279 10.5206 2.94496C10.657 2.80714 10.7336 2.62022 10.7336 2.42531C10.7336 2.2304 10.657 2.04347 10.5206 1.90565C10.3842 1.76783 10.1992 1.6904 10.0063 1.6904H5.96267C5.50561 1.69126 5.06037 1.83715 4.68977 2.10746C4.31917 2.37778 4.04195 2.75887 3.89721 3.19696L3.66449 3.93187H2.73358C2.15492 3.93187 1.59997 4.16415 1.1908 4.57762C0.781627 4.99108 0.551758 5.55186 0.551758 6.13659V12.0159C0.551758 12.6006 0.781627 13.1614 1.1908 13.5748C1.59997 13.9883 2.15492 14.2206 2.73358 14.2206H12.9154C13.494 14.2206 14.049 13.9883 14.4582 13.5748C14.8673 13.1614 15.0972 12.6006 15.0972 12.0159V6.8715C15.1021 6.77194 15.087 6.67241 15.0526 6.57897C15.0183 6.48552 14.9655 6.4001 14.8975 6.32792C14.8295 6.25574 14.7476 6.1983 14.6569 6.15909C14.5662 6.11988 14.4686 6.09972 14.3699 6.09985ZM7.82449 5.36494C7.24912 5.36494 6.68668 5.53734 6.20828 5.86036C5.72988 6.18337 5.35702 6.64247 5.13684 7.17962C4.91665 7.71677 4.85904 8.30783 4.97129 8.87807C5.08354 9.4483 5.3606 9.97209 5.76745 10.3832C6.17429 10.7943 6.69264 11.0743 7.25695 11.1877C7.82126 11.3011 8.40618 11.2429 8.93775 11.0204C9.46931 10.7979 9.92365 10.4212 10.2433 9.93774C10.563 9.45432 10.7336 8.88597 10.7336 8.30457C10.7336 7.52493 10.4271 6.77722 9.88152 6.22594C9.33596 5.67465 8.59602 5.36494 7.82449 5.36494ZM7.82449 9.77439C7.5368 9.77439 7.25558 9.68818 7.01638 9.52668C6.77718 9.36517 6.59075 9.13562 6.48066 8.86705C6.37057 8.59847 6.34176 8.30294 6.39789 8.01782C6.45401 7.73271 6.59254 7.47081 6.79597 7.26525C6.99939 7.0597 7.25856 6.91971 7.54072 6.863C7.82287 6.80628 8.11533 6.83539 8.38112 6.94664C8.6469 7.05788 8.87407 7.24627 9.0339 7.48798C9.19372 7.72969 9.27903 8.01387 9.27903 8.30457C9.27903 8.69439 9.12578 9.06824 8.853 9.34389C8.58022 9.61953 8.21025 9.77439 7.82449 9.77439ZM15.8245 1.6904H15.0972V0.955489C15.0972 0.760579 15.0206 0.573653 14.8842 0.435831C14.7478 0.298009 14.5628 0.220581 14.3699 0.220581C14.1771 0.220581 13.9921 0.298009 13.8557 0.435831C13.7193 0.573653 13.6427 0.760579 13.6427 0.955489V1.6904H12.9154C12.7225 1.6904 12.5375 1.76783 12.4011 1.90565C12.2647 2.04347 12.1881 2.2304 12.1881 2.42531C12.1881 2.62022 12.2647 2.80714 12.4011 2.94496C12.5375 3.08279 12.7225 3.16021 12.9154 3.16021H13.6427V3.89512C13.6427 4.09003 13.7193 4.27696 13.8557 4.41478C13.9921 4.5526 14.1771 4.63003 14.3699 4.63003C14.5628 4.63003 14.7478 4.5526 14.8842 4.41478C15.0206 4.27696 15.0972 4.09003 15.0972 3.89512V3.16021H15.8245C16.0174 3.16021 16.2024 3.08279 16.3387 2.94496C16.4751 2.80714 16.5518 2.62022 16.5518 2.42531C16.5518 2.2304 16.4751 2.04347 16.3387 1.90565C16.2024 1.76783 16.0174 1.6904 15.8245 1.6904Z" fill="#727272"/>
</svg>
