<svg width="9" height="9" viewBox="0 0 9 9" fill="none" xmlns="http://www.w3.org/2000/svg">
<path fill-rule="evenodd" clip-rule="evenodd" d="M6 1C6 0.447715 5.55228 0 5 0C4.44771 0 4 0.447715 4 1V2C4 3.10457 3.10457 4 2 4L1 4C0.447715 4 0 4.44771 0 5C0 5.55228 0.447714 6 0.999999 6H2.5C3.32842 6 4 6.67157 4 7.5V8C4 8.55228 4.44771 9 5 9C5.55228 9 6 8.55229 6 8V7.5C6 6.67157 6.67157 6 7.5 6H8C8.55229 6 9 5.55228 9 5C9 4.44772 8.55229 4 8 4H7.5C6.67157 4 6 3.32843 6 2.5V1Z" fill="#EC1C24"/>
</svg>
