<svg width="22" height="22" viewBox="0 0 22 22" fill="none" xmlns="http://www.w3.org/2000/svg">
<path d="M14.8601 10.4129H11.9358V7.48865C11.9358 7.08488 11.6085 6.75757 11.2047 6.75757C10.801 6.75757 10.4737 7.08488 10.4737 7.48865V10.4129H7.54944C7.14567 10.4129 6.81836 10.7402 6.81836 11.144C6.81836 11.5478 7.14567 11.875 7.54944 11.875H10.4737V14.7993C10.4737 15.2031 10.801 15.5304 11.2048 15.5304C11.6086 15.5304 11.9358 15.203 11.9358 14.7993V11.875H14.8601C15.2639 11.875 15.5912 11.5477 15.5912 11.144C15.5912 10.7402 15.2638 10.4129 14.8601 10.4129Z" fill="#727272"/>
<circle cx="11" cy="11" r="10.5" stroke="#727272"/>
</svg>
