<svg width="17" height="16" viewBox="0 0 17 16" fill="none" xmlns="http://www.w3.org/2000/svg">
<path d="M15.7413 14.6967L11.2284 10.2328C12.1658 9.20332 12.7418 7.84602 12.7418 6.35478C12.7418 3.15274 10.1081 0.547607 6.87092 0.547607C3.63371 0.547607 1 3.15274 1 6.35481C1 9.55688 3.63371 12.162 6.87092 12.162C8.37852 12.162 9.75069 11.5922 10.7915 10.665L15.3043 15.1289C15.3647 15.1886 15.4438 15.2184 15.5228 15.2184C15.6019 15.2184 15.6809 15.1886 15.7413 15.1289C15.862 15.0095 15.862 14.8161 15.7413 14.6967ZM6.87092 11.5507C3.9747 11.5507 1.61801 9.21989 1.61801 6.35481C1.61801 3.48973 3.9747 1.15888 6.87092 1.15888C9.76715 1.15888 12.1238 3.48971 12.1238 6.35481C12.1238 9.21991 9.76715 11.5507 6.87092 11.5507Z" fill="#4A4A4A" stroke="#4A4A4A" stroke-width="0.5"/>
</svg>
