<svg width="21" height="20" viewBox="0 0 21 20" fill="none" xmlns="http://www.w3.org/2000/svg">
<path d="M20.3071 19.2887L14.2217 13.2033C15.4857 11.7999 16.2626 9.94957 16.2626 7.91664C16.2625 3.55145 12.7111 0 8.34588 0C3.98064 0 0.429199 3.55145 0.429199 7.91668C0.429199 12.2819 3.98064 15.8334 8.34588 15.8334C10.3788 15.8334 12.2291 15.0565 13.6326 13.7925L19.7179 19.8779C19.7993 19.9593 19.906 20 20.0126 20C20.1192 20 20.2258 19.9593 20.3072 19.8779C20.4699 19.7152 20.4699 19.4515 20.3071 19.2887ZM8.34588 15C4.44045 15 1.26256 11.8225 1.26256 7.91668C1.26256 4.01086 4.44045 0.83332 8.34588 0.83332C12.2513 0.83332 15.4292 4.01082 15.4292 7.91668C15.4292 11.8225 12.2513 15 8.34588 15Z" fill="#C4C4C4"/>
</svg>
