<svg width="21" height="21" viewBox="0 0 21 21" fill="none" xmlns="http://www.w3.org/2000/svg">
<path d="M20.8196 19.7887L14.7342 13.7033C15.9982 12.2999 16.775 10.4496 16.775 8.41664C16.775 4.05145 13.2236 0.5 8.85833 0.5C4.4931 0.5 0.94165 4.05145 0.94165 8.41668C0.94165 12.7819 4.4931 16.3334 8.85833 16.3334C10.8913 16.3334 12.7416 15.5565 14.145 14.2925L20.2304 20.3779C20.3118 20.4593 20.4184 20.5 20.525 20.5C20.6316 20.5 20.7382 20.4593 20.8196 20.3779C20.9824 20.2152 20.9824 19.9515 20.8196 19.7887ZM8.85833 15.5C4.9529 15.5 1.77501 12.3225 1.77501 8.41668C1.77501 4.51086 4.9529 1.33332 8.85833 1.33332C12.7638 1.33332 15.9417 4.51082 15.9417 8.41668C15.9417 12.3225 12.7638 15.5 8.85833 15.5Z" fill="black"/>
</svg>
