<svg width="55" height="55" viewBox="0 0 55 55" fill="none" xmlns="http://www.w3.org/2000/svg">
<path d="M42.2855 19.1009C42.2448 18.2065 42.2448 17.3527 42.2448 16.4988C42.2448 15.8077 41.7162 15.2791 41.0251 15.2791C35.9429 15.2791 32.0804 13.8154 28.8684 10.6848C28.3805 10.2376 27.6487 10.2376 27.1608 10.6848C23.9488 13.8154 20.0863 15.2791 15.0041 15.2791C14.313 15.2791 13.7844 15.8077 13.7844 16.4988C13.7844 17.3527 13.7844 18.2065 13.7437 19.1009C13.5811 27.6391 13.3372 39.3485 27.608 44.2681L28.0146 44.3494L28.4212 44.2681C42.6514 39.3485 42.4481 27.6797 42.2855 19.1009ZM27.0388 30.9323C26.7949 31.1356 26.5103 31.2576 26.185 31.2576H26.1443C25.8191 31.2576 25.4938 31.095 25.2905 30.851L21.5094 26.6633L23.339 25.037L26.307 28.3302L32.8935 22.0689L34.5605 23.8579L27.0388 30.9323Z" fill="#EC1C24"/>
<rect x="0.5" y="0.5" width="54" height="54" rx="4.5" stroke="#EC1C24"/>
</svg>
