<svg width="55" height="55" viewBox="0 0 55 55" fill="none" xmlns="http://www.w3.org/2000/svg">
<rect x="0.5" y="0.5" width="54" height="54" rx="4.5" stroke="#EC1C24"/>
<path d="M44.0201 28.7738C46.7504 28.7738 48.9715 26.5526 48.9715 23.8225V21.4575H45.8335C44.8706 21.4575 43.9395 21.7385 43.1414 22.2582C43.0528 21.7682 42.9407 21.2832 42.8046 20.8047L43.7494 20.261C44.8948 19.5997 45.714 18.532 46.0564 17.2545C46.3987 15.977 46.2231 14.6427 45.5617 13.4973L44.3793 11.4492L41.6617 13.0182C40.5894 13.6373 39.7935 14.6315 39.4209 15.8175C39.054 16.985 39.1272 18.2382 39.6268 19.3484L40.1843 20.6759C40.6797 22.0627 40.9312 23.5249 40.9312 25.0226C40.9312 32.1528 35.1304 37.9536 28.0003 37.9536C20.87 37.9536 15.0692 32.1528 15.0692 25.0226C15.0692 23.5213 15.3205 22.059 15.8157 20.676L16.3731 19.3484C16.8726 18.2381 16.9458 16.985 16.579 15.8175C16.2063 14.6315 15.4105 13.6373 14.3381 13.0182L11.6205 11.4492L10.4381 13.4973C9.7768 14.6427 9.60117 15.977 9.94342 17.2545C10.2857 18.532 11.105 19.5997 12.2518 20.2618L13.195 20.8046C13.0589 21.2828 12.9468 21.7677 12.8583 22.2581C12.0602 21.7385 11.1291 21.4575 10.1662 21.4575H7.02832V23.8225C7.02832 26.5527 9.2495 28.7738 11.9814 28.7738L13.0745 28.7723C13.1967 29.2584 13.3422 29.7353 13.5094 30.2019C12.5563 30.1489 11.6076 30.3702 10.773 30.8521L8.05556 32.4211L9.23804 34.4692C10.154 36.0557 11.8211 36.9436 13.534 36.9436C14.3737 36.9436 15.2249 36.73 16.0032 36.2806L16.9573 35.728C17.3042 36.0858 17.6683 36.4267 18.0483 36.7497C17.1955 37.18 16.4833 37.8473 16.0001 38.6841L14.4311 41.4016L16.4792 42.584C17.2422 43.0245 18.0888 43.2496 18.9469 43.2496C19.3769 43.2496 19.8099 43.1931 20.2364 43.0787C21.5139 42.7365 22.5816 41.9172 23.2437 40.7703L23.7878 39.825C25.127 40.2066 26.5402 40.4111 28.0003 40.4111C29.4601 40.4111 30.8732 40.2067 32.2123 39.8252L32.7571 40.7718C33.6733 42.3585 35.3409 43.2465 37.0534 43.2465C37.8928 43.2465 38.743 43.0331 39.5208 42.5841L41.5689 41.4017L39.9999 38.6842C39.5168 37.8475 38.8047 37.1803 37.952 36.7499C38.3321 36.4269 38.6962 36.086 39.0432 35.7282L39.9983 36.2816C40.7761 36.7307 41.6261 36.944 42.4656 36.944C44.178 36.944 45.8459 36.0558 46.7619 34.4693L47.9444 32.4212L45.2269 30.8523C44.3925 30.3705 43.444 30.1491 42.491 30.2021C42.6583 29.7355 42.8037 29.2586 42.9259 28.7725L44.0201 28.7738Z" fill="#EC1C24"/>
<path d="M30.3477 20.2031V33H27.3857V23.543L24.4678 24.3955V22.1455L30.0752 20.2031H30.3477Z" fill="#EC1C24"/>
</svg>
