<svg width="55" height="55" viewBox="0 0 55 55" fill="none" xmlns="http://www.w3.org/2000/svg">
<rect x="0.5" y="0.5" width="54" height="54" rx="4.5" stroke="#EC1C24"/>
<path fill-rule="evenodd" clip-rule="evenodd" d="M32.9067 40.9246H37.0795C37.6903 40.9231 38.2757 40.6797 38.7077 40.2478C39.1396 39.8158 39.3829 39.2305 39.3845 38.6196V24.7381C39.3845 22.1277 38.1112 19.745 36.0599 18.0092C33.9676 16.2389 31.0719 15.14 27.8779 15.14C24.684 15.14 21.7881 16.2389 19.696 18.0092C17.6446 19.7449 16.3713 22.1276 16.3713 24.7381V37.7589C16.3713 37.997 16.2768 38.2254 16.1084 38.3938C15.94 38.5621 15.7117 38.6567 15.4736 38.6567C15.4444 38.6567 15.4156 38.6553 15.3871 38.6526C13.7151 38.6287 12.1138 37.9741 10.9039 36.8199C9.69394 35.6657 8.96468 34.097 8.86211 32.4279C8.75954 30.7589 9.29123 29.1127 10.3507 27.819C11.4102 26.5253 12.9193 25.6796 14.5758 25.4512V24.7381C14.5758 21.5759 16.0936 18.7105 18.5387 16.6416C20.943 14.6072 24.2495 13.3445 27.8779 13.3445C31.5064 13.3445 34.8132 14.6072 37.2172 16.6416C39.6623 18.7105 41.1801 21.5759 41.1801 24.7381V25.4215C42.8162 25.5859 44.3329 26.3521 45.436 27.5716C46.5391 28.7911 47.1499 30.3768 47.1499 32.0211C47.1499 33.6655 46.5391 35.2512 45.436 36.4707C44.3329 37.6901 42.8162 38.4564 41.1801 38.6207C41.1781 39.7076 40.7454 40.7494 39.9768 41.5178C39.2082 42.2863 38.1664 42.7188 37.0795 42.7206H33.0491C32.8943 43.2075 32.5889 43.6327 32.1769 43.9348C31.7649 44.237 31.2676 44.4005 30.7566 44.4018H24.9995C24.3643 44.3982 23.7563 44.1434 23.3084 43.693C22.8605 43.2426 22.6091 42.6332 22.6091 41.998C22.6091 41.3627 22.8605 40.7533 23.3084 40.3029C23.7563 39.8525 24.3643 39.5977 24.9995 39.5941H30.7569C31.2034 39.5953 31.6407 39.7203 32.0203 39.9553C32.3999 40.1903 32.7069 40.526 32.907 40.925L32.9067 40.9246Z" fill="#EC1C24"/>
</svg>
