<svg width="55" height="55" viewBox="0 0 55 55" fill="none" xmlns="http://www.w3.org/2000/svg">
<rect x="0.5" y="0.5" width="54" height="54" rx="4.5" stroke="#EC1C24"/>
<path d="M19.6109 41.0624C20.7049 42.1564 22.4808 42.1564 23.5749 41.0624L37.1451 27.4921C37.5348 27.1025 37.8345 26.6379 38.0293 26.1433C39.3931 26.5255 40.7194 26.7278 41.8884 26.7203C44.7808 26.7053 45.7399 25.439 46.0546 24.6822C46.3693 23.9328 46.5941 22.3592 44.5634 20.2911C44.541 20.2686 44.5185 20.2462 44.496 20.2237C43.2371 18.9648 41.4088 17.8034 39.3332 16.9416C38.951 16.7843 38.5688 16.6419 38.1942 16.507V16.4845C38.1717 14.821 36.8304 13.4797 35.1669 13.4573L27.0367 13.3449C25.9577 13.3299 24.9236 13.7495 24.1668 14.5138L10.5891 28.0841C9.49505 29.1781 9.49505 30.954 10.5891 32.048L19.6109 41.0624ZM30.0715 18.2005C30.9782 17.2938 32.4469 17.2938 33.3535 18.2005C33.8931 18.74 34.1104 19.4818 34.0055 20.1787C34.8972 20.8081 35.9612 21.3926 37.1002 21.8647C37.5048 22.0295 37.8945 22.1794 38.2691 22.3068L38.2242 19.0397C38.2916 19.0697 38.3515 19.0922 38.419 19.1222C40.1949 19.864 41.7909 20.8681 42.8175 21.8947C42.8325 21.9097 42.8475 21.9246 42.8625 21.9396C43.8366 22.9362 43.9415 23.5732 43.8591 23.768C43.6043 24.3749 40.8693 24.9144 36.718 23.1835C35.5041 22.674 34.3651 22.0445 33.4435 21.3626C33.4135 21.4001 33.376 21.4376 33.3461 21.475C32.4394 22.3817 30.9707 22.3817 30.064 21.475C29.1648 20.5759 29.1648 19.1072 30.0715 18.2005Z" fill="#EC1C24"/>
</svg>
