<svg width="15" height="18" viewBox="0 0 15 18" fill="none" xmlns="http://www.w3.org/2000/svg">
<path d="M14.7612 12.3541C14.687 12.1886 14.5224 12.082 14.3412 12.082H11.1181V1.03149C11.1181 0.776984 10.912 0.571045 10.6577 0.571045C10.4034 0.571045 10.1973 0.776984 10.1973 1.03149V16.6865C10.1973 16.8776 10.3153 17.0489 10.494 17.1168C10.5473 17.137 10.6028 17.1469 10.6577 17.1469C10.7865 17.1469 10.9127 17.0925 11.0019 16.9922L14.6854 12.8483C14.8057 12.7129 14.8356 12.5191 14.7612 12.3541Z" fill="#727272"/>
<path d="M5.29592 0.60127C5.11741 0.533373 4.91551 0.583284 4.78804 0.725823L1.10452 4.86978C0.984237 5.00513 0.954335 5.19893 1.02875 5.36395C1.10294 5.52942 1.26752 5.63599 1.44872 5.63599H4.67181V16.6866C4.67181 16.9411 4.87797 17.147 5.13225 17.147C5.38652 17.147 5.59269 16.9411 5.59269 16.6866V1.03158C5.59269 0.840483 5.47465 0.669167 5.29592 0.60127Z" fill="#727272"/>
</svg>
