<svg width="20" height="18" viewBox="0 0 20 18" fill="none" xmlns="http://www.w3.org/2000/svg">
<path d="M9.77038 0.515341C9.95214 0.182061 10.4307 0.182061 10.6125 0.515341L13.2531 5.35721C13.322 5.48369 13.4442 5.57246 13.5858 5.59898L19.0067 6.61413C19.3798 6.684 19.5277 7.13913 19.2669 7.41499L15.478 11.4226C15.379 11.5273 15.3324 11.6709 15.3509 11.8138L16.0606 17.283C16.1095 17.6595 15.7223 17.9408 15.3794 17.778L10.3971 15.4129C10.2669 15.3512 10.1159 15.3512 9.98576 15.4129L5.00348 17.778C4.66053 17.9408 4.27338 17.6595 4.32223 17.283L5.03191 11.8138C5.05045 11.6709 5.00378 11.5273 4.90481 11.4226L1.11591 7.41499C0.855106 7.13913 1.00299 6.684 1.37612 6.61413L6.79701 5.59898C6.93861 5.57246 7.0608 5.48369 7.12977 5.35721L9.77038 0.515341Z" fill="#FFD964"/>
</svg>
