<svg width="19" height="18" viewBox="0 0 19 18" fill="none" xmlns="http://www.w3.org/2000/svg">
<path d="M9.5342 0.245408C9.71266 -0.0818029 10.1825 -0.0818026 10.3609 0.245409L12.9535 4.99911C13.0212 5.12328 13.1411 5.21043 13.2802 5.23647L18.6023 6.23313C18.9687 6.30173 19.1139 6.74857 18.8578 7.0194L15.1379 10.954C15.0407 11.0568 14.9949 11.1978 15.0131 11.3381L15.7099 16.7077C15.7578 17.0773 15.3777 17.3535 15.041 17.1937L10.1495 14.8717C10.0217 14.811 9.87344 14.811 9.74566 14.8717L4.85412 17.1937C4.51742 17.3535 4.13731 17.0773 4.18527 16.7077L4.88203 11.3381C4.90023 11.1978 4.85441 11.0568 4.75724 10.954L1.03734 7.0194C0.781288 6.74857 0.926476 6.30173 1.29282 6.23313L6.61498 5.23647C6.75401 5.21043 6.87397 5.12328 6.94169 4.99911L9.5342 0.245408Z" fill="#4A4A4A"/>
</svg>
