<svg width="15" height="13" viewBox="0 0 15 13" fill="none" xmlns="http://www.w3.org/2000/svg">
<path fill-rule="evenodd" clip-rule="evenodd" d="M12.6879 11.966L14.9978 0.990314C15.005 0.920095 14.9948 0.849215 14.9681 0.783673C14.9413 0.718132 14.8989 0.65986 14.8443 0.613802C14.7566 0.527583 14.6395 0.476027 14.5153 0.468994C14.4568 0.468983 9.86152 2.1583 0.729264 5.53693C0.505092 5.6238 0.393005 5.78308 0.393005 6.01476C0.422257 6.23678 0.539209 6.38158 0.743864 6.44914L4.0771 7.47723L5.42208 11.4882C5.50983 11.7198 5.68523 11.8356 5.94834 11.8356C6.07529 11.8315 6.19574 11.7797 6.2846 11.6909L8.17049 9.9388L11.5768 12.3859C11.6923 12.4785 11.8368 12.5296 11.9861 12.5307C12.3662 12.5307 12.6002 12.3425 12.6879 11.966ZM12.1908 2.56857C12.1616 2.56857 9.725 4.09862 4.88111 7.1587L5.90449 10.489L6.12374 8.37496C10.2952 4.64883 12.3833 2.77371 12.3882 2.74958C12.392 2.73292 12.3944 2.71597 12.3954 2.69891C12.3954 2.61201 12.3273 2.56856 12.1908 2.56857Z" fill="white"/>
</svg>
