<svg width="20" height="17" viewBox="0 0 20 17" fill="none" xmlns="http://www.w3.org/2000/svg">
<path fill-rule="evenodd" clip-rule="evenodd" d="M16.7219 16.0312L19.786 1.47181C19.7956 1.37866 19.7821 1.28464 19.7466 1.1977C19.7112 1.11076 19.6549 1.03346 19.5824 0.972362C19.4661 0.857993 19.3107 0.789603 19.1461 0.780273C19.0685 0.780258 12.9727 3.02115 0.858649 7.50295C0.561281 7.61819 0.412598 7.82947 0.412598 8.13679C0.4514 8.43131 0.606539 8.62339 0.878015 8.71301L5.29959 10.0768L7.08372 15.3973C7.20013 15.7046 7.43281 15.8583 7.78182 15.8583C7.95021 15.8528 8.11 15.784 8.22787 15.6662L10.7295 13.3421L15.248 16.5882C15.4013 16.711 15.5929 16.7788 15.791 16.7803C16.2952 16.7803 16.6055 16.5306 16.7219 16.0312ZM16.0625 3.56539C16.0238 3.56539 12.7916 5.59501 6.36613 9.65425L7.72365 14.072L8.01449 11.2676C13.5479 6.32488 16.3179 3.8375 16.3243 3.8055C16.3295 3.7834 16.3327 3.76091 16.334 3.73828C16.334 3.62301 16.2435 3.56538 16.0625 3.56539Z" fill="#4A4A4A"/>
</svg>
