<svg width="16" height="13" viewBox="0 0 16 13" fill="none" xmlns="http://www.w3.org/2000/svg">
<path d="M13.7465 4.0076V3.62778C14.3211 3.2115 14.831 2.71578 15.2601 2.15613C14.723 2.39354 14.137 2.53592 13.5512 2.63086C14.137 2.25108 14.6254 1.72884 14.8695 1.01679C14.2773 1.35145 13.6345 1.59181 12.9652 1.72884C12.4281 1.15917 11.6469 0.826904 10.768 0.826904C9.1078 0.826904 7.74058 2.10862 7.74058 3.72277C7.74058 3.92557 7.77621 4.09374 7.81708 4.28652C7.82404 4.31933 7.83116 4.35286 7.83827 4.38739C5.34799 4.24492 3.10192 3.10558 1.63711 1.39656C1.38306 1.83018 1.24842 2.32093 1.24648 2.82075C1.24648 3.81768 1.78358 4.71965 2.56478 5.19438C2.08216 5.1926 1.60922 5.06123 1.19761 4.8146V4.86211C1.19991 5.52878 1.44036 6.17368 1.8773 6.68517C2.31423 7.19667 2.92019 7.54257 3.59025 7.66299C3.33332 7.71794 3.07178 7.74973 2.80899 7.75793C2.6124 7.76575 2.41559 7.7498 2.22303 7.71046C2.42464 8.28971 2.80575 8.79305 3.31333 9.15042C3.82096 9.50778 4.42974 9.7014 5.05506 9.70431C3.98642 10.4965 2.68471 10.9294 1.34413 10.9386C1.09897 10.9464 0.853658 10.9305 0.611694 10.8911C1.99022 11.7275 3.57963 12.1713 5.20158 12.1729C10.7191 12.1729 13.7465 7.80541 13.7465 4.0076Z" fill="white"/>
</svg>
