<svg width="20" height="16" viewBox="0 0 20 16" fill="none" xmlns="http://www.w3.org/2000/svg">
<path d="M17.4742 4.41793V3.91579C18.2339 3.36545 18.908 2.71008 19.4753 1.9702C18.7652 2.28406 17.9905 2.47229 17.216 2.59781C17.9905 2.09572 18.6361 1.4053 18.9589 0.46393C18.176 0.906371 17.3262 1.22413 16.4413 1.40529C15.7313 0.65216 14.6984 0.212891 13.5365 0.212891C11.3417 0.212891 9.53412 1.90739 9.53412 4.04137C9.53412 4.30948 9.58123 4.53181 9.63526 4.78667C9.64446 4.83005 9.65387 4.87437 9.66328 4.92003C6.371 4.73168 3.40158 3.22541 1.46503 0.96601C1.12916 1.53927 0.951158 2.18806 0.948598 2.84885C0.948598 4.16684 1.65866 5.3593 2.69145 5.98691C2.0534 5.98455 1.42815 5.81088 0.883984 5.48482V5.54763C0.887028 6.429 1.20491 7.28159 1.78256 7.95782C2.36022 8.63404 3.16132 9.09133 4.04717 9.25054C3.7075 9.32319 3.36174 9.36521 3.01431 9.37606C2.7544 9.38639 2.49422 9.36531 2.23964 9.3133C2.50619 10.0791 3.01002 10.7445 3.68107 11.217C4.35219 11.6894 5.15703 11.9454 5.98373 11.9493C4.57093 12.9965 2.85001 13.5689 1.07769 13.5811C0.753579 13.5914 0.429263 13.5704 0.109375 13.5183C1.93185 14.624 4.03313 15.2108 6.17743 15.2129C13.4719 15.2129 17.4742 9.43882 17.4742 4.41793Z" fill="#4A4A4A"/>
</svg>
