<svg width="24" height="25" viewBox="0 0 24 25" fill="none" xmlns="http://www.w3.org/2000/svg">
<circle cx="12" cy="12" r="11.25" fill="#4A4A4A" stroke="#4A4A4A" stroke-width="1.5"/>
<path d="M11.9306 16.3967C10.069 16.3988 8.28429 17.1392 6.96797 18.4555C5.65166 19.7718 4.91124 21.5566 4.90918 23.4181C4.90918 23.625 4.99137 23.8235 5.13768 23.9698C5.28399 24.1161 5.48242 24.1983 5.68933 24.1983C5.89624 24.1983 6.09468 24.1161 6.24098 23.9698C6.38729 23.8235 6.46949 23.625 6.46949 23.4181C6.46949 21.9697 7.04485 20.5807 8.069 19.5565C9.09315 18.5324 10.4822 17.957 11.9306 17.957C13.3789 17.957 14.768 18.5324 15.7921 19.5565C16.8163 20.5807 17.3916 21.9697 17.3916 23.4181C17.3916 23.625 17.4738 23.8235 17.6201 23.9698C17.7664 24.1161 17.9649 24.1983 18.1718 24.1983C18.3787 24.1983 18.5771 24.1161 18.7234 23.9698C18.8697 23.8235 18.9519 23.625 18.9519 23.4181C18.9499 21.5566 18.2095 19.7718 16.8931 18.4555C15.5768 17.1392 13.7921 16.3988 11.9306 16.3967Z" fill="white"/>
<path d="M11.9309 14.8365C12.8567 14.8365 13.7617 14.5619 14.5315 14.0476C15.3013 13.5332 15.9012 12.8022 16.2555 11.9468C16.6098 11.0915 16.7025 10.1503 16.5219 9.24233C16.3413 8.33432 15.8955 7.50026 15.2408 6.84562C14.5862 6.19098 13.7521 5.74517 12.8441 5.56455C11.9361 5.38394 10.9949 5.47664 10.1396 5.83093C9.28428 6.18521 8.55322 6.78518 8.03888 7.55495C7.52453 8.32472 7.25 9.22973 7.25 10.1555C7.25124 11.3966 7.7448 12.5865 8.62238 13.4641C9.49995 14.3416 10.6898 14.8352 11.9309 14.8365ZM11.9309 7.03492C12.5481 7.03492 13.1515 7.21794 13.6646 7.56084C14.1778 7.90373 14.5778 8.39111 14.814 8.96132C15.0502 9.53154 15.112 10.159 14.9916 10.7643C14.8712 11.3697 14.574 11.9257 14.1375 12.3621C13.7011 12.7986 13.1451 13.0958 12.5397 13.2162C11.9344 13.3366 11.3069 13.2748 10.7367 13.0386C10.1665 12.8024 9.67912 12.4024 9.33623 11.8893C8.99333 11.3761 8.81031 10.7727 8.81031 10.1555C8.81031 9.32789 9.13909 8.53415 9.72431 7.94892C10.3095 7.3637 11.1033 7.03492 11.9309 7.03492Z" fill="white"/>
<path d="M11.9859 17.3325C8.45479 17.3369 5.59329 18.7861 5.58936 22.7352C5.58936 23.1742 5.90755 23.53 6.30007 23.53L9.85512 24.0775C11.2673 24.2949 12.7044 24.2949 14.1166 24.0775L17.6716 23.53C18.0642 23.53 18.3823 23.1742 18.3823 22.7352C18.3784 18.7861 15.5169 17.3369 11.9859 17.3325Z" fill="white"/>
<path d="M11.9859 13.8275C14.0138 13.8275 15.6578 12.1835 15.6578 10.1556C15.6578 8.12762 14.0138 6.48364 11.9859 6.48364C9.95794 6.48364 8.31396 8.12762 8.31396 10.1556C8.31396 12.1835 9.95794 13.8275 11.9859 13.8275Z" fill="white"/>
</svg>
