<svg width="21" height="15" viewBox="0 0 21 15" fill="none" xmlns="http://www.w3.org/2000/svg">
<path fill-rule="evenodd" clip-rule="evenodd" d="M20.5016 11.794C20.6257 10.7164 20.6916 9.63303 20.6986 8.54856L20.6987 7.02126C20.6886 5.93689 20.6229 4.8537 20.5016 3.77579C20.5016 3.77579 20.3043 2.37586 19.7129 1.8031C19.4627 1.53648 19.1577 1.32486 18.8177 1.18226C18.4778 1.03965 18.1108 0.969297 17.741 0.975861C14.9804 0.784914 10.8396 0.784912 10.8396 0.784912C10.8396 0.784912 6.69878 0.784914 3.93824 0.975861C3.8859 0.984307 3.8254 0.991633 3.7582 0.999773C3.3193 1.05294 2.59343 1.14086 1.96646 1.8031C1.37485 2.37586 1.17763 3.77579 1.17763 3.77579C1.05337 4.85345 0.987583 5.93679 0.980469 7.02126V8.54856C0.990541 9.63293 1.05633 10.7161 1.17763 11.794C1.17763 11.794 1.37485 13.194 1.96646 13.7667C2.59519 14.4308 3.42263 14.5174 3.93028 14.5705C4.00642 14.5785 4.07538 14.5857 4.13539 14.594C5.71286 14.7213 10.8396 14.7849 10.8396 14.7849C10.8396 14.7849 14.9803 14.7849 17.741 14.594C17.7934 14.5855 17.8539 14.5782 17.9211 14.57C18.3599 14.5169 19.0858 14.4289 19.7128 13.7667C20.3043 13.194 20.5016 11.794 20.5016 11.794ZM8.80206 10.394L14.1259 7.59398L8.80206 4.79407V10.394Z" fill="#4A4A4A"/>
</svg>
