<svg width="16" height="11" viewBox="0 0 16 11" fill="none" xmlns="http://www.w3.org/2000/svg">
<path fill-rule="evenodd" clip-rule="evenodd" d="M15.2465 8.47837C15.3388 7.67779 15.3877 6.87299 15.393 6.06735L15.393 4.93273C15.3855 4.12716 15.3366 3.32247 15.2465 2.5217C15.2465 2.5217 15.1 1.4817 14.6606 1.05621C14.4748 0.858136 14.2482 0.70093 13.9956 0.594988C13.7431 0.489045 13.4705 0.436783 13.1958 0.441659C11.1449 0.299806 8.06878 0.299805 8.06878 0.299805C8.06878 0.299805 4.99259 0.299806 2.94181 0.441659C2.90293 0.447933 2.85798 0.453375 2.80806 0.459423C2.482 0.498917 1.94276 0.564239 1.47699 1.05621C1.03749 1.4817 0.890972 2.5217 0.890972 2.5217C0.798666 3.32228 0.749792 4.12709 0.744507 4.93273V6.06735C0.75199 6.87292 0.800864 7.67761 0.890972 8.47837C0.890972 8.47837 1.03749 9.51843 1.47699 9.94387C1.94407 10.4372 2.55877 10.5015 2.93589 10.541C2.99246 10.5469 3.04369 10.5523 3.08827 10.5584C4.26015 10.653 8.06873 10.7003 8.06873 10.7003C8.06873 10.7003 11.1449 10.7003 13.1958 10.5584C13.2346 10.5521 13.2796 10.5467 13.3295 10.5407C13.6555 10.5012 14.1948 10.4358 14.6606 9.94387C15.1 9.51843 15.2465 8.47837 15.2465 8.47837ZM6.5551 7.43828L10.5101 5.3582L6.5551 3.27817V7.43828Z" fill="white"/>
</svg>
