<svg width="28" height="26" viewBox="0 0 28 26" fill="none" xmlns="http://www.w3.org/2000/svg">
<path fill-rule="evenodd" clip-rule="evenodd" d="M24.0476 1.20238C24.0476 0.53833 23.5093 0 22.8452 0C22.1812 0 21.6429 0.53833 21.6429 1.20238V3.60714H19.2381C18.574 3.60714 18.0357 4.14547 18.0357 4.80952C18.0357 5.47358 18.574 6.01191 19.2381 6.01191H21.6429V8.41667C21.6429 9.08072 22.1812 9.61905 22.8452 9.61905C23.5093 9.61905 24.0476 9.08072 24.0476 8.41667V6.01191H26.4524C27.1165 6.01191 27.6548 5.47358 27.6548 4.80952C27.6548 4.14547 27.1165 3.60714 26.4524 3.60714H24.0476V1.20238ZM10.0139 3.60714C9.05727 3.60714 8.13978 3.98718 7.46331 4.66365L6.46722 5.65974C6.24173 5.88522 5.9359 6.0119 5.61701 6.0119H3.60714C1.61498 6.0119 0 7.62688 0 9.61905V21.6429C0 23.6351 1.61498 25.25 3.60714 25.25H20.4405C22.4327 25.25 24.0476 23.6351 24.0476 21.6429V13.2262C24.0476 12.5621 23.5093 12.0238 22.8452 12.0238C22.1812 12.0238 21.6429 12.5621 21.6429 13.2262V21.6429C21.6429 22.3069 21.1045 22.8452 20.4405 22.8452H3.60714C2.94309 22.8452 2.40476 22.3069 2.40476 21.6429V9.61905C2.40476 8.955 2.94309 8.41667 3.60714 8.41667H5.61701C6.57368 8.41667 7.49117 8.03663 8.16764 7.36016L9.16373 6.36407C9.38922 6.13859 9.69505 6.0119 10.0139 6.0119H14.4286C15.0926 6.0119 15.631 5.47357 15.631 4.80952C15.631 4.14547 15.0926 3.60714 14.4286 3.60714H10.0139ZM12.0238 9.61905C8.70353 9.61905 6.0119 12.3107 6.0119 15.631C6.0119 18.9512 8.70353 21.6429 12.0238 21.6429C15.3441 21.6429 18.0357 18.9512 18.0357 15.631C18.0357 12.3107 15.3441 9.61905 12.0238 9.61905ZM8.41667 15.631C8.41667 13.6387 10.0316 12.0238 12.0238 12.0238C14.016 12.0238 15.631 13.6387 15.631 15.631C15.631 17.6232 14.016 19.2381 12.0238 19.2381C10.0316 19.2381 8.41667 17.6232 8.41667 15.631Z" fill="#444444"/>
</svg>
