<svg width="14" height="14" viewBox="0 0 14 14" fill="none" xmlns="http://www.w3.org/2000/svg">
<path fill-rule="evenodd" clip-rule="evenodd" d="M1.82933 14H12.1707C12.6558 14 13.1211 13.8073 13.4642 13.4642C13.8073 13.1211 14 12.6558 14 12.1707V1.82933C14 1.34416 13.8073 0.878866 13.4642 0.535799C13.1211 0.192733 12.6558 0 12.1707 0H1.82933C1.34416 0 0.878866 0.192733 0.535799 0.535799C0.192733 0.878866 0 1.34416 0 1.82933V12.1707C0 12.6558 0.192733 13.1211 0.535799 13.4642C0.878866 13.8073 1.34416 14 1.82933 14ZM1.19577 1.19577C1.3638 1.02773 1.5917 0.933333 1.82933 0.933333H12.1707C12.2883 0.933333 12.4048 0.956509 12.5136 1.00154C12.6223 1.04657 12.721 1.11256 12.8042 1.19577C12.8874 1.27897 12.9534 1.37774 12.9985 1.48645C13.0435 1.59516 13.0667 1.71167 13.0667 1.82933V7.56265L11.7829 6.267C11.685 6.16624 11.5673 6.08685 11.4371 6.03384C11.307 5.98083 11.1674 5.95535 11.0269 5.959C10.8865 5.96074 10.7479 5.99101 10.6195 6.04797C10.4912 6.10492 10.3757 6.18738 10.2802 6.29033L8.94557 7.71367L6.06623 4.63833C5.88901 4.44821 5.64706 4.33128 5.38798 4.31055C5.12889 4.28982 4.87143 4.3668 4.66623 4.52633L0.933333 7.44875V1.82933C0.933333 1.5917 1.02773 1.3638 1.19577 1.19577ZM9.02055 5.054C9.53601 5.054 9.95388 4.63613 9.95388 4.12066C9.95388 3.6052 9.53601 3.18733 9.02055 3.18733C8.50508 3.18733 8.08721 3.6052 8.08721 4.12066C8.08721 4.63613 8.50508 5.054 9.02055 5.054Z" fill="white"/>
</svg>
