<svg width="17" height="18" viewBox="0 0 17 18" fill="none" xmlns="http://www.w3.org/2000/svg">
<path d="M2.34077 17.6538H14.6592C15.9506 17.6538 17 16.6044 17 15.3131V3.64844C17 2.3571 15.9506 1.30767 14.6592 1.30767H13.7308V0.653834C13.7308 0.294214 13.4365 0 13.0769 0C12.7173 0 12.4231 0.294214 12.4231 0.653834V1.30767H4.57694V0.653834C4.57694 0.294214 4.28268 0 3.92306 0C3.56344 0 3.26922 0.294214 3.26922 0.653834V1.30767H2.34077C1.04943 1.30767 0 2.3571 0 3.64844V15.3131C0 16.6044 1.04943 17.6538 2.34077 17.6538ZM1.30772 3.64844C1.30772 3.07961 1.77195 2.61539 2.34077 2.61539H3.26922V3.26922C3.26922 3.62884 3.56344 3.92306 3.92306 3.92306C4.28268 3.92306 4.57689 3.62884 4.57689 3.26922V2.61539H12.4231V3.26922C12.4231 3.62884 12.7173 3.92306 13.0769 3.92306C13.4365 3.92306 13.7307 3.62884 13.7307 3.26922V2.61539H14.6592C15.228 2.61539 15.6922 3.07961 15.6922 3.64844V5.55769H1.30772V3.64844ZM1.30772 6.86536H15.6923V15.3131C15.6923 15.8819 15.2281 16.3461 14.6593 16.3461H2.34077C1.77195 16.3461 1.30772 15.8819 1.30772 15.3131V6.86536Z" fill="#C3C7CE"/>
</svg>
