<svg width="11" height="13" viewBox="0 0 11 13" fill="none" xmlns="http://www.w3.org/2000/svg">
<path d="M0.322978 2.15015C0.0916031 2.3917 -0.0191412 2.694 0.00270671 3.02433L0.590342 11.9075C0.630924 12.5201 1.1541 13 1.78147 13H9.21856C9.84592 13 10.3691 12.5201 10.4096 11.9075L10.9973 3.02433C11.0191 2.694 10.9084 2.3917 10.677 2.15013C10.4456 1.90859 10.1445 1.78092 9.80617 1.78092H1.19383C0.855526 1.78092 0.554378 1.90859 0.322978 2.15015ZM10.0712 2.70575C10.1457 2.7835 10.1757 2.86554 10.1687 2.97182L9.58105 11.855C9.5687 12.0414 9.40951 12.1875 9.21856 12.1875H1.78147C1.59054 12.1875 1.4313 12.0414 1.41895 11.855L0.831317 2.97185C0.824285 2.86554 0.854358 2.7835 0.928776 2.70578C1.00322 2.62806 1.08498 2.5934 1.19383 2.5934H9.8062C9.91505 2.59342 9.99681 2.62808 10.0712 2.70575ZM8.35165 0C8.58095 0 8.76681 0.181873 8.76681 0.40625C8.76681 0.630627 8.58095 0.8125 8.35165 0.8125H2.97038C2.74108 0.8125 2.55522 0.630627 2.55522 0.40625C2.55522 0.181873 2.74108 0 2.97038 0H8.35165ZM2.63732 10.266V4.51486C2.63732 4.29048 2.82318 4.10861 3.05248 4.10861C3.28178 4.10861 3.46764 4.29048 3.46764 4.51486V10.266C3.46764 10.4904 3.28178 10.6723 3.05248 10.6723C2.82318 10.6723 2.63732 10.4904 2.63732 10.266ZM5.08485 10.266V4.51486C5.08485 4.29048 5.27071 4.10861 5.50001 4.10861C5.72931 4.10861 5.91517 4.29048 5.91517 4.51486V10.266C5.91517 10.4904 5.72931 10.6723 5.50001 10.6723C5.27071 10.6723 5.08485 10.4904 5.08485 10.266ZM7.53238 10.266V4.51486C7.53238 4.29048 7.71825 4.10861 7.94754 4.10861C8.17684 4.10861 8.36271 4.29048 8.36271 4.51486V10.266C8.36271 10.4904 8.17684 10.6723 7.94754 10.6723C7.71825 10.6723 7.53238 10.4904 7.53238 10.266Z" fill="black"/>
</svg>
