<svg width="22" height="22" viewBox="0 0 22 22" fill="none" xmlns="http://www.w3.org/2000/svg">
<path fill-rule="evenodd" clip-rule="evenodd" d="M0 11C0 4.9345 4.9345 0 11 0C17.0655 0 22 4.9345 22 11C22 17.0655 17.0655 22 11 22C4.9345 22 0 17.0655 0 11ZM2.40437 11C2.40437 15.7398 6.26025 19.5956 11 19.5956C15.7398 19.5956 19.5956 15.7398 19.5956 11C19.5956 6.26048 15.7398 2.40437 11 2.40437C6.26025 2.40437 2.40437 6.26048 2.40437 11ZM11.952 6.40294V11.0133L15.1498 14.2109C15.5139 14.5747 15.5136 15.1648 15.1498 15.5288C14.7861 15.8928 14.196 15.8928 13.832 15.5288L10.3613 12.0583C10.1677 11.8647 10.0804 11.6075 10.0927 11.3541C10.0924 11.3475 10.0915 11.3411 10.0906 11.3348C10.0895 11.3269 10.0884 11.3191 10.0884 11.311V6.40294C10.0884 5.88816 10.5056 5.47101 11.0203 5.47101C11.5349 5.47101 11.952 5.88816 11.952 6.40294Z" fill="#333333"/>
</svg>
