<svg width="22" height="23" viewBox="0 0 22 23" fill="none" xmlns="http://www.w3.org/2000/svg">
<path d="M12.2357 17.5152C10.9596 18.6697 9.55336 19.6717 8.04539 20.5008C7.64032 20.7382 7.22129 20.9582 6.7883 21.1608C5.22683 20.5134 3.83538 19.5153 2.72177 18.2436C1.60817 16.9719 0.802311 15.461 0.366659 13.8277C0.806641 14.1001 1.26757 14.362 1.72851 14.6029C4.96582 16.3552 8.55822 17.3509 12.2357 17.5152ZM5.95024 15.3153C4.2655 12.0718 3.32771 8.49245 3.20559 4.83954C3.20559 4.31575 3.20559 3.79196 3.20559 3.27865C1.16168 5.3294 0.00970683 8.10393 8.22307e-06 10.9993C-0.000584945 11.4758 0.0309135 11.9517 0.0942899 12.424C0.485385 12.6894 0.883464 12.9408 1.28853 13.1782C2.75909 14.0669 4.32673 14.7839 5.96071 15.3153H5.95024ZM12.4347 1.15207C12.8852 0.879701 13.3461 0.607331 13.8175 0.366389C12.1935 -0.0640378 10.4923 -0.115978 8.84502 0.214569C7.19774 0.545115 5.64829 1.24933 4.31602 2.27298C4.31602 2.74439 4.25316 3.21579 4.24269 3.6872C4.21902 5.40415 4.38413 7.1185 4.73505 8.79937C6.69777 5.70682 9.32885 3.09364 12.4347 1.15207ZM20.2601 7.33277C20.721 7.57371 21.182 7.8356 21.622 8.10797C21.1863 6.47474 20.3805 4.96376 19.2669 3.6921C18.1532 2.42045 16.7618 1.42228 15.2003 0.774944C14.7673 0.977475 14.3483 1.19747 13.9432 1.43492C12.4366 2.26608 11.0306 3.26786 9.75294 4.42051C13.4304 4.58477 17.0228 5.58047 20.2601 7.33277ZM18.783 18.7618C20.841 16.7025 21.9977 13.9107 21.9991 10.9993C21.9997 10.5228 21.9682 10.0468 21.9048 9.57458C21.5137 9.31617 21.1156 9.06476 20.7106 8.82032C19.2381 7.94619 17.6705 7.24325 16.0384 6.72517C17.7231 9.96868 18.6609 13.548 18.783 17.2009C18.8564 17.7247 18.8564 18.2485 18.783 18.7618ZM9.56437 20.857C9.11391 21.1293 8.65298 21.4017 8.18157 21.6426C9.80562 22.0731 11.5068 22.125 13.1541 21.7945C14.8014 21.4639 16.3508 20.7597 17.6831 19.7361C17.6831 19.2646 17.7459 18.7932 17.7564 18.3218C17.7801 16.6049 17.615 14.8905 17.264 13.2097C15.3001 16.2984 12.6691 18.9079 9.56437 20.8465V20.857Z" fill="#333333"/>
</svg>
