<svg width="16" height="16" viewBox="0 0 16 16" fill="none" xmlns="http://www.w3.org/2000/svg">
<path d="M16 0.533333V5.33333C16 5.62813 15.7615 5.86667 15.4667 5.86667C15.1719 5.86667 14.9333 5.62813 14.9333 5.33333V1.8208L7.3104 9.44373C7.20627 9.54787 7.06973 9.6 6.93333 9.6C6.79693 9.6 6.6604 9.54787 6.55627 9.44373C6.34787 9.23533 6.34787 8.89787 6.55627 8.6896L14.1792 1.06667H10.6667C10.3719 1.06667 10.1333 0.828133 10.1333 0.533333C10.1333 0.238533 10.3719 0 10.6667 0H15.4667C15.7615 0 16 0.238533 16 0.533333ZM13.8667 14.4V8C13.8667 7.7052 13.6281 7.46667 13.3333 7.46667C13.0385 7.46667 12.8 7.7052 12.8 8V14.4C12.8 14.6943 12.5609 14.9333 12.2667 14.9333H1.6C1.30573 14.9333 1.06667 14.6943 1.06667 14.4V3.73333C1.06667 3.43907 1.30573 3.2 1.6 3.2H8C8.2948 3.2 8.53333 2.96147 8.53333 2.66667C8.53333 2.37187 8.2948 2.13333 8 2.13333H1.6C0.717733 2.13333 0 2.85107 0 3.73333V14.4C0 15.2823 0.717733 16 1.6 16H12.2667C13.1489 16 13.8667 15.2823 13.8667 14.4Z" fill="black"/>
</svg>
