<svg width="15" height="14" viewBox="0 0 15 14" fill="none" xmlns="http://www.w3.org/2000/svg">
<path d="M13.4343 1.29269C12.618 0.47638 11.5259 0.0268555 10.3587 0.0268555C9.35381 0.0268555 8.40463 0.360119 7.63911 0.973656C6.86258 0.360119 5.91222 0.0268555 4.91717 0.0268555C3.74458 0.0268555 2.64951 0.476573 1.83322 1.29269C1.01691 2.10884 0.567383 3.20121 0.567383 4.36821C0.567383 5.53537 1.01691 6.62758 1.83322 7.4437L7.26625 12.8767C7.36526 12.9759 7.49525 13.0255 7.62524 13.0255C7.7549 13.0255 7.88453 12.9761 7.98373 12.8774L13.4211 7.45654C14.2351 6.62435 14.6831 5.53063 14.6831 4.37667C14.6831 3.21204 14.241 2.11832 13.4343 1.29269ZM12.6996 6.7418L7.62573 11.8001L2.55119 6.72573C1.92682 6.10119 1.58289 5.26389 1.58289 4.36821C1.58289 3.47252 1.92682 2.63523 2.55119 2.01069C3.17573 1.38632 4.01592 1.04239 4.91717 1.04239C5.80406 1.04239 6.64593 1.38784 7.28723 2.01474C7.48593 2.20922 7.80463 2.20751 8.00115 2.01069C8.62569 1.38632 9.46282 1.04239 10.3587 1.04239C11.2545 1.04239 12.0916 1.38632 12.712 2.00661C13.3282 2.63708 13.6676 3.47878 13.6676 4.37667C13.6676 5.26373 13.3223 6.10541 12.6996 6.7418Z" fill="white"/>
</svg>
