<svg width="19" height="18" viewBox="0 0 19 18" fill="none" xmlns="http://www.w3.org/2000/svg">
<path d="M16.9701 1.6695C15.8934 0.592872 14.453 0 12.9136 0C11.5883 0 10.3364 0.439536 9.3268 1.24872C8.30264 0.439536 7.04923 0 5.73688 0C4.19036 0 2.74608 0.593126 1.6695 1.6695C0.592872 2.7459 0 4.18661 0 5.72575C0 7.26511 0.592872 8.7056 1.6695 9.78197L8.83505 16.9475C8.96562 17.0784 9.13706 17.1437 9.30851 17.1437C9.47952 17.1437 9.65049 17.0785 9.78132 16.9484L16.9526 9.79891C18.0261 8.70135 18.617 7.25885 18.617 5.73691C18.617 4.2009 18.034 2.75841 16.9701 1.6695ZM16.001 8.85625L9.30916 15.5276L2.61642 8.83505C1.79294 8.01135 1.33933 6.90706 1.33933 5.72575C1.33933 4.54444 1.79294 3.44015 2.61642 2.61645C3.44011 1.79298 4.54822 1.33937 5.73688 1.33937C6.90659 1.33937 8.01692 1.79498 8.86272 2.6218C9.12477 2.87829 9.54511 2.87604 9.8043 2.61645C10.628 1.79298 11.7321 1.33937 12.9136 1.33937C14.0951 1.33937 15.1992 1.79298 16.0173 2.61107C16.8301 3.44258 17.2776 4.5527 17.2776 5.73691C17.2776 6.90684 16.8223 8.01692 16.001 8.85625Z" fill="black"/>
</svg>
