<svg width="16" height="15" viewBox="0 0 16 15" fill="none" xmlns="http://www.w3.org/2000/svg">
<path fill-rule="evenodd" clip-rule="evenodd" d="M14.4266 14.7523C14.5082 14.8349 14.6196 14.8812 14.7356 14.8806C14.8517 14.8812 14.9631 14.8349 15.0447 14.7523C15.2152 14.5816 15.2152 14.305 15.0447 14.1342L1.04968 0.139189C1.04268 0.131681 1.03539 0.124392 1.02789 0.117395C0.851163 -0.0472656 0.574434 -0.0375347 0.409773 0.139189C0.245113 0.315913 0.254844 0.592642 0.431568 0.757302L2.66181 2.98754C1.51738 3.91672 0.650279 5.14426 0.157499 6.53608C-0.0524996 7.12434 -0.0524996 7.76717 0.157499 8.35543C1.28956 11.5706 4.32947 13.7196 7.73814 13.7144C9.26381 13.7062 10.7552 13.261 12.0358 12.4315C12.0496 12.4219 12.0628 12.4117 12.0752 12.4009L14.4266 14.7523ZM11.4651 11.7908L9.77879 10.1045C9.76959 10.1127 9.75996 10.1206 9.74992 10.1281C9.17051 10.5653 8.46394 10.8008 7.73813 10.7987C5.88635 10.7987 4.38516 9.29754 4.38516 7.44575C4.38516 6.72027 4.62045 6.01436 5.05576 5.43397C5.06328 5.42392 5.07115 5.41429 5.07935 5.40508L3.27855 3.60429C3.26399 3.61205 3.24893 3.61902 3.23344 3.62512C2.20065 4.4629 1.4201 5.5714 0.979706 6.82764C0.83972 7.22781 0.83972 7.6637 0.979706 8.06387C2.28179 11.7879 6.35627 13.7513 10.0803 12.4493C10.5643 12.2801 11.0286 12.0592 11.4651 11.7908ZM5.7038 6.02953C5.41261 6.44338 5.25702 6.93831 5.25985 7.44575C5.26306 8.81315 6.37074 9.92083 7.73813 9.92404C8.24558 9.92686 8.74051 9.77128 9.15435 9.48009L5.7038 6.02953ZM13.2895 10.8745C13.3673 10.9417 13.4666 10.979 13.5694 10.9795C13.7054 10.9821 13.8356 10.9245 13.9251 10.8221C14.5324 10.0891 15.0043 9.25385 15.3188 8.35543C15.5288 7.76717 15.5288 7.12434 15.3188 6.53608C15.2683 6.39245 15.2137 6.25031 15.1551 6.10978C13.4481 2.01682 8.74636 0.0825163 4.6534 1.78944C4.42959 1.88284 4.32382 2.14 4.41723 2.36381C4.51064 2.58763 4.7678 2.69339 4.99161 2.59998C5.11363 2.54928 5.23703 2.50194 5.36168 2.45806C9.08599 1.14698 13.168 3.10333 14.4791 6.82764C14.6191 7.22781 14.6191 7.6637 14.4791 8.06387C14.1992 8.86596 13.7764 9.61076 13.2312 10.2623C13.0796 10.4479 13.1056 10.7209 13.2895 10.8745ZM10.5954 8.46622C10.5666 8.47187 10.5368 8.47187 10.508 8.46622C10.2742 8.4199 10.1222 8.19288 10.1685 7.95909L10.1698 7.95307C10.2 7.78958 10.2156 7.62368 10.2164 7.45742C10.2196 6.08547 9.11008 4.97068 7.73813 4.96747C7.57187 4.96827 7.40597 4.98387 7.24248 5.01412C7.01283 5.08902 6.76599 4.96357 6.69109 4.73393C6.6162 4.50429 6.74164 4.25744 6.97129 4.18255C7.00252 4.17234 7.03481 4.16571 7.06754 4.16276C7.28803 4.11611 7.51276 4.09264 7.73813 4.09278C9.58861 4.09599 11.0879 5.59528 11.0911 7.44575C11.0903 7.67077 11.0688 7.89523 11.027 8.11635C10.9812 8.31866 10.8028 8.46327 10.5954 8.46622Z" fill="black"/>
</svg>
