<svg width="21" height="21" viewBox="0 0 21 21" fill="none" xmlns="http://www.w3.org/2000/svg">
<path fill-rule="evenodd" clip-rule="evenodd" d="M15.75 0H5.25C2.31 0 0 2.31 0 5.25V15.75C0 18.69 2.31 21 5.25 21H15.75C18.69 21 21 18.69 21 15.75V5.25C21 2.31 18.69 0 15.75 0ZM18.9 15.75C18.9 17.535 17.535 18.9 15.75 18.9H5.25C3.465 18.9 2.1 17.535 2.1 15.75V5.25C2.1 3.465 3.465 2.1 5.25 2.1H15.75C17.535 2.1 18.9 3.465 18.9 5.25V15.75ZM10.5 5.25C7.56 5.25 5.25 7.56 5.25 10.5C5.25 13.44 7.56 15.75 10.5 15.75C13.44 15.75 15.75 13.44 15.75 10.5C15.75 7.56 13.44 5.25 10.5 5.25ZM10.5 13.65C8.715 13.65 7.35 12.285 7.35 10.5C7.35 8.715 8.715 7.35 10.5 7.35C12.285 7.35 13.65 8.715 13.65 10.5C13.65 12.285 12.285 13.65 10.5 13.65ZM16.8 5.25011C16.8 5.83001 16.3299 6.30011 15.75 6.30011C15.1701 6.30011 14.7 5.83001 14.7 5.25011C14.7 4.67021 15.1701 4.20011 15.75 4.20011C16.3299 4.20011 16.8 4.67021 16.8 5.25011Z" fill="url(#paint0_linear_258_260)" fill-opacity="0.6"/>
<defs>
<linearGradient id="paint0_linear_258_260" x1="10.5" y1="0" x2="10.5" y2="21" gradientUnits="userSpaceOnUse">
<stop stop-color="#C837AC"/>
<stop offset="1" stop-color="#FD9848"/>
</linearGradient>
</defs>
</svg>
