<svg width="10" height="19" viewBox="0 0 10 19" fill="none" xmlns="http://www.w3.org/2000/svg">
<path d="M10 4.82178C10 2.16305 7.75702 0 5.00003 0C2.24303 0 0 2.16305 0 4.82178C0 7.07983 1.61793 8.97997 3.79447 9.50155V17.8375C3.79447 18.4785 4.33528 19 4.99998 19C5.66268 19 6.202 18.4817 6.20533 17.8434H6.90005C7.36976 17.8434 7.75185 17.4749 7.75185 17.0219C7.75185 16.5689 7.36971 16.2004 6.90005 16.2004H6.20553V15.6151C6.24947 15.6219 6.29423 15.6264 6.34011 15.6264H7.52295C7.99267 15.6264 8.37476 15.2579 8.37476 14.8049C8.37476 14.3519 7.99261 13.9835 7.52295 13.9835H6.34011C6.29423 13.9835 6.24947 13.988 6.20553 13.9948V9.5016C8.38207 8.98002 10 7.07983 10 4.82178ZM5.00003 5.17679C3.92664 5.17679 3.05653 4.33764 3.05653 3.30256C3.05653 2.26747 3.92669 1.42832 5.00003 1.42832C6.07336 1.42832 6.94353 2.26747 6.94353 3.30256C6.94353 4.33764 6.07341 5.17679 5.00003 5.17679Z" fill="#333333"/>
</svg>
