<svg width="3" height="17" viewBox="0 0 3 17" fill="none" xmlns="http://www.w3.org/2000/svg">
<path d="M1.16667 2.33333C1.811 2.33333 2.33334 1.811 2.33334 1.16667C2.33334 0.522334 1.811 0 1.16667 0C0.522335 0 0 0.522334 0 1.16667C0 1.811 0.522335 2.33333 1.16667 2.33333Z" fill="#555555"/>
<path d="M1.16667 9.58334C1.811 9.58334 2.33334 9.061 2.33334 8.41667C2.33334 7.77233 1.811 7.25 1.16667 7.25C0.522335 7.25 0 7.77233 0 8.41667C0 9.061 0.522335 9.58334 1.16667 9.58334Z" fill="#555555"/>
<path d="M1.16667 16.5833C1.811 16.5833 2.33334 16.061 2.33334 15.4167C2.33334 14.7723 1.811 14.25 1.16667 14.25C0.522335 14.25 0 14.7723 0 15.4167C0 16.061 0.522335 16.5833 1.16667 16.5833Z" fill="#555555"/>
</svg>
