<svg width="26" height="26" viewBox="0 0 26 26" fill="none" xmlns="http://www.w3.org/2000/svg">
<path fill-rule="evenodd" clip-rule="evenodd" d="M13 0C16.4724 0 19.737 1.3522 22.1924 3.80758C24.6477 6.263 26 9.52763 26 13C26 16.4724 24.6477 19.737 22.1924 22.1924C19.737 24.6478 16.4724 26 13 26C9.52758 26 6.263 24.6477 3.80763 22.1924C1.35225 19.737 0 16.4724 0 13C0 9.52763 1.35225 6.263 3.80758 3.80758C6.263 1.3522 9.52758 0 13 0ZM13 24.4766C16.0655 24.4766 18.9475 23.2828 21.1152 21.1152C23.2828 18.9475 24.4766 16.0655 24.4766 13C24.4766 9.93454 23.2828 7.0525 21.1152 4.8848C18.9475 2.7172 16.0655 1.52344 13 1.52344C9.93449 1.52344 7.0525 2.7172 4.88485 4.8848C2.7172 7.0525 1.52344 9.93454 1.52344 13C1.52344 16.0655 2.7172 18.9475 4.88485 21.1151C7.0525 23.2828 9.93449 24.4766 13 24.4766ZM9.64844 6.30847H14.297C16.7739 6.30847 18.7891 8.32362 18.7891 10.8005V10.957C18.7891 13.4339 16.7739 15.449 14.297 15.449H11.1719V19.6914H9.64844V6.30847ZM14.297 13.9257C15.9339 13.9257 17.2656 12.5939 17.2656 10.957V10.8005C17.2656 9.16365 15.9339 7.83191 14.297 7.83191H11.1719V13.9257H14.297Z" fill="#EB7D5A"/>
</svg>
