<svg width="17" height="17" viewBox="0 0 17 17" fill="none" xmlns="http://www.w3.org/2000/svg">
<path fill-rule="evenodd" clip-rule="evenodd" d="M8.5 0C10.7704 0 12.905 0.884133 14.5104 2.48957C16.1158 4.09504 17 6.2296 17 8.5C17 10.7704 16.1158 12.905 14.5104 14.5104C12.905 16.1159 10.7704 17 8.5 17C6.22957 17 4.09504 16.1158 2.4896 14.5104C0.884166 12.905 0 10.7704 0 8.5C0 6.2296 0.884166 4.09504 2.48957 2.48957C4.09504 0.884133 6.22957 0 8.5 0ZM8.5 16.0039C10.5043 16.0039 12.3888 15.2234 13.8061 13.8061C15.2234 12.3888 16.0039 10.5043 16.0039 8.5C16.0039 6.49566 15.2234 4.61125 13.8061 3.19391C12.3888 1.77663 10.5043 0.996094 8.5 0.996094C6.49563 0.996094 4.61125 1.77663 3.19394 3.19391C1.77663 4.61125 0.996094 6.49566 0.996094 8.5C0.996094 10.5043 1.77663 12.3888 3.19394 13.8061C4.61125 15.2234 6.49563 16.0039 8.5 16.0039ZM6.30859 4.12494H9.34801C10.9676 4.12494 12.2852 5.44254 12.2852 7.06202V7.16435C12.2852 8.78387 10.9676 10.1015 9.34801 10.1015H7.30469V12.8753H6.30859V4.12494ZM9.34801 9.10541C10.4183 9.10541 11.2891 8.23466 11.2891 7.16439V7.06205C11.2891 5.99178 10.4183 5.12103 9.34801 5.12103H7.30469V9.10541H9.34801Z" fill="#2A2A2A"/>
</svg>
