<svg width="22" height="21" viewBox="0 0 22 21" fill="none" xmlns="http://www.w3.org/2000/svg">
<path fill-rule="evenodd" clip-rule="evenodd" d="M0.00160703 5.6C0.00160703 2.5123 2.20031 0 4.90161 0C7.60291 0 9.80161 2.5123 9.80161 5.6C9.82568 6.61545 9.579 7.61899 9.08692 8.50757C8.59484 9.39614 7.87509 10.1377 7.00161 10.6561V18.9C7.00161 19.457 6.78036 19.9911 6.38653 20.3849C5.99271 20.7788 5.45856 21 4.90161 21C4.34465 21 3.81051 20.7788 3.41668 20.3849C3.02286 19.9911 2.80161 19.457 2.80161 18.9V10.6561C1.92812 10.1377 1.20837 9.39614 0.716293 8.50757C0.224212 7.61899 -0.022462 6.61545 0.00160703 5.6ZM5.71975 9.82605C5.79676 9.71092 5.9062 9.62121 6.03421 9.5683C6.7721 9.20889 7.38911 8.64202 7.80962 7.93715C8.23012 7.23229 8.43586 6.42005 8.40161 5.6C8.40161 3.2837 6.83151 1.4 4.90161 1.4C2.97171 1.4 1.40161 3.2837 1.40161 5.6C1.36736 6.42005 1.57309 7.23229 1.9936 7.93715C2.41411 8.64202 3.03112 9.20889 3.76901 9.5683C3.89702 9.62121 4.00645 9.71092 4.08346 9.82605C4.16047 9.94119 4.20158 10.0766 4.20161 10.2151V18.9C4.20161 19.0857 4.27536 19.2637 4.40663 19.395C4.53791 19.5263 4.71596 19.6 4.90161 19.6C5.08726 19.6 5.26531 19.5263 5.39658 19.395C5.52786 19.2637 5.60161 19.0857 5.60161 18.9V10.2151C5.60163 10.0766 5.64275 9.94119 5.71975 9.82605ZM19.8066 0.205025C19.9379 0.0737498 20.116 0 20.3016 0C20.4873 0 20.6653 0.0737498 20.7966 0.205025C20.9279 0.336301 21.0016 0.514349 21.0016 0.7V7.7C21.0007 8.50658 20.7217 9.28818 20.2117 9.913C19.7016 10.5378 18.9917 10.9677 18.2016 11.13V18.9C18.2016 19.457 17.9804 19.9911 17.5865 20.3849C17.1927 20.7788 16.6586 21 16.1016 21C15.5447 21 15.0105 20.7788 14.6167 20.3849C14.2229 19.9911 14.0016 19.457 14.0016 18.9V11.13C13.2116 10.9677 12.5016 10.5378 11.9916 9.913C11.4815 9.28818 11.2025 8.50658 11.2016 7.7V0.7C11.2016 0.514349 11.2754 0.336301 11.4066 0.205025C11.5379 0.0737498 11.716 0 11.9016 0C12.0873 0 12.2653 0.0737498 12.3966 0.205025C12.5279 0.336301 12.6016 0.514349 12.6016 0.7V7.7C12.6016 8.25696 12.8229 8.7911 13.2167 9.18493C13.6105 9.57875 14.1447 9.8 14.7016 9.8C14.8873 9.8 15.0653 9.87375 15.1966 10.005C15.3279 10.1363 15.4016 10.3143 15.4016 10.5V18.9C15.4016 19.0857 15.4754 19.2637 15.6066 19.395C15.7379 19.5263 15.916 19.6 16.1016 19.6C16.2873 19.6 16.4653 19.5263 16.5966 19.395C16.7279 19.2637 16.8016 19.0857 16.8016 18.9V10.5C16.8016 10.3143 16.8754 10.1363 17.0066 10.005C17.1379 9.87375 17.316 9.8 17.5016 9.8C18.0586 9.8 18.5927 9.57875 18.9865 9.18493C19.3804 8.7911 19.6016 8.25696 19.6016 7.7V0.7C19.6016 0.514349 19.6754 0.336301 19.8066 0.205025ZM14.7016 8.4C14.8873 8.4 15.0653 8.32625 15.1966 8.19498C15.3279 8.0637 15.4016 7.88565 15.4016 7.7V0.7C15.4016 0.514349 15.3279 0.336301 15.1966 0.205025C15.0653 0.0737498 14.8873 0 14.7016 0C14.516 0 14.3379 0.0737498 14.2066 0.205025C14.0754 0.336301 14.0016 0.514349 14.0016 0.7V7.7C14.0016 7.88565 14.0754 8.0637 14.2066 8.19498C14.3379 8.32625 14.516 8.4 14.7016 8.4ZM17.9966 8.19498C17.8653 8.32625 17.6873 8.4 17.5016 8.4C17.316 8.4 17.1379 8.32625 17.0067 8.19498C16.8754 8.0637 16.8016 7.88565 16.8016 7.7V0.7C16.8016 0.514349 16.8754 0.336301 17.0067 0.205025C17.1379 0.0737498 17.316 0 17.5016 0C17.6873 0 17.8653 0.0737498 17.9966 0.205025C18.1279 0.336301 18.2016 0.514349 18.2016 0.7V7.7C18.2016 7.88565 18.1279 8.0637 17.9966 8.19498Z" fill="#EB7D5A"/>
</svg>
