<svg width="15" height="20" viewBox="0 0 15 20" fill="none" xmlns="http://www.w3.org/2000/svg">
<path fill-rule="evenodd" clip-rule="evenodd" d="M0 4.56558C0 2.70948 1.47282 0 3.42418 0C5.37563 0 6.84837 2.70838 6.84837 4.56558C6.84837 6.04951 5.89409 7.31756 4.56558 7.7904V18.3348C4.56558 18.9641 4.05355 19.4762 3.42418 19.4762C2.79482 19.4762 2.28279 18.9641 2.28279 18.3348V7.7904C0.954282 7.31752 0 6.04951 0 4.56558ZM13.126 0.57085C13.126 0.255672 13.3816 0.000152186 13.6967 0.000152186C14.0119 0.000152186 14.2674 0.255672 14.2674 0.57085V6.27782C14.2674 7.22187 13.4994 7.98992 12.5553 7.98992V18.3348C12.5553 18.9641 12.0433 19.4762 11.414 19.4762C10.7846 19.4762 10.2726 18.9641 10.2726 18.3348V7.98992C9.32851 7.98992 8.56046 7.22187 8.56046 6.27782V0.57085C8.56046 0.255672 8.81598 0.000152186 9.13116 0.000152186C9.44634 0.000152186 9.70186 0.255672 9.70186 0.57085V4.56573H10.8433V0.570698C10.8433 0.25552 11.0988 0 11.414 0C11.7291 0 11.9846 0.25552 11.9846 0.570698V4.56573H13.126V0.57085Z" fill="#333333"/>
</svg>
