<svg width="23" height="23" viewBox="0 0 23 23" fill="none" xmlns="http://www.w3.org/2000/svg">
<path fill-rule="evenodd" clip-rule="evenodd" d="M21.63 12.2188H22.3263C22.6985 12.2188 23.0002 12.5205 23.0002 12.8927C23.0002 13.2648 22.6985 13.5665 22.3263 13.5665H0.673833C0.301698 13.5665 0 13.2648 0 12.8927C0 12.5205 0.301698 12.2188 0.673833 12.2188H1.37062C1.68306 7.50556 5.25707 3.68528 9.70796 2.86361C9.58991 2.60706 9.52351 2.32194 9.52351 2.0215C9.52351 0.906845 10.4304 0 11.545 0C12.6597 0 13.5665 0.906845 13.5665 2.0215C13.5665 2.3223 13.5 2.60774 13.3817 2.86451C17.8335 3.69184 21.3244 7.5225 21.63 12.2188ZM12.2188 2.0215C12.2188 1.64995 11.9166 1.34767 11.545 1.34767C11.1735 1.34767 10.8712 1.64995 10.8712 2.0215C10.8712 2.39305 11.1735 2.69533 11.545 2.69533C11.9166 2.69533 12.2188 2.39305 12.2188 2.0215ZM11.545 4.03402C6.97436 4.03402 3.07955 7.72218 2.72211 12.2188H20.2796C19.9377 7.65268 16.1508 4.03402 11.545 4.03402ZM18.2017 15.5066C18.9898 14.7183 20.2722 14.7184 21.0603 15.5065C21.8484 16.2946 21.8484 17.577 21.0603 18.3651L17.0173 22.4081C16.6355 22.79 16.1278 23.0003 15.588 23.0003H2.0215C1.64936 23.0003 1.34767 22.6986 1.34767 22.3265V16.9358C1.34767 16.5637 1.64936 16.262 2.0215 16.262H4.61468C5.41344 15.3479 6.49849 14.7839 7.70452 14.6632C9.00426 14.5329 10.3119 14.9532 11.2919 15.8155C11.3362 15.8545 11.3769 15.8913 11.4152 15.9259C11.6482 16.1366 11.787 16.262 12.0535 16.262H14.2403C15.1057 16.262 15.8456 16.8088 16.1334 17.5749L18.2017 15.5066ZM2.69533 21.6527H4.13284V17.6097H2.69533V21.6527ZM16.0644 21.4552L20.1074 17.4122C20.3701 17.1495 20.3701 16.7221 20.1074 16.4594C19.8447 16.1968 19.4173 16.1968 19.1546 16.4594L15.5064 20.1076C15.3801 20.234 15.2087 20.305 15.03 20.305H11.4876C11.272 20.305 11.0679 20.4093 10.9416 20.5839C10.7234 20.8855 10.3021 20.9531 10.0007 20.7351C9.69911 20.517 9.63146 20.0957 9.84956 19.7942C10.2285 19.2702 10.8409 18.9573 11.4876 18.9573H14.2403C14.6119 18.9573 14.9142 18.6551 14.9142 18.2835C14.9142 17.912 14.6119 17.6097 14.2403 17.6097H12.0535C11.2704 17.6097 10.8258 17.209 10.4947 16.9104C10.4626 16.8816 10.4317 16.8537 10.4016 16.8272C9.70163 16.2112 8.76729 15.9113 7.83875 16.0042C6.90127 16.098 6.06455 16.5693 5.48051 17.3314V21.6527H15.588C15.7653 21.6527 15.9389 21.5807 16.0644 21.4552Z" fill="#EB7D5A"/>
</svg>
