<svg width="21" height="21" viewBox="0 0 21 21" fill="none" xmlns="http://www.w3.org/2000/svg">
<g clip-path="url(#clip0_230_3980)">
<path d="M20.9659 12.9555C20.9438 12.9021 20.9114 12.8537 20.8706 12.8129L15.6208 7.5631C15.447 7.39523 15.17 7.40007 15.0021 7.57384C14.8384 7.7434 14.8384 8.01216 15.0021 8.18171L19.5056 12.6852H10.9371C5.38252 12.6789 0.881227 8.17757 0.874952 2.62304C0.874952 2.38143 0.679069 2.18555 0.437456 2.18555C0.195842 2.18555 0 2.38143 0 2.62304C0.00676731 8.66063 4.89949 13.5534 10.9371 13.5601H19.5056L15.0031 18.0627C14.8293 18.2306 14.8245 18.5075 14.9923 18.6813C15.1602 18.8551 15.4372 18.8599 15.611 18.692C15.6146 18.6885 15.6182 18.6849 15.6217 18.6813L20.8715 13.4315C20.9968 13.3065 21.0345 13.1182 20.9668 12.9546L20.9659 12.9555Z" fill="#2196F3"/>
<path d="M15.3123 18.8102C15.0707 18.8106 14.8745 18.6151 14.874 18.3735C14.8738 18.257 14.9201 18.1452 15.0026 18.063L19.9435 13.1229L15.0026 8.18285C14.8347 8.00907 14.8395 7.7321 15.0133 7.56423C15.1829 7.40046 15.4516 7.40046 15.6212 7.56423L20.871 12.814C21.0418 12.9849 21.0418 13.2618 20.871 13.4326L15.6212 18.6824C15.5392 18.7642 15.4281 18.8102 15.3123 18.8102Z" fill="black"/>
<path d="M20.5617 13.5601H10.9371C4.89949 13.5534 0.00676731 8.66063 0 2.62304C0 2.38143 0.195883 2.18555 0.437497 2.18555C0.67911 2.18555 0.874993 2.38143 0.874993 2.62304C0.881268 8.17757 5.38256 12.6789 10.9371 12.6851H20.5617C20.8033 12.6851 20.9992 12.881 20.9992 13.1226C20.9992 13.3642 20.8033 13.5601 20.5617 13.5601Z" fill="black"/>
</g>
<defs>
<clipPath id="clip0_230_3980">
<rect width="21" height="21" fill="white"/>
</clipPath>
</defs>
</svg>
