<svg width="46" height="46" viewBox="0 0 46 46" fill="none" xmlns="http://www.w3.org/2000/svg">
<path fill-rule="evenodd" clip-rule="evenodd" d="M23 46C35.7025 46 46 35.7025 46 23C46 10.2975 35.7025 0 23 0C10.2975 0 0 10.2975 0 23C0 35.7025 10.2975 46 23 46ZM24.6081 15.6032V33.7959C24.6795 35.1782 22.6061 35.2854 22.5348 33.8495V15.5951L19.1264 19.0116C18.4799 19.6833 17.3444 19.2258 17.3443 18.2935C17.3419 18.011 17.4555 17.74 17.6578 17.543L22.8401 12.3668C23.2441 11.9652 23.8966 11.9652 24.3006 12.3668L26.376 14.4389L29.4849 17.543C30.4639 18.5221 28.9955 19.9906 28.0165 19.0116L24.6081 15.6032Z" fill="#3D3D3D" fill-opacity="0.8"/>
</svg>
