<svg width="19" height="19" viewBox="0 0 19 19" fill="none" xmlns="http://www.w3.org/2000/svg">
<path fill-rule="evenodd" clip-rule="evenodd" d="M0 8.00177C0 3.58971 3.58971 0 8.00177 0C12.4141 0 16.0035 3.58971 16.0035 8.00177C16.0035 9.94258 15.3091 11.7242 14.1555 13.1111L17.9538 16.9094C18.2423 17.1977 18.2423 17.6655 17.9538 17.9538C17.8095 18.0981 17.6204 18.1702 17.4316 18.1702C17.2425 18.1702 17.0536 18.0981 16.9093 17.9538L13.1111 14.1556C11.7242 15.3091 9.94256 16.0035 8.00177 16.0035C3.58971 16.0035 0 12.4141 0 8.00177ZM1.47725 8.00181C1.47725 11.5994 4.40418 14.5263 8.00177 14.5263C11.5994 14.5263 14.5263 11.5994 14.5263 8.00177C14.5263 4.40418 11.5994 1.47725 8.00177 1.47725C4.40418 1.47725 1.47725 4.40421 1.47725 8.00181Z" fill="black"/>
</svg>
