<svg width="17" height="17" viewBox="0 0 17 17" fill="none" xmlns="http://www.w3.org/2000/svg">
<path d="M16.2537 9.8512L15.5465 9.26902C15.062 8.87022 15.0629 8.12899 15.5465 7.73098L16.2537 7.1488C16.757 6.73446 16.8857 6.02398 16.5598 5.45936L15.1633 3.04064C14.8373 2.47606 14.1575 2.23235 13.5472 2.46098L12.6894 2.78236C12.1018 3.00243 11.4603 2.63125 11.3574 2.01334L11.2068 1.10975C11.0996 0.466736 10.5487 0 9.89677 0H7.10389C6.45194 0 5.90097 0.466736 5.79382 1.10978L5.64322 2.01334C5.54005 2.63234 4.89771 3.00206 4.31124 2.78239L3.45344 2.46098C2.84306 2.23235 2.16333 2.47609 1.83731 3.04064L0.440882 5.45932C0.114927 6.02388 0.243622 6.73439 0.746949 7.14877L1.45414 7.73095C1.93864 8.12979 1.93768 8.87094 1.45414 9.26898L0.746915 9.85117C0.243622 10.2655 0.114894 10.9761 0.440849 11.5406L1.83731 13.9593C2.16329 14.5239 2.8429 14.7676 3.45344 14.539L4.3112 14.2176C4.89887 13.9974 5.54022 14.3689 5.64318 14.9866L5.79379 15.8902C5.90097 16.5333 6.45194 17 7.10385 17H9.89674C10.5486 17 11.0996 16.5333 11.2068 15.8902L11.3573 14.9867C11.4605 14.3679 12.1028 13.9979 12.6894 14.2177L13.5472 14.539C14.1577 14.7677 14.8373 14.5239 15.1633 13.9594L16.5598 11.5406C16.8857 10.9761 16.757 10.2655 16.2537 9.8512ZM14.0131 13.2953L13.1553 12.9739C11.7841 12.4602 10.2876 13.3269 10.0473 14.7683L9.89677 15.6719H7.10389L6.95328 14.7683C6.71259 13.3241 5.2139 12.4612 3.8453 12.9739L2.9875 13.2953L1.59107 10.8766L2.29827 10.2944C3.4288 9.36371 3.42644 7.63436 2.29827 6.7056L1.59107 6.12342L2.98753 3.70471L3.8453 4.02608C5.21659 4.53973 6.71305 3.67313 6.95328 2.23168L7.10385 1.32812H9.89674L10.0473 2.23168C10.288 3.67608 11.7868 4.53867 13.1553 4.02608L14.0131 3.70471L15.4098 6.12309C15.4098 6.12309 15.4097 6.12319 15.4095 6.12339L14.7023 6.70557C13.5718 7.63619 13.5741 9.36557 14.7023 10.2944L15.4095 10.8765L14.0131 13.2953ZM8.50031 5.22395C6.69389 5.22395 5.22426 6.69358 5.22426 8.5C5.22426 10.3064 6.69389 11.7761 8.50031 11.7761C10.3067 11.7761 11.7764 10.3064 11.7764 8.5C11.7764 6.69358 10.3067 5.22395 8.50031 5.22395ZM8.50031 10.4479C7.42622 10.4479 6.55238 9.57409 6.55238 8.5C6.55238 7.42591 7.42622 6.55207 8.50031 6.55207C9.5744 6.55207 10.4482 7.42591 10.4482 8.5C10.4482 9.57409 9.5744 10.4479 8.50031 10.4479Z" fill="black"/>
</svg>
