<svg width="23" height="22" viewBox="0 0 23 22" fill="none" xmlns="http://www.w3.org/2000/svg">
<path d="M21.6813 8.96895L15.9378 13.1416L18.1319 19.8934C18.2506 20.259 18.1201 20.6592 17.8097 20.8855C17.6537 20.9984 17.4712 21.0548 17.2878 21.0548C17.1047 21.0548 16.9217 20.9984 16.7668 20.8855L11.0237 16.7125L5.28083 20.8849C4.96929 21.1112 4.54833 21.1112 4.23744 20.8849C3.92725 20.6592 3.79664 20.2589 3.91552 19.8934L6.10898 13.1413L0.366138 8.96895C0.0552003 8.74299 -0.0754093 8.34285 0.0434668 7.97718C0.162641 7.61155 0.503658 7.36415 0.887631 7.36415H7.98639L10.1799 0.612876C10.2987 0.247298 10.6395 0 11.024 0C11.4085 0 11.7487 0.247298 11.8674 0.612876L14.0609 7.36415H21.1603C21.5441 7.36415 21.8849 7.6116 22.0043 7.97718C22.1221 8.34285 21.9913 8.74299 21.6813 8.96895Z" fill="#333333"/>
</svg>
