<svg width="14" height="13" viewBox="0 0 14 13" fill="none" xmlns="http://www.w3.org/2000/svg">
<path d="M12.8338 5.309L9.43408 7.77895L10.7328 11.7755C10.8031 11.9919 10.7259 12.2288 10.5421 12.3628C10.4498 12.4296 10.3417 12.463 10.2332 12.463C10.1248 12.463 10.0165 12.4296 9.9248 12.3628L6.52525 9.89265L3.12588 12.3624C2.94148 12.4964 2.6923 12.4964 2.50827 12.3624C2.32466 12.2288 2.24735 11.9919 2.31772 11.7755L3.6161 7.77877L0.216728 5.309C0.0326747 5.17524 -0.0446371 4.93839 0.0257293 4.72194C0.0962724 4.50551 0.298131 4.35907 0.525416 4.35907H4.72739L6.02577 0.36278C6.09614 0.146383 6.29785 0 6.52546 0C6.75307 0 6.95443 0.146383 7.0247 0.36278L8.32308 4.35907H12.5254C12.7526 4.35907 12.9544 4.50554 13.025 4.72194C13.0948 4.93839 13.0174 5.17524 12.8338 5.309Z" fill="#333333"/>
</svg>
