<svg width="18" height="18" viewBox="0 0 18 18" fill="none" xmlns="http://www.w3.org/2000/svg">
<path fill-rule="evenodd" clip-rule="evenodd" d="M1.1326 6.60117L3.86687 9.33544L6.60113 6.60117C7.33152 5.87082 7.73373 4.89978 7.73373 3.86687C7.73373 1.73468 5.99908 0 3.86687 0C1.73468 0 0 1.73468 0 3.86687C0 4.89978 0.402245 5.87082 1.1326 6.60117ZM1.05456 3.86687C1.05456 2.31617 2.31617 1.05456 3.86687 1.05456C5.4176 1.05456 6.67921 2.31617 6.67921 3.86687C6.67921 4.61807 6.38667 5.32431 5.85549 5.85549L3.86687 7.84408L1.87828 5.85549C1.3471 5.32431 1.05456 4.61807 1.05456 3.86687ZM2.10839 3.86716C2.10839 4.83634 2.89689 5.62483 3.86607 5.62483C4.83524 5.62483 5.62374 4.83634 5.62374 3.86716C5.62374 2.89798 4.83524 2.10949 3.86607 2.10949C2.89689 2.10949 2.10839 2.89798 2.10839 3.86716ZM3.16295 3.86716C3.16295 3.47947 3.47837 3.16405 3.86607 3.16405C4.25376 3.16405 4.56918 3.47947 4.56918 3.86716C4.56918 4.25485 4.25376 4.57027 3.86607 4.57027C3.47837 4.57027 3.16295 4.25485 3.16295 3.86716ZM15.1847 18L13.1961 16.0114C12.665 15.4803 12.3724 14.774 12.3724 14.0228C12.3724 12.4721 13.634 11.2105 15.1847 11.2105C16.7354 11.2105 17.997 12.4721 17.997 14.0228C17.997 14.774 17.7045 15.4802 17.1734 16.0114L15.1847 18ZM13.9418 15.2657L15.1847 16.5086L16.4276 15.2657C16.7596 14.9337 16.9425 14.4923 16.9425 14.0228C16.9425 13.0536 16.154 12.265 15.1847 12.265C14.2155 12.265 13.427 13.0536 13.427 14.0228C13.427 14.4923 13.6099 14.9338 13.9418 15.2657ZM6.7326 17.9979H12.6189H12.619V16.9433H6.7326C5.44277 16.9433 4.39348 15.894 4.39348 14.6042C4.39348 13.3144 5.4428 12.2651 6.7326 12.2651H8.6893C9.84795 12.2651 10.7906 11.3224 10.7906 10.1638C10.7906 9.00515 9.84795 8.06255 8.6893 8.06255H6.64338V9.11711H8.6893C9.26647 9.11711 9.73599 9.58664 9.73599 10.1638C9.73599 10.741 9.26647 11.2105 8.6893 11.2105H6.7326C4.86132 11.2105 3.33892 12.7329 3.33892 14.6042C3.33892 16.4755 4.86132 17.9979 6.7326 17.9979Z" fill="#2A2A2A"/>
</svg>
