<svg width="19" height="17" viewBox="0 0 19 17" fill="none" xmlns="http://www.w3.org/2000/svg">
<path fill-rule="evenodd" clip-rule="evenodd" d="M14.9842 0.164989C15.2043 -0.0549964 15.561 -0.0549964 15.7809 0.164989C17.4744 1.8584 18.407 4.10988 18.407 6.50477C18.407 8.89966 17.4744 11.1512 15.7809 12.8446C15.6709 12.9546 15.5267 13.0096 15.3826 13.0096C15.2384 13.0096 15.0942 12.9546 14.9842 12.8446C14.7642 12.6246 14.7642 12.2679 14.9842 12.0479C18.0407 8.99141 18.0407 4.01817 14.9842 0.961704C14.7642 0.741683 14.7642 0.384975 14.9842 0.164989ZM13.3548 2.59147C13.1348 2.37145 12.7781 2.37145 12.5581 2.59147C12.3381 2.81145 12.3381 3.16816 12.5581 3.38818C14.2767 5.10687 14.2767 7.90333 12.5581 9.62195C12.3381 9.84193 12.3381 10.1986 12.5581 10.4187C12.6681 10.5287 12.8123 10.5837 12.9564 10.5837C13.1006 10.5837 13.2448 10.5287 13.3548 10.4187C15.5127 8.26073 15.5128 4.74944 13.3548 2.59147ZM10.7638 4.9448C9.90353 4.08449 8.50376 4.08449 7.64345 4.94476C7.22667 5.36151 6.99719 5.91559 6.99719 6.50494C6.99719 7.09429 7.22667 7.64837 7.64345 8.06511C7.9293 8.35096 8.27486 8.54125 8.64027 8.63714V16.4366C8.64027 16.7477 8.89251 16.9999 9.20363 16.9999C9.51475 16.9999 9.76698 16.7477 9.76698 16.4366V8.63717C10.1324 8.54129 10.478 8.351 10.7638 8.06515C11.1806 7.6484 11.4101 7.09432 11.4101 6.50498C11.4101 5.91563 11.1806 5.36155 10.7638 4.9448ZM9.96712 7.26844C9.54613 7.68939 8.86116 7.68942 8.4402 7.26844C8.23625 7.06448 8.12398 6.79341 8.12398 6.50498C8.12398 6.21657 8.23629 5.94543 8.4402 5.74152C8.65066 5.53106 8.9272 5.42579 9.20366 5.42579C9.48013 5.42579 9.75667 5.53102 9.96712 5.74152C10.1711 5.94547 10.2833 6.21657 10.2833 6.50498C10.2833 6.79338 10.171 7.06452 9.96712 7.26844ZM5.84874 3.38816C6.06883 3.16817 6.06883 2.81146 5.84877 2.59144C5.62879 2.37146 5.27208 2.37146 5.05206 2.59144C2.89409 4.74941 2.89412 8.2607 5.05206 10.4186C5.16207 10.5286 5.30623 10.5836 5.4504 10.5836C5.59456 10.5836 5.73876 10.5286 5.84874 10.4186C6.06876 10.1986 6.06876 9.84191 5.84874 9.62189C4.13009 7.90324 4.13009 5.10681 5.84874 3.38816ZM3.42274 0.164989C3.64276 0.385011 3.64276 0.741719 3.42274 0.961704C0.366307 4.01813 0.366307 8.99134 3.42274 12.0478C3.64276 12.2678 3.64276 12.6245 3.42274 12.8445C3.31276 12.9545 3.16853 13.0095 3.0244 13.0095C2.88023 13.0095 2.73607 12.9545 2.62606 12.8445C0.932611 11.1511 0 8.89956 0 6.50474C0 4.10992 0.932611 1.8584 2.62602 0.164989C2.84604 -0.0549964 3.20275 -0.0549964 3.42274 0.164989Z" fill="#2B2B2B"/>
</svg>
