<svg width="26" height="25" viewBox="0 0 26 25" fill="none" xmlns="http://www.w3.org/2000/svg">
<path fill-rule="evenodd" clip-rule="evenodd" d="M4.83463 0.233048C5.14541 0.543829 5.14541 1.04768 4.83463 1.35841C0.51741 5.67563 0.51741 12.7003 4.83463 17.0176C5.14541 17.3284 5.14541 17.8322 4.83463 18.1429C4.67929 18.2983 4.47555 18.376 4.27197 18.376C4.06834 18.376 3.86471 18.2983 3.70932 18.1429C1.31732 15.751 0 12.5707 0 9.18797C0 5.80527 1.31732 2.625 3.70927 0.233048C4.02005 -0.0776826 4.5239 -0.0776826 4.83463 0.233048ZM21.1654 0.233048C21.4762 -0.0776826 21.98 -0.0776826 22.2908 0.233048C24.6827 2.625 26 5.80522 26 9.18802C26 12.5708 24.6827 15.7511 22.2907 18.1431C22.1354 18.2985 21.9317 18.3762 21.7281 18.3762C21.5244 18.3762 21.3208 18.2985 21.1654 18.1431C20.8546 17.8323 20.8546 17.3285 21.1654 17.0177C25.4827 12.7004 25.4827 5.67568 21.1654 1.35841C20.8546 1.04763 20.8546 0.543778 21.1654 0.233048ZM18.8637 3.65997C18.553 3.34918 18.0492 3.34918 17.7383 3.65997C17.4276 3.9707 17.4276 4.47455 17.7383 4.78533C20.1659 7.21298 20.1659 11.163 17.7383 13.5905C17.4276 13.9013 17.4276 14.4051 17.7383 14.7159C17.8937 14.8713 18.0974 14.949 18.301 14.949C18.5046 14.949 18.7083 14.8713 18.8636 14.7159C21.9118 11.6678 21.9118 6.70811 18.8637 3.65997ZM15.2037 6.98416C13.9886 5.76896 12.0114 5.76896 10.7962 6.98411C10.2075 7.57276 9.88339 8.3554 9.88339 9.18786C9.88339 10.0203 10.2075 10.803 10.7962 11.3916C11.2 11.7954 11.6881 12.0642 12.2042 12.1996V23.2163C12.2042 23.6558 12.5605 24.0121 13 24.0121C13.4395 24.0121 13.7957 23.6558 13.7957 23.2163V12.1996C14.3119 12.0642 14.8 11.7954 15.2037 11.3917C15.7925 10.803 16.1166 10.0204 16.1166 9.18791C16.1166 8.35545 15.7925 7.57281 15.2037 6.98416ZM14.0784 10.2663C13.4838 10.8609 12.5162 10.8609 11.9216 10.2663C11.6336 9.97822 11.475 9.59533 11.475 9.18791C11.475 8.78054 11.6336 8.39755 11.9216 8.10952C12.2189 7.81225 12.6095 7.66356 13 7.66356C13.3905 7.66356 13.7812 7.8122 14.0784 8.10952C14.3665 8.3976 14.5251 8.78054 14.5251 9.18791C14.5251 9.59528 14.3665 9.97827 14.0784 10.2663ZM8.26153 4.78541C8.57241 4.47468 8.57241 3.97083 8.26158 3.66005C7.95085 3.34932 7.447 3.34932 7.13622 3.66005C4.08807 6.70819 4.08812 11.6679 7.13622 14.7159C7.29161 14.8713 7.49524 14.949 7.69887 14.949C7.90251 14.949 8.10619 14.8713 8.26153 14.7159C8.57231 14.4052 8.57231 13.9014 8.26153 13.5906C5.83393 11.163 5.83393 7.21301 8.26153 4.78541Z" fill="#EB7D5A"/>
</svg>
