<svg width="12" height="19" viewBox="0 0 12 19" fill="none" xmlns="http://www.w3.org/2000/svg">
<path d="M6.64506 16.6142V10.1138C9.77388 9.76345 12 7.20182 12 4.27971C12 3.17507 11.6863 1.80114 11.1426 0.469206C11.0271 0.185941 10.7463 0 10.4345 0H1.56043C1.24849 0 0.967704 0.185941 0.85232 0.469245C0.361438 1.67186 -0.0199458 3.08945 0.00080844 4.39756C0.00080844 4.39879 0.00116164 4.40001 0.00116164 4.4012C0.0615803 7.28315 2.26937 9.77738 5.34951 10.1138V16.6142C3.31022 16.7774 1.74703 17.6637 1.74703 18.1093C1.74703 18.6017 3.64986 19 5.99756 19C8.34522 19 10.2483 18.6017 10.2483 18.1093C10.2483 17.6637 8.68454 16.7772 6.64506 16.6142ZM1.92695 1.26675H10.0679C10.4743 2.35067 10.7045 3.43306 10.7045 4.27975C10.7045 4.48533 10.6858 4.68677 10.659 4.88556C10.2539 4.78686 9.83411 4.77381 9.38375 4.93056C8.20767 5.34 7.44522 5.60224 6.24869 5.14343C5.05895 4.68688 4.30713 2.61307 2.88047 2.77085C2.31367 2.83323 1.82738 3.01553 1.3884 3.26875C1.49025 2.64038 1.66797 1.95754 1.92695 1.26675Z" fill="#333333"/>
</svg>
