<svg width="14" height="11" viewBox="0 0 14 11" fill="none" xmlns="http://www.w3.org/2000/svg">
<path d="M8.29693 6.89268C7.96106 7.11659 7.57093 7.23495 7.1687 7.23495C6.7665 7.23495 6.37637 7.11659 6.0405 6.89268L0.508587 3.20463C0.477896 3.18416 0.447995 3.16283 0.418701 3.1409V9.18418C0.418701 9.87705 0.980981 10.4269 1.66147 10.4269H12.6759C13.3688 10.4269 13.9187 9.86466 13.9187 9.18418V3.14087C13.8893 3.16286 13.8594 3.18424 13.8286 3.20473L8.29693 6.89268Z" fill="#71BC55"/>
<path d="M0.947363 2.54637L6.47928 6.23446C6.68869 6.37407 6.92868 6.44386 7.16867 6.44386C7.4087 6.44386 7.64872 6.37404 7.85812 6.23446L13.39 2.54637C13.7211 2.32581 13.9187 1.95667 13.9187 1.55826C13.9187 0.873215 13.3614 0.315918 12.6764 0.315918H1.66104C0.976024 0.315944 0.418701 0.873241 0.418701 1.55892C0.418701 1.95667 0.61635 2.32581 0.947363 2.54637Z" fill="#71BC55"/>
</svg>
