<svg width="10" height="18" viewBox="0 0 10 18" fill="none" xmlns="http://www.w3.org/2000/svg">
<path d="M2.80211 10.1621H0.647921C0.309839 10.1621 0.188477 10.0386 0.188477 9.69835C0.188477 8.82136 0.188477 7.94509 0.188477 7.06955C0.188477 6.73147 0.31634 6.6036 0.650088 6.6036H2.80211V4.70731C2.77657 3.85551 2.98094 3.01257 3.39375 2.26705C3.82289 1.5144 4.51054 0.943027 5.32905 0.658996C5.86025 0.465716 6.4217 0.368839 6.98695 0.372927H9.1173C9.42288 0.372927 9.55074 0.507293 9.55074 0.806365V3.27913C9.55074 3.58904 9.42071 3.71257 9.1173 3.71257C8.53433 3.71257 7.95135 3.71257 7.37055 3.73641C6.78974 3.76025 6.47333 4.02464 6.47333 4.63146C6.46033 5.28161 6.47333 5.91877 6.47333 6.58193H8.97644C9.33185 6.58193 9.45322 6.70329 9.45322 7.06088C9.45322 7.92775 9.45322 8.79896 9.45322 9.67451C9.45322 10.0278 9.34052 10.1383 8.98294 10.1405H6.46033V17.1925C6.46033 17.5696 6.3433 17.6888 5.97054 17.6888H3.25722C2.92997 17.6888 2.80211 17.5609 2.80211 17.2337V10.1621Z" fill="#3B5998"/>
</svg>
