<svg width="14" height="15" viewBox="0 0 14 15" fill="none" xmlns="http://www.w3.org/2000/svg">
<path d="M7.1687 0.813721C3.44674 0.813721 0.418701 3.84175 0.418701 7.56372C0.418701 11.2857 3.44674 14.3137 7.1687 14.3137C10.8907 14.3137 13.9187 11.2857 13.9187 7.56372C13.9187 3.84175 10.8907 0.813721 7.1687 0.813721ZM10.23 8.49541H7.0356C7.02917 8.49541 7.02294 8.49464 7.01659 8.49446C7.01023 8.49469 7.00401 8.49541 6.99758 8.49541C6.68254 8.49541 6.42715 8.24001 6.42715 7.92498V3.28557C6.42715 2.97053 6.68254 2.71514 6.99758 2.71514C7.31261 2.71514 7.56801 2.97053 7.56801 3.28557V7.35458H10.23C10.545 7.35458 10.8004 7.60997 10.8004 7.925C10.8004 8.24004 10.545 8.49541 10.23 8.49541Z" fill="#71BC55"/>
</svg>
