<svg width="15" height="16" viewBox="0 0 15 16" fill="none" xmlns="http://www.w3.org/2000/svg">
<path d="M10.2125 8.03083C10.2125 9.61104 8.93159 10.892 7.35139 10.892C5.77119 10.892 4.49023 9.61104 4.49023 8.03083C4.49023 6.45063 5.77119 5.16968 7.35139 5.16968C8.93159 5.16968 10.2125 6.45063 10.2125 8.03083Z" fill="url(#paint0_linear_90_449)"/>
<path d="M14.0427 2.96847C13.9052 2.59577 13.6857 2.25842 13.4006 1.98152C13.1237 1.69641 12.7866 1.47699 12.4137 1.33945C12.1112 1.22199 11.6569 1.08217 10.82 1.04408C9.91474 1.00279 9.64332 0.993896 7.35147 0.993896C5.0594 0.993896 4.78797 1.00256 3.88291 1.04385C3.04605 1.08217 2.59147 1.22199 2.28925 1.33945C1.91633 1.47699 1.57898 1.69641 1.30231 1.98152C1.0172 2.25842 0.797775 2.59554 0.660009 2.96847C0.542543 3.27091 0.402724 3.7255 0.364633 4.56236C0.323349 5.46742 0.314453 5.73884 0.314453 8.03092C0.314453 10.3228 0.323349 10.5942 0.364633 11.4995C0.402724 12.3363 0.542543 12.7907 0.660009 13.0931C0.797775 13.4661 1.01697 13.8032 1.30208 14.0801C1.57898 14.3652 1.9161 14.5846 2.28902 14.7222C2.59147 14.8398 3.04605 14.9797 3.88291 15.0178C4.78797 15.059 5.05917 15.0677 7.35124 15.0677C9.64354 15.0677 9.91497 15.059 10.8198 15.0178C11.6567 14.9797 12.1112 14.8398 12.4137 14.7222C13.1623 14.4334 13.7539 13.8417 14.0427 13.0931C14.1602 12.7907 14.3 12.3363 14.3383 11.4995C14.3796 10.5942 14.3883 10.3228 14.3883 8.03092C14.3883 5.73884 14.3796 5.46742 14.3383 4.56236C14.3002 3.7255 14.1604 3.27091 14.0427 2.96847ZM7.35147 12.4383C4.91707 12.4383 2.94364 10.4651 2.94364 8.03069C2.94364 5.59629 4.91707 3.62308 7.35147 3.62308C9.78564 3.62308 11.7591 5.59629 11.7591 8.03069C11.7591 10.4651 9.78564 12.4383 7.35147 12.4383ZM11.9333 4.47888C11.3645 4.47888 10.9033 4.01768 10.9033 3.44882C10.9033 2.87997 11.3645 2.41877 11.9333 2.41877C12.5022 2.41877 12.9634 2.87997 12.9634 3.44882C12.9632 4.01768 12.5022 4.47888 11.9333 4.47888Z" fill="url(#paint1_linear_90_449)"/>
<defs>
<linearGradient id="paint0_linear_90_449" x1="10.4694" y1="6.17305" x2="4.60869" y2="12.3229" gradientUnits="userSpaceOnUse">
<stop stop-color="#FFDC80"/>
<stop offset="0.114583" stop-color="#FCAF45"/>
<stop offset="0.208333" stop-color="#F77737"/>
<stop offset="0.307292" stop-color="#F56040"/>
<stop offset="0.442708" stop-color="#FD1D1D"/>
<stop offset="0.557292" stop-color="#E1306C"/>
<stop offset="0.671875" stop-color="#C13584"/>
<stop offset="0.776042" stop-color="#833AB4"/>
<stop offset="0.901042" stop-color="#5851DB"/>
<stop offset="1" stop-color="#405DE6"/>
</linearGradient>
<linearGradient id="paint1_linear_90_449" x1="15.0201" y1="3.46166" x2="0.605797" y2="18.587" gradientUnits="userSpaceOnUse">
<stop stop-color="#FFDC80"/>
<stop offset="0.114583" stop-color="#FCAF45"/>
<stop offset="0.208333" stop-color="#F77737"/>
<stop offset="0.307292" stop-color="#F56040"/>
<stop offset="0.442708" stop-color="#FD1D1D"/>
<stop offset="0.557292" stop-color="#E1306C"/>
<stop offset="0.671875" stop-color="#C13584"/>
<stop offset="0.776042" stop-color="#833AB4"/>
<stop offset="0.901042" stop-color="#5851DB"/>
<stop offset="1" stop-color="#405DE6"/>
</linearGradient>
</defs>
</svg>
