<svg width="17" height="17" viewBox="0 0 17 17" fill="none" xmlns="http://www.w3.org/2000/svg">
<path d="M15.7228 13.1485C15.9073 13.3336 16.0456 13.5596 16.1265 13.8081C16.2074 14.0566 16.2286 14.3206 16.1885 14.5788C16.1484 14.8371 16.048 15.0822 15.8955 15.2944C15.743 15.5066 15.5427 15.6799 15.3107 15.8003C13.9853 16.5088 12.441 16.6898 10.9877 16.3072C7.13036 15.3361 1.58598 9.79176 0.614945 5.93446C0.232313 4.4811 0.413363 2.93682 1.12178 1.61138C1.24217 1.37943 1.41549 1.1791 1.6277 1.02661C1.83992 0.874112 2.08506 0.773735 2.34329 0.733606C2.60151 0.693477 2.86556 0.714723 3.11405 0.795625C3.36253 0.876528 3.58847 1.01481 3.77357 1.19928L5.4196 2.84451C5.65697 3.0795 5.81759 3.38088 5.8803 3.70896C5.94301 4.03703 5.90487 4.3764 5.77091 4.68237C5.62431 5.02566 5.41615 5.33924 5.15671 5.60762C3.27464 7.48969 9.43321 13.6483 11.3145 11.7654C11.5829 11.505 11.8968 11.2961 12.2405 11.1488C12.5465 11.0147 12.8859 10.9764 13.214 11.0391C13.5421 11.1018 13.8435 11.2626 14.0784 11.5001L15.7228 13.1485Z" fill="#71BC55"/>
</svg>
