<svg width="13" height="17" viewBox="0 0 13 17" fill="none" xmlns="http://www.w3.org/2000/svg">
<path d="M6.46625 0.756104H6.46008C3.12884 0.756104 0.418701 3.46625 0.418701 6.79749C0.418701 8.0918 0.845268 9.3757 1.61976 10.4127L6.20045 16.5457H6.72586L11.3066 10.4127C12.0811 9.3757 12.5076 8.0918 12.5076 6.79749C12.5076 3.46625 9.79749 0.756104 6.46625 0.756104ZM6.46317 8.49672C5.44289 8.49672 4.61282 7.66666 4.61282 6.64638C4.61282 5.62609 5.44289 4.79603 6.46317 4.79603C7.48345 4.79603 8.31351 5.62609 8.31351 6.64638C8.31351 7.66666 7.48345 8.49672 6.46317 8.49672Z" fill="#71BC55"/>
</svg>
