<svg width="19" height="19" viewBox="0 0 19 19" fill="none" xmlns="http://www.w3.org/2000/svg">
<g clip-path="url(#clip0_55_817)">
<path d="M17.3171 6.8631C17.3118 6.86901 17.3064 6.87477 17.3008 6.8804L7.4368 16.7444C6.59298 17.5882 5.59219 18.0293 4.52917 18.0293C4.44842 18.0293 4.36734 18.0268 4.28592 18.0217C3.2704 17.958 2.28518 17.497 1.51178 16.7236C0.738381 15.9502 0.277412 14.965 0.213709 13.9495C0.141358 12.7961 0.583025 11.7065 1.49093 10.7986L11.3226 0.967049C11.4874 0.802307 11.7545 0.802342 11.9192 0.967049C12.084 1.13183 12.084 1.39894 11.9192 1.56369L2.08757 11.3952C0.469225 13.0136 0.963943 14.9825 2.10842 16.127C3.25293 17.2715 5.22182 17.7662 6.84016 16.1478L16.6955 6.29245C17.778 5.07193 17.4118 3.67443 16.5666 2.82931C15.7214 1.98415 14.3239 1.61793 13.1035 2.70043L6.80659 8.99722C5.9749 9.82892 6.21326 10.8118 6.8184 11.417C7.42358 12.0222 8.40651 12.2605 9.2382 11.4288L14.6877 5.97927C14.8525 5.8145 15.1196 5.8145 15.2843 5.97927C15.4491 6.14405 15.4491 6.41113 15.2843 6.57591L9.83484 12.0254C8.65271 13.2075 7.12247 12.9143 6.2218 12.0136C5.32113 11.113 5.0279 9.58272 6.20995 8.40062L12.5155 2.09514C12.5211 2.08955 12.5269 2.0841 12.5328 2.07883C13.2622 1.42731 14.1202 1.12381 15.0137 1.20144C15.8033 1.26992 16.5667 1.63614 17.1632 2.23267C17.7597 2.82917 18.1259 3.59255 18.1944 4.38216C18.272 5.2758 17.9686 6.13372 17.3171 6.8631Z" fill="#71BC55"/>
</g>
<defs>
<clipPath id="clip0_55_817">
<rect width="18" height="18" fill="white" transform="translate(0.206055 0.436279)"/>
</clipPath>
</defs>
</svg>
