<svg xmlns="http://www.w3.org/2000/svg">



	<symbol id="arrow"  fill="none" xmlns="http://www.w3.org/2000/svg" viewBox="0 0 11 10">
		<path d="M1.585 1.408h7.742m0 0L1.585 9.149m7.742-7.741v7.741" stroke="currentColor" stroke-width="1.5" stroke-linecap="round"/>
	</symbol>


	<symbol id="webMasterLogo" fill="currentColor" xmlns="http://www.w3.org/2000/svg" viewBox="0 0 4.17037 1.05158" shape-rendering="geometricPrecision" text-rendering="geometricPrecision" image-rendering="optimizeQuality" fill-rule="evenodd" clip-rule="evenodd">
		<path d="M1.39665.47352l.0779013-.183355L1.406564.127538 1.40524751.12439454h.03226742l.00059108.00142396.0558568.135961.0558568-.135961.00059107-.00142396h.03226742L1.58136161.127538l-.0679739.162627.078976.183382.146668-.350495.00059108-.00141053h.03558549l-.00137022.00318376-.16624.388244-.00059108.00138366H1.5783129L1.57772182.51306923l-.083221-.194706-.0837583.194706-.00059108.00138366h-.02869416L1.3808662.5130558l-.16569-.388244-.00135679-.00318376h.03503479l.00059108.00139709.147205.350468V.47352zM.598239.099516C.58961465.10651489.5854368.106797.5881101.111445.59083712.11622735.59168343.11826925.58487261.11860509.57806179.11895436.57327941.11793341.57550941.12133211c.00220311.00341213.00595107.00749593-.0058033.0093632-.0117544.00186727-.0436188.0134604-.0628557.0150053-.0192503.00151799-.0269343.00953784-.0294867.0158382-.00255238.00630035-.026585.0168591-.0328854.0073213C.43817796.15932227.43050741.14467971.43425541.13665981c.0181891-.0388768-.0226624-.00961844-.0335571-.0251476.0639169-.0186324.140193-.0287881.197541-.0120096v.00001343zm.113433.0344302c.147836.0611631.225926.21127.24754.29617C.9332315.4506561.8831645.4952422.8777374.4653256.87228337.4353822.8628127.46657492.8532749.4420318.84372363.4175155.8042021.3956994.8328156.43249396c.0286269.036808.00811388.0205668.0217355.0396425.0136351.0190891.0258999.0299837.0477026.0231729.0218027-.00681082.0177323.0136216-.00135679.0340675-.0190891.0204593-.0572539.0572405-.0558837.103586.00137022.0463458.0149919.0436054-.0149784.0681485-.0299972.0245297-.00682425.0313405-.0272702.0504296-.0204459.0190891-.0149784.0408918-.0517864.0572405-.0367946.0163621-.0245297.0163621-.0354378-.0190757-.0108946-.0354378-.0381513-.0531701-.0354378-.0967755.00272702-.0436054.0204459-.0763296-.00135679-.099489-.0218027-.0231729.00135679-.0667917-.031354-.0640647-.0327107.00272702-.0735891.0313405-.104943-.0218027-.0313405-.0531566-.0490594-.0967755-.0163621-.117221.0327242-.0204325.031354-.0517864.0408918-.0599675.00955127-.00816761.034081.0122649.0885944-.00272702.0545134-.0149919.0190891.00681082.0545134.0231729.0354378.0163621.0463458.00272702.0545269-.00272702.00816761-.00545403.0736025-.0150053.0313405-.031354-.0481459-.0186324-.0625064-.00791237-.0684441-.0376006-.0054406-.0272567-.0725816-.0163218-.049637-.00644811.022958.00986024.0431218.0222594.0335839.0243013-.00953784.0020419-.018001.0139978-.0252417.0114051C.67896069.30581523.70531732.3004015.69101061.29086371.67669041.28132587.66715261.28336778.66238371.27381651.65761479.26427867.65694311.26223681.65694311.26223681s-.0163621-.00953784-.0368214.0204459c-.0204325.0299837-.0490594.0408784-.0572405.00953784-.00816761-.0313405.0736025-.0286135.039535-.0490594-.034081-.0204459.0327107-.0286269.0490594-.0299972.0163487-.00137022.0585972-.0463458.0299837-.039535-.0286135.00681082-.0408784.0109081-.0654215-.00545403-.0241401-.0160934.0705397-.00973934.0956336-.0342422v.00001343zM.08865.4483182c.0229311-.109215.154473-.286377.266603-.314708.0286269 0 .0178398.0410396.0328182.0669395C.4030631.2264496.38397396.2414415.3212795.2509793.258585.26053057.2681363.3027657.2381391.3164142.2081554.3300358.1917933.3668304.1822554.3504683.17271756.3341196.1427338.3368601.1236582.3900033.1045691.4431599.12653298.4343341.1420085.4300219.1574974.42573659.153642.447902.1686204.4724317c.0149784.0245297.0490728.01162.0817836.0020822.0327242-.00955127.0804268.0149784.0899512.0408784.00955127.0258999 0 .0463458.0654215.0695053.0654215.0231729.0449756.031354.0354378.0599809C.43166323.6735054.4275794.6898541.4084903.7171108.3894146.7443675.41804157.7607162.3894146.7743513.3607877.7879864.3280769.8125161.3294471.838416.33080389.8643159.35262.9079213.313085.877951.27355.8479538.2599418.7948106.2544878.718481.24903377.642138.2285879.681673.1999609.6489623.1713474.6162516.1733893.5733179.1849825.5515152.1965757.5297125.2047433.5044977.18089869.5017707.15704069.49904368.14683119.49291798.13727989.4683883.12774205.4438586.12432989.46020725.10319889.4567951.09568952.45559951.09110869.453074.08862349.44833195L.08865036.44831852zm1.12794.443684h1.74199v.0001209h.00111499V.89165293c.011835-.00059108.0220311-.00518536.0306285-.0137022.00922886-.0091617.01385-.0203787.01385-.0335974 0-.0128962-.00454055-.0239655-.0137694-.0331138-.00493012-.00501072-.014965-.0122649-.0300912-.0219639-.0178398-.00963187-.0301718-.0178398-.0370229-.0246909-.0107469-.0107469-.01608-.0236431-.01608-.0387021 0-.015274.00531969-.0282642.01608-.0390783.00939007-.00951097.0205534-.0148575.0333421-.0159994 0-.00042988.0633662-.0002418.0693844-.0002418v.0203653c-.0218564 0-.0440218-.0000806-.0626542-.00022838-.00930947-.00006717-.0187398.00437934-.0254298.0109887-.00668992.00659588-.0100214.0146426-.0100214.0241939 0 .0093229.00333153.017289.0100214.0239655.00390917.00389574.0121708.00979307.0247581.0177592.0198951.0109081.0340675.0205399.0424367.0288956.0132186.0133664.0198145.0292852.0198145.0478504 0 .0189548-.00659588.0351019-.0198145.0484012-.0132186.0132992-.029218.0198951-.0480788.0198951-.00218967 0-.00432561-.0000806-.00644811-.00026867h-1.73401v-.0203787zM.525782-8e-7c.14519 0 .276638.0588525.371788.154016.0951366.0951366.154002.226597.154002.371788 0 .145177-.0588659.276638-.154002.371774-.09515.09515-.226611.154002-.371788.154002S.249144.9927267.154008.8975772C.058858.8024406.000006.6709802.000006.5258032c0-.14519.0588525-.276651.154002-.371788C.2491446.0588652.380605-8e-7.525782-8e-7zm.346909.178895C.783922.0901117.66126.0352092.525782.0352092c-.135478 0-.258126.054903-.346909.143685-.088769.088769-.143685.211418-.143685.346909 0 .135478.0549164.258126.143685.346895.088769.0887825.211431.143699.346909.143699.135478 0 .258126-.0549299.346909-.143699.088769-.088769.143685-.211418.143685-.346895 0-.135491-.0549299-.25814-.143685-.346909zm2.24796.499151V.5805175h.0209295v.0975277h.0466548v.0210101h-.0466548v.208019H3.120651v-.208019h-.0466548V.6780452h.0466548zm.21804.23228c-.0285866 0-.0514237-.00842285-.0682963-.0253895C3.2534415.8679825 3.2446828.8465694 3.2441992.820777V.678032h.0210101v.140905c0 .0194249.00709293.0359751.0212653.0496774.0139978.0137694.0312734.0207011.0519745.0207011.0192637 0 .0359885-.00686456.0499863-.020634.0140918-.0137694.0211713-.030333.0211713-.0497445V.678019h.0209564v.142745c-.0004836.0257925-.0091617.047219-.0261149.0641587-.0169666.0169666-.0388499.0254029-.0657708.0254029h.00001343zm.409106-.00326436h-.0210101v-.0466414c-.00405694.00541373-.00842285.0106663-.0132858.0155964-.0249999.0250805-.0552523.0375871-.09069.0375871-.0353437 0-.0655155-.0124932-.090502-.0375871-.0250805-.0249999-.0375737-.0551717-.0375737-.0904214 0-.0355049.0124932-.0657708.0375737-.0907572.0249864-.0250133.0551582-.0375871.090502-.0375871.0354378 0 .0656902.0125738.09069.0375871.00484952.00493012.00921543.0101826.0132858.0155964v-.176571h.0210101v.373198zm-.0210101-.100779v-.0414829c-.00389574-.0205399-.0136082-.0385275-.029124-.0541239-.0207011-.0207011-.0456204-.0309644-.0748384-.0309644-.0292986 0-.0542179.0102632-.074919.0309644-.0206877.0207011-.0309644.045607-.0309644.074919 0 .0292046.0102767.0541239.0309644.0747578.0207011.0205399.0456204.0308972.074919.0308972.029218 0 .0541373-.0103573.0748384-.0310584.0155158-.0155292.0252282-.0335168.029124-.0539089zm.11663-.128237v.229029h-.0210101v-.229029h.0210101zm-.0105051-.0811253c.0057227 0 .0106663.00198817.0148038.00604511.00413754.00398977.00620631.00891989.00620631.014656 0 .0058839-.00206877.0109081-.00620631.014965-.00415097.00404351-.00908109.00604511-.0148038.00604511-.00573614 0-.0106663-.0020016-.0148038-.00604511-.00415097-.00405694-.00621974-.00908109-.00621974-.014965 0-.00573614.00206877-.0106663.00621974-.014656.00413754-.00405694.00906766-.00604511.0148038-.00604511zm.19918.0603436c.0354243 0 .0656767.0125738.090596.0375737.0250133.0249999.0374259.0552523.0374259.0907572 0 .0352631-.0124126.0654484-.0374259.0904348-.0249058.0250805-.0551717.0375737-.090596.0375737-.0352766 0-.0654484-.0124932-.0905154-.0375737-.0249999-.0249999-.0374931-.0551717-.0374931-.0904348 0-.0354915.0124932-.0657573.0374931-.0907572.025067-.0249999.0552388-.0375737.0905154-.0375737zm0 .0224475c-.029218 0-.0542179.0102632-.0748384.0309644-.0206877.0207011-.031045.045607-.031045.074919 0 .0292046.0103573.0541239.031045.0747578.0206205.0205399.0456204.0308972.0748384.0308972s.0542179-.0103573.074919-.0308972c.0206205-.0206205.0309644-.0455532.0309644-.0747578 0-.0292986-.0103573-.0542179-.0309644-.074919-.0207011-.0207011-.045701-.0309644-.074919-.0309644zm-2.08751-.162063c.013756-.00009403.0268806-.00182697.0394678-.00529283.0125738-.00346586.0242342-.00838255.0349004-.0146695.0106663-.00638095.0199489-.01385.0278881-.0225012.00792581-.00865122.0141187-.0181488.0185921-.0286135L2.0331628.43781192c-.00455398.0103035-.011217.0192234-.0201504.026988-.00893333.00765714-.0191428.0136754-.0308032.0178667-.0116603.00428531-.0238715.00647498-.0365527.00655558-.013756-.0000806-.0267059-.00274045-.038823-.00792581-.0122111-.00527939-.0230654-.0126679-.0325361-.022152-.0094841-.0094841-.0172218-.0206877-.023052-.0336242-.0058436-.0128559-.00939007-.0269746-.0105722-.0423829h.243349c.00026867-.00126276.00055078-.00327779.00072541-.00617944.00026867-.00284792.0003627-.00574957.0003627-.00858405-.0001612-.0196802-.00373452-.0382722-.0105588-.0557762-.00683768-.0174905-.0164964-.0330869-.0289762-.0465608-.0124932-.0135007-.0273373-.0241536-.0444786-.0318107-.0172353-.00773774-.0361766-.0116603-.0570524-.0118484-.0207817.0000806-.0398305.0040032-.0571464.0116603-.0173159.00767057-.0324555.0182294-.045204.0316361-.0127619.0134873-.0226893.0290568-.0297016.0466548-.00702575.017598-.0105722.0364587-.0106663.0565956.00008061.020419.0036405.0394678.0106663.0574151.00710637.0178667.0169397.0336377.0297957.047313.0128559.0136754.0278881.0244222.045392.0321734.0173965.00773774.0365393.0116603.0574151.011835L1.9445817.51764757zm-.104997-.162949c.00099408-.0151262.00436591-.0289896.0101155-.0415635.00565553-.0125738.0132186-.0234147.0225953-.0327242.00939007-.009202.020231-.0163084.0324421-.0214131.0121171-.00501072.0252417-.0075631.0392798-.0076437.0140381.0000806.0271627.00253895.0392798.0075631.0122111.00499729.023052.0121171.0325361.0213191.0094841.009202.0171278.0201369.022958.0327107.0058436.0125873.00949754.0265313.0107603.0417515h-.20998.00001343zm1.99549.162949c.013756-.00009403.0268806-.00182697.0394544-.00529283.0125873-.00346586.0242476-.00838255.0349004-.0146695.0106663-.00638095.0199757-.01385.0278881-.0225012.00793924-.00865122.0141321-.0181488.0185921-.0286135L3.9236424.43781192c-.00455398.0103035-.0112036.0192234-.0201369.026988-.00893333.00765714-.0191428.0136754-.0308032.0178667-.0116738.00428531-.0238849.00647498-.0365527.00655558-.0137694-.0000806-.0267059-.00274045-.038823-.00792581-.0122111-.00527939-.023052-.0126679-.0325361-.022152-.0094841-.0094841-.0172353-.0206877-.023052-.0336242-.0058436-.0128559-.00939007-.0269746-.0105722-.0423829h.243336c.00026867-.00126276.00055078-.00327779.00073885-.00617944.00026867-.00284792.0003627-.00574957.0003627-.00858405-.00018807-.0196802-.00373453-.0382722-.0105722-.0557762-.00682425-.0174905-.0164964-.0330869-.0289762-.0465608-.0124932-.0135007-.0273373-.0241536-.0444786-.0318107-.0172353-.00773774-.03619-.0116603-.0570524-.0118484-.0207817.0000806-.0398305.0040032-.0571464.0116603-.0173159.00767057-.0324555.0182294-.045204.0316361-.0127619.0134873-.0227027.0290568-.0297151.0466548-.00701232.017598-.0105722.0364587-.0106663.0565956.00009404.020419.00365393.0394678.0106663.0574151.0071198.0178667.0169532.0336377.0298091.047313.0128559.0136754.0278881.0244222.045392.0321734.0174099.00773774.0365527.0116603.0574151.011835V.51764757zm-.10501-.162949c.00100752-.0151262.00437934-.0289896.0101289-.0415635.0056421-.0125738.0132186-.0234147.0225953-.0327242.00939007-.009202.020231-.0163084.0324421-.0214131.0121305-.00501072.0252417-.0075631.0392798-.0076437.0140246.0000806.0271492.00253895.0392663.0075631.0122246.00499729.0230654.0121171.0325361.0213191.0094841.009202.0171412.0201369.0229714.0327107.00583017.0125873.0094841.0265313.0107469.0417515h-.209967zm-1.43129.163204c-.00734816.00130306-.0149381.00197474-.0227968.00201504h-.00002687c-.0076437-.0000403-.0151262-.00075228-.0224206-.0021225-.00733473-.00138366-.0145083-.00342556-.0214803-.00612571H2.2320368C2.2250379.50892902 2.2183883.5057184 2.2120611.5019973c-.00634065-.00373453-.012332-.00797954-.0180144-.0127485C2.18839117.48453362 2.1832058.47942886 2.1784772.473948 2.17545465.47044184 2.17262016.46680134 2.16998718.4629996v.05147741H2.14080946V.11071759h.03189128V.2824123c.00326436-.00447338.00664962-.00875869.0101692-.0128559V.26954297c.00503759-.00585704.0103707-.0113245.0160128-.0164158h.00001343c.0056824-.00506446.0116066-.00959157.0178129-.013541.00621974-.00394947.0127619-.00737503.0196533-.0101961L2.23634894.22937663c.00689142-.00287478.0140784-.00503759.0215878-.00648842.0074825-.00145083.0153143-.00218967.0234819-.0022434h.00001343c.00826165.00005373.016174.00079257.0237371.00221653.00757653.00142396.0148307.00354646.0217624.00634065.00686456.00276732.0133664.00608541.0195055.00995428.00611228.003842.0118618.00823478.0172621.0131649.0054003.00488982.0103976.0101692.014965.0158247.00454055.00561523.0086781.01162.0123589.018001h-.00001343c.0037614.00638095.00703919.0129768.00986024.0197474.00283448.0067974.00521223.0138366.00716009.0210773.00386887.0144948.00581674.0291912.00581674.0441427l-.00001343.00001344c-.0000403.00801984-.00061795.0158919-.00177323.0235625-.00112842.0076034-.00280762.0150725-.00506446.0223938-.00228371.00734816-.00502416.0144277-.00823478.0212385-.00318376.00673022-.00686456.0132321-.0109887.0194384v.00001343c-.00411067.00617944-.0086378.0120096-.0135813.0174502-.00494355.00545403-.0102632.0105051-.0159591.0151262v.00001343c-.00574957.00463458-.0117947.0087587-.018095.0123589h-.00001344c-.00631378.00361363-.0129365.0067168-.0198951.00930947-.00691829.00261955-.0140784.00456741-.0214534.0058839V.51790301zm-.0403545-.0280627c.00409724.00061794.00811388.00091348.0120633.00091348v.00001344c.00651528-.0000403.0128022-.00061795.0188742-.00173293.00604511-.001115.0118887-.00278075.0174905-.00494355l.00001343-.00001344c.00562867-.00214937.0109887-.00471518.0160666-.00771087.00510476-.00299569.00995428-.0064481.0145351-.0103035.00454055-.0038823.008799-.0080467.012735-.0125201.00390917-.00447338.0075228-.00922886.0107872-.0143202.0032778-.00507789.00616601-.010317.0086781-.0157307.0025255-.00542716.00468831-.0110558.00647497-.0168726h-.00001343c.00174636-.00581674.00307629-.0116872.00394947-.0176114.00088662-.00589734.00131649-.0118887.00131649-.0179204h.00001343c-.0000403-.00791237-.00071198-.015677-.00202847-.0232804-.00130306-.00758997-.00323749-.0150187-.00577644-.0222729-.00255238-.0072407-.0056421-.0140918-.0092826-.0205668-.00362706-.00643468-.00781834-.0124932-.0125604-.0181756L2.35174332.28676461c-.00467488-.00570927-.00980651-.0108006-.0153814-.015274-.0055615-.00447338-.0115932-.00834225-.0180682-.0116603-.00644811-.00329123-.0132724-.00578987-.020419-.00745563-.00717353-.0016792-.0146829-.00256581-.0224744-.00260611-.00597794.0000403-.0117409.0005642-.0173293.00155829-.0055615.00099408-.0109484.00249864-.0161472.0044868L2.24191039.2558271c-.0051988.0019613-.0101826.00429874-.0149247.00698546-.00478235.00271358-.0093632.0058033-.0137022.00925573l-.00001344.00001343c-.0044062.00346586-.00855719.0071601-.0124529.0110961-.0038823.0039226-.0075631.00811388-.011029.0125738V.2957382c-.00335839.00439278-.00647498.00893333-.0093632.0136216-.00283448.00460772-.00541373.0093229-.00775117.0141187v.0934439c.00049704.00401664.00138366.00793924.00270015.0117544.00132992.00385544.0030763.0076034.00526596.0112439l.00001344.00001343c.0021628.00365393.00466145.0072004.00749593.0105991.00283448.00342556.00597794.0066765.00937663.00972591l.00001343.00001344c.00343899.00313002.00706606.0060451.0108678.00871839.00378827.0026867.0077646.00517193.0119156.00745563.00421814.00225684.00849002.00429874.0127888.0060854.00421814.00173294.00844972.00325093.0126544.00447339V.4870188c.00428531.00123589.00849002.00216281.0126544.00280762v.00001343zm.636711-.17821c.00145083.0113782.00216281.0237371.00210907.0370498h.00001343V.51446301h-.03190472V.35359574c0-.0177054-.00138366-.0331406-.00415097-.0462652-.00274045-.0130037-.00685112-.0237237-.0123455-.0321465-.00542716-.00830195-.0121977-.0145486-.0203384-.0186727-.0081676-.00415097-.0177323-.00621974-.0286941-.00617944-.00775117.00005373-.0152202.00100752-.0223669.00284792-.00713323.00186727-.0139575.00462115-.0204593.00826165-.00652872.00366737-.0125873.00803328-.0181891.0130977-.0056018.00506446-.0107872.0108946-.0155292.0174233L2.72326218.2919759c-.00474205.00647498-.00887959.0135007-.0124395.0210235-.00350616.00745563-.00644811.0154352-.00881242.0239386V.51446227h-.03189128V.353595c.00005373-.0179741-.00130306-.0335302-.00404351-.046722-.00271358-.0130574-.00678395-.0237371-.0121708-.0320525L2.65389124.27480707c-.00533313-.00826165-.0120365-.0144277-.0201101-.0184846-.00811388-.00408381-.0176651-.00608541-.0286404-.00599137-.0075631.0000403-.0148978.00096722-.0219773.00279418-.0070795.0018001-.0138903.00450025-.020419.00803328-.00656902.00362706-.0126813.00792581-.0183368.0129231-.0056824.00502416-.0109349.0107334-.0157576.0171547-.0048361.00651528-.00910796.0135679-.0127753.0211579-.00361363.00746907-.00664962.015462-.00909453.0240058v.17804871h-.03190472V.22551992H2.504604V.28685756c.00290165-.00490325.00597794-.00955127.00921543-.0139575.00488982-.00659588.0101961-.0126679.0159053-.0181891V.25469753c.00569583-.0055212.0117275-.0103707.0180144-.0145754.00630035-.00420471.0129231-.00775117.0198548-.0106797.00694516-.00292852.0141053-.0051585.0214668-.00662275V.22280624c.00734816-.00147769.014871-.00221654.0226087-.00221654l.00001343.00001344c.00815418.0000403.0157844.00091348.0228908.00257925.00714666.0016792.0137963.00415097.0199892.0074422v.00001343c.00615258.00333153.0116872.00729443.0166308.011929.00494355.00460772.00930947.00987368.0131112.0158382h.00001343c.0037211.00585704.0067571.012238.0091617.019116.0017195.00495699.00308972.0101692.00413754.0156367.00601824-.0105319.0124932-.0199086.0194115-.0281433.00820791-.00975277.0170338-.0179204.0264776-.0244894.00951097-.00660932.0196667-.0116066.0304405-.0149381.0107334-.00330466.0220848-.00498386.0340407-.00498386v.00001343c.0105722.0000403.0201504.0013568.0287075.00389574.00865122.00257925.0162815.00642125.0228908.011526.00662275.0051182.0123455.0113782.0171547.0187398.00478235.00733473.00869152.015771.0117006.0252954v.00001344c.0029554.00951097.00517193.020016.00663618.0315152l.00005374.00002686zm.17465.206729c-.00763027.00103439-.0154083.00157173-.0233341.00157173L3.04643377.51991724c-.0067571-.0000403-.0132992-.00064481-.0195996-.00177323-.00635408-.00116872-.0124529-.00287478-.0182831-.00510476H3.0085242C3.00273433.51075554 2.9972669.50802853 2.9921621.50483134c-.0051182-.00321062-.00984681-.00685112-.014159-.0109484-.00440621-.00408381-.00828851-.00853032-.0116738-.0132992-.00341213-.0047958-.00632721-.00992741-.008799-.0153949V.4651754C2.9550854.4596945 2.95325844.4539852 2.95203599.4480342 2.95080008.4420697 2.9501687.4358365 2.9501284.4293615V.42934807c.0000403-.00635408.00081945-.0124126.002324-.0182159.00150457-.00581674.00374798-.0113648.00670336-.0166845V.3944208c.00300912-.00523909.00659588-.0101423.0108006-.0146963.00417784-.00454055.00898706-.00871839.0144008-.0125604.00538686-.00381513.0113111-.00721383.017692-.0101692.00638095-.00296882.0132321-.00549433.0205399-.0075631.0073213-.00206877.0150456-.00362706.0231729-.00466145.00806014-.00103439.016483-.00155829.0252954-.00161203L3.0710708.3431449c.00513162 0 .0103573.0001612.0156367.0004836.0052794.00033585.0105185.00081946.0157173.00145084.00526596.00063138.0104513.00139709.0155695.0022837.00509132.00088662.0101423.00190758.0150993.00304943h.00001344c.00483609.00112842.0095244.00239118.0140381.00373453.00349273.00103439.00690486.0021628.0102229.00334496v-.0246506h.00001343c-.0000403-.00877212-.00094035-.01698-.00267328-.0246103-.00170606-.00757653-.00427188-.0145889-.0076437-.0209832-.00337183-.00639438-.00745563-.0120633-.012238-.0169935-.00475548-.00490325-.0102229-.00909453-.016389-.0125201L3.11842406.2577208c-.00617944-.00349273-.0129365-.0061257-.0202713-.00789894-.0073616-.00178667-.0153143-.00270015-.0238177-.00274045v.00001344c-.00702576 0-.0141724.00072541-.0214534.00214937-.00730786.00142396-.0147904.00358676-.0224206.0064481h-.00001344c-.00758997.00283449-.0152605.00632722-.0229714.0104916-.007684.00415098-.0154217.00894677-.0231729.0143874L2.98228828.2819953 2.98103896.2798728l-.0109349-.0186055-.00108812-.00182697.00177323-.0011956c.00926916-.00621973.0183637-.0116603.027297-.0163218.00898706-.00468831.0178532-.00861091.0266119-.0117409.00869152-.00317031.0173024-.00553462.0258328-.00711978.0085975-.0015986.0170741-.00239118.0254298-.00239118V.2206845c.0116335.0000403.0224744.0012359.0324958.00354646.0100483.00231057.019304.00578987.0277269.0103976V.23461513c.00847658.00455398.015986.0101423.0225281.0167114.00654215.00656902.0121036.0141321.0166845.0226893.00456741.00855719.00800641.0179338.010317.0281299.00229714.0101289.00346586.0211041.0035196.0328988l.00001344.00001343v.138433c0 .0021225.00021493.00393604.00065824.0054406.000403.0013971.00096722.00253895.00169263.00337183l.00002687.0000403c.00069854.00083288.00158516.00145083.00265985.00186727.00114185.00045674.00255238.00068511.00417784.00068511h.0022837V.51365734l-.0019613.0002821c-.00094034.00013434-.0018807.00024181-.00286134.00033585-.00100752.00009403-.001921.00013433-.00275388.00013433-.00173293.00009404-.0032375.00009404-.00455398.00009404-.00241804 0-.00475548-.00030897-.00705263-.00085975-.00229714-.00057764-.00450025-.00141053-.00663618-.00247178L3.1749124.51114526C3.17277646.51005714 3.17080173.50872722 3.16905536.50720922 3.167309.50570466 3.1657507.5039583 3.16440734.50202386 3.1629968.50000882 3.16193556.4978729 3.16122358.49557576 3.1605116.49329203 3.16013546.49084712 3.16008173.48820071l-.00001344-.0000403v-.0171412c-.00337183.0039226-.00694516.00761684-.01072.0111096-.00525253.0048361-.0109349.00925573-.0170203.0132321-.00609884.00401664-.0125067.0075631-.0191831.0105991-.00673022.0030763-.0137291.00565553-.0209832.0077243-.0072407.00206877-.0147232.00365393-.0224072.00470175L3.06978136.5183592zm-.0369692-.0271761c.00601824.00150456.0123858.00227027.0191025.00231057.00698546 0 .0137694-.0004433.0203384-.00132992.00663618-.00087318.0131246-.00221654.0194249-.0039629.00626004-.00173293.0122111-.00385544.0177995-.00632721.0055615-.00247178.0108006-.00530626.0156367-.00850345L3.12514097.4733565c.00486295-.00314346.0092423-.00660932.0131112-.0103573.00389574-.00377483.00730786-.00787207.0101826-.0122246L3.1484885.45070743l.0000806-.00010747c.0014374-.00174636.00274045-.00349273.003842-.00525253.0010747-.0017195.0020016-.0034793.00272702-.00527939.00075228-.00181353.00130306-.00354646.00166576-.00518536.0003627-.0015986.00053735-.00317032.00053735-.00471518V.3814574c-.00621974-.00225684-.0125067-.00424501-.0188607-.00597794-.00685112-.00186727-.0138366-.00346586-.0209026-.00478235v.00001343c-.00722726-.00128962-.0144814-.0022837-.0217087-.00292852-.00705263-.00063137-.014253-.00096721-.0215474-.00096721-.0094035.0000403-.0182159.00071198-.0264238.00202847-.00816761.00130306-.0157576.00323749-.0227296.0058436-.00693172.00257925-.0130977.00566897-.0184712.00925573-.00533313.00357333-.00991398.00763027-.0137425.0121977-.0038017.00459428-.0066765.0095244-.00857062.0148038-.001921.00530626-.00290165.0109618-.00294195.0170203.0000403.00617944.00085974.0120768.00243148.0176517.00155829.00558837.00389574.0108409.00697202.015771v.00001343c.00311659.00491669.00675709.0093632.0109618.0132724.00415097.00385544.00881242.00718696.014065.00996771.00530626.00287478.0109349.00507789.0169129.00654215h.00002686zm.360114.0260343c-.00977964.00174636-.0202847.00265985-.0315017.00270015l-.00001343.00001343c-.00738846 0-.0147098-.00041644-.021937-.00124932-.00722726-.00083288-.0143605-.0020822-.0214131-.00373453h-.00001344c-.00697202-.00165233-.0137828-.00370767-.0204325-.00617944-.00663618-.00247178-.0130709-.00533313-.0192906-.00861092-.00621974-.00327779-.0121708-.00697202-.017786-.0110558-.0056421-.00409724-.0110155-.00863779-.0160934-.0135679L3.24302097.47414915 3.2441897.472564l.0136754-.0185921.00149113-.00202847.00186727.00166576c.00750937.00674365.0151531.0125873.0229445.0175577.00785864.00502416.0159188.009202.0241401.0125604v.00001344c.00819448.00326436.0167114.00570927.0255507.0073213.00881242.00162546.018001.00243148.0275523.00243148.00815418 0 .015771-.00059108.0228102-.0017195.00709293-.0011553.0136485-.00287478.0196802-.00514506.00599137-.00225684.0113379-.0050376.015986-.00831538.00460772-.00322406.0085572-.0069586.0118215-.0111767l.00001344-.00002687c.00327779-.00412411.00574957-.00873182.00741533-.0137828.00166576-.00510476.00253895-.0106528.00257925-.0166039h-.00001344c0-.00424501-.00045674-.00811388-.00137022-.0116066-.00090005-.00345243-.00225684-.00659588-.0040838-.00939007L3.4362361.41571319C3.434436.4128787 3.43217917.41025916 3.42946559.40785455 3.4267117.40540964 3.42350108.40317967 3.41984715.40117805h-.00001343c-.00369423-.00205533-.00787207-.0040032-.0125067-.0058436C3.40270587.3935075 3.3975608.3917477 3.39194562.3900685c-.00569583-.00169263-.0117678-.00337183-.0182697-.00505102-.00644811-.0016792-.0134336-.00337183-.0209564-.0051182-.00812731-.0018807-.015677-.0037614-.022649-.00562866-.00698546-.00186727-.0134739-.00374797-.0194384-.00562867h-.00001344c-.00593764-.00186727-.011432-.00390917-.0164293-.00613914-.00502416-.00221654-.0094841-.00459428-.0133664-.00714666-.00401664-.00255238-.00753623-.00545403-.0105319-.00869152-.00302255-.0032375-.0055212-.00682425-.00750937-.01072h.00001344c-.0020016-.00390917-.00349273-.00827508-.00445995-.0130977-.00096722-.0047958-.00145083-.0100349-.00145083-.0157038L3.2568978.30712969c.0000403-.0072407.00079258-.0140246.00218967-.0203384.00143739-.0064481.00357333-.0123992.00634065-.0178667l.00001343-.00001343c.00280762-.00542716.00615258-.0103976.0100349-.0148978V.25399993c.0038823-.00451368.00831538-.0085572.0132455-.0121305.0048764-.00357333.0101826-.00670335.015865-.0093632.00569583-.00267328.0117544-.00486295.0181622-.00656902v.00001343c.00631378-.0017598.0129097-.0030763.0197339-.0039629.00686456-.00087318.0139306-.00132992.021131-.00132992v.00001343c.0075631.0000403.0147904.00048361.0216952.00132992.00693172.00085975.0136351.0021225.0200698.00385544.00643468.00170606.0125067.0037614.0182159.00612571.0057227.00237774.0110961.00510476.0161203.00816761v.00001344c.00498386.00302255.0095244.00631378.0136351.0098468.00411067.00354647.00777804.00737504.0110155.0114723l.0012762.00161204-.0014777.00142396-.0153143.0147635-.0017195.00166576-.00157173-.00182697c-.00306285-.00353303-.00642125-.0067974-.0101155-.00973934v.00001343C3.4317491.26642603 3.42770558.26376618 3.42332622.26142874 3.41893344.259051 3.4143526.25696879 3.40958372.25519556c-.00478235-.00177323-.00979307-.00327779-.0150456-.00448681-.00525253-.00122246-.0105857-.00210907-.0159994-.00271358-.00538686-.00059108-.0109215-.00087318-.016577-.00087318-.00526596 0-.0103573.00026867-.0152202.00081945-.00480922.00053734-.00947067.00137022-.013944.0024852-.00445995.00110156-.00867809.00249865-.0126141.00419128-.00393604.00169263-.0076034.0036808-.0109752.0059645-.00335839.00227028-.0063272.00484953-.00893333.00771088-.00261955.00290165-.00490325.00615258-.00683769.00969904h.00001344c-.00186727.00350616-.0032778.00737503-.00424501.0115797-.00096722.00425844-.0014777.00885272-.00150456.0137828 0 .00390917.0003224.00749593.00098065.0106663.00065824.00314346.00162546.00595107.00294195.00838255.00134336.00249864.00304942.00479579.00509132.00686456.0020822.00209564.0045271.00398977.0073616.00565553.00292852.0017195.0062466.00337183.00999458.00491669h.00001343c.0037614.00157173.00797954.00304942.0126544.00443308.00472862.00142396.00986024.00287478.015368.00431218.00545403.00142396.0115394.00292852.0182025.00450025V.3530994c.00886616.00201504.0172353.00407037.0251073.00613914.00804671.00210907.0155829.00424501.0226087.00638095h.00001343c.00694516.00216281.0133664.00448681.0192234.00698546.00587047.00247178.011217.00514506.0160666.00799298h.00001344c.00971247.0058436.0170875.013044.0221251.0215878v.00001343c.0025255.00433904.0044465.00917513.0057227.0144948.00124932.00529283.0018807.0110693.0018807.0173562v.00001344c-.00005374.00875869-.0012359.0169263-.00358676.0245297-.00235088.0076034-.0058436.0146292-.0105051.0210773-.00458085.00642125-.0101423.0121171-.0166308.0170875-.00648842.00495699-.0139172.00918856-.0222594.0126813-.00828851.00346586-.0173427.0060854-.0271492.00785864l-.00001344-.0000806zm.17383-.269518V.13605243h.02854635v.11164671h.05339841V.27632606h-.05339841V.51446333H3.5667561V.27632606h-.05341191V.24769914h.05341191zm.597566-.0228236c.00107469-.00010747.00228371-.00025524.00349273-.000403l.00256581-.00032241V.25461745l-.00220311.0000806c-.00846315.00030897-.0165636.00137022-.0243148.00315689-.0077243.0018001-.0150725.0043256-.0220042.0075631L4.1218451.26543147c-.0069989.0032375-.0134873.00718696-.0194921.0117544-.00599137.00458085-.0115126.00983337-.0165502.0157173h.00001343c-.00501072.00589734-.0094035.0123589-.0131918.0193846-.00373453.00693172-.00687799.0144411-.00941693.0225012V.51444924h-.03190478V.22553327H4.0615686v.0635811c.00218967-.0038017.00448681-.00746907.00690486-.0109618.00412411-.00595107.00859749-.0114991.0134067-.0166173V.26152184c.00486295-.00510476.00996771-.00971247.0153277-.0138231.00531969-.00409724.0109215-.00769744.0167785-.0107603.0058436-.00313002.0117947-.00562867.0178264-.00750937.00605854-.0018807.0122514-.00317032.0185383-.00386887l.0001612-.00001344h.00009404c.0018807 0 .00358676-.00002686.00503759-.0000806.00157173-.00005373.00308972-.00013433.00450025-.00026867h.00006717c.00151799-.00010747.00288822-.00021493.00411067-.0003224z" fill="currentColor" fill-rule="nonzero"/>
	</symbol>

	<symbol id="line" fill="none" xmlns="http://www.w3.org/2000/svg" viewBox="0 0 15 2">
		<path fill="currentColor" d="M0 0h15v2H0z"/>
	</symbol>

	<symbol id="linkArrow" fill="none" xmlns="http://www.w3.org/2000/svg" viewBox="0 0 16 16">
		<path d="M.293 7.293a1 1 0 0 0 0 1.414l6.364 6.364a1 1 0 0 0 1.414-1.414L2.414 8l5.657-5.657A1 1 0 0 0 6.657.93L.293 7.293ZM1 9h15V7H1v2Z" fill="currentColor"/>
	</symbol>

	<symbol id="shareArrow" fill="none" xmlns="http://www.w3.org/2000/svg" viewBox="0 0 14 10">
		<path d="M.219 10a.249.249 0 0 1-.076-.012c-.091-.029-.15-.106-.142-.19.005-.066.643-6.59 8.989-7.15L8.97.19c-.001-.077.053-.147.137-.175a.244.244 0 0 1 .24.045l4.593 4.183a.17.17 0 0 1 0 .259L9.32 8.72a.244.244 0 0 1-.241.046c-.084-.029-.138-.099-.137-.177l.026-2.396C3.353 6.541.424 9.89.395 9.924A.232.232 0 0 1 .219 10Z" fill="currentColor"/>
	</symbol>

	<symbol id="chevron" fill="none" xmlns="http://www.w3.org/2000/svg" viewBox="0 0 7 11">
		<path d="M1.803.611a.537.537 0 0 0-.38-.159.56.56 0 0 0-.38.16L.725.93a.54.54 0 0 0 0 .76l3.662 3.662L.725 9.014a.537.537 0 0 0-.16.38c0 .147.062.281.16.38l.318.318c.098.098.233.159.38.159a.537.537 0 0 0 .38-.16l4.36-4.36a.537.537 0 0 0 .16-.38.537.537 0 0 0-.16-.38L1.803.612Z" fill="currentColor"/>
	</symbol>

	<symbol id="pdf" fill="none" xmlns="http://www.w3.org/2000/svg" viewBox="0 0 23 22">
		<path d="M17.429 14.762a24.634 24.634 0 0 0-1.578-.096c-.192-.005-.383-.006-.573-.007a13.96 13.96 0 0 1-.502-.676c-1.021-1.48-1.804-3.122-2.408-4.81.275-.761.512-1.561.69-2.398.323-1.528.55-3.282.114-4.809-.15-.527-.621-1.195-1.261-.945-.736.288-1.028 1.273-1.152 1.98-.1.57-.123 1.15-.08 1.724.043.579.15 1.134.27 1.69.113.51.243 1.018.389 1.523a25.57 25.57 0 0 1-.494 1.09c-.395.806-.813 1.567-1.214 2.3l-.615 1.064a37.978 37.978 0 0 1-2.06 3.245c-1.546.39-2.946.879-4.13 1.497A8.69 8.69 0 0 0 1.14 18.26c-.457.398-.933.926-1.029 1.55-.054.353.053.71.322.948.368.336.896.366 1.366.312 1.538-.176 2.82-1.372 3.91-2.378a30.08 30.08 0 0 0 2.54-2.677 34.194 34.194 0 0 1 4.6-.642 30.817 30.817 0 0 1 2.278-.08c.491.559 1.03 1.077 1.629 1.523.466.353.968.662 1.5.907.54.236 1.086.438 1.656.588.289.07.585.116.892.134.684.038 1.687-.132 1.83-.959.043-.253.01-.481-.081-.687-.445-1.013-2.269-1.49-3.106-1.706-.66-.17-1.34-.267-2.018-.33ZM6.094 16.785c-.366.467-.716.886-1.043 1.252-.802.906-1.723 1.985-2.938 2.306-.231.061-.533.118-.84.07-.275-.042-.535-.19-.493-.504.022-.165.122-.367.264-.563a3.61 3.61 0 0 1 .542-.58 8.041 8.041 0 0 1 1.549-1.037c.916-.482 1.995-.892 3.186-1.236a29.1 29.1 0 0 1-.227.292ZM11.28 4.683a5.712 5.712 0 0 1 .1-1.56c.05-.252.125-.494.221-.72.082-.19.263-.658.486-.7.367-.068.404.715.424.938.113 1.265-.22 2.629-.612 3.823-.063.19-.13.376-.198.561a18.33 18.33 0 0 1-.175-.737 11.82 11.82 0 0 1-.246-1.605Zm1.527 10.049c-1.364.092-2.669.259-3.902.484.148-.027.928-1.225 1.1-1.473a19.194 19.194 0 0 0 2.038-3.722c.586 1.503 1.331 2.959 2.29 4.283.09.12.18.24.272.357-.609.008-1.21.032-1.798.07Zm8.923 2.59c-.075.263-.657.362-.925.38-.794.05-1.612-.128-2.337-.452a7.567 7.567 0 0 1-1.415-.834 8.826 8.826 0 0 1-1.221-1.113c.507.017 1.02.046 1.532.104.513.054 1.028.129 1.532.244.948.198 1.99.63 2.686 1.328.137.137.174.25.148.343Z" fill="#FD000F"/>
	</symbol>

	<symbol id="search" fill="none" xmlns="http://www.w3.org/2000/svg" viewBox="0 0 22 22">
		<path fill-rule="evenodd" clip-rule="evenodd" d="M0 9.688C0 4.346 4.346 0 9.688 0c5.343 0 9.689 4.346 9.689 9.688 0 2.35-.841 4.507-2.238 6.187l4.599 4.598a.894.894 0 1 1-1.265 1.265l-4.598-4.599a9.645 9.645 0 0 1-6.187 2.238C4.346 19.377 0 15.03 0 9.688Zm1.789 0c0 4.356 3.543 7.9 7.9 7.9 4.355 0 7.899-3.544 7.899-7.9s-3.544-7.9-7.9-7.9-7.9 3.545-7.9 7.9Z" fill="currentColor"/>
	</symbol>

	<symbol id="glasses"  fill="none" xmlns="http://www.w3.org/2000/svg" viewBox="0 0 33 13">
		<path fill-rule="evenodd" clip-rule="evenodd" d="M2.636 7.076H0V4.943h2.673A6.127 6.127 0 0 1 8.677 0a6.126 6.126 0 0 1 5.632 3.732 3.96 3.96 0 0 1 2.191-.674c.749 0 1.47.22 2.105.626A6.125 6.125 0 0 1 24.217 0a6.127 6.127 0 0 1 6.003 4.943H33v2.133h-2.742a6.126 6.126 0 0 1-6.041 5.157A6.123 6.123 0 0 1 18.1 6.116v-.013c-.426-.588-.993-.91-1.6-.91-.662-.001-1.283.375-1.709 1.033a6.124 6.124 0 0 1-6.115 6.007 6.126 6.126 0 0 1-6.041-5.157Zm6.04 3.023a3.987 3.987 0 0 1-3.982-3.983 3.987 3.987 0 0 1 3.983-3.982 3.987 3.987 0 0 1 3.982 3.982A3.987 3.987 0 0 1 8.677 10.1Zm15.54 0a3.987 3.987 0 0 1-3.982-3.983 3.987 3.987 0 0 1 3.983-3.982 3.987 3.987 0 0 1 3.982 3.982 3.987 3.987 0 0 1-3.982 3.983Z" fill="currentColor"/>
	</symbol>



</svg>