<svg width="15" height="20" viewBox="0 0 15 20" fill="none" xmlns="http://www.w3.org/2000/svg">
<path d="M13.7792 2.60168L12.3992 1.22002C12.0131 0.831943 11.5538 0.524299 11.048 0.314887C10.5422 0.105474 9.99992 -0.00154666 9.4525 1.68879e-05H4.16666C3.062 0.0013401 2.00296 0.440752 1.22185 1.22187C0.440735 2.00298 0.00132321 3.06202 0 4.16668V15.8333C0.00132321 16.938 0.440735 17.997 1.22185 18.7782C2.00296 19.5593 3.062 19.9987 4.16666 20H10.8333C11.938 19.9987 12.997 19.5593 13.7781 18.7782C14.5593 17.997 14.9987 16.938 15 15.8333V5.54751C15.0013 5.00017 14.8941 4.45799 14.6846 3.95234C14.475 3.4467 14.1673 2.98762 13.7792 2.60168ZM12.6008 3.78001C12.719 3.89778 12.8249 4.02735 12.9167 4.16668H10.8333V2.08335C10.9724 2.17612 11.1022 2.28217 11.2208 2.40002L12.6008 3.78001ZM13.3333 15.8333C13.3333 16.4964 13.0699 17.1323 12.6011 17.6011C12.1323 18.0699 11.4964 18.3333 10.8333 18.3333H4.16666C3.50362 18.3333 2.86774 18.0699 2.3989 17.6011C1.93006 17.1323 1.66667 16.4964 1.66667 15.8333V4.16668C1.66667 3.50364 1.93006 2.86776 2.3989 2.39892C2.86774 1.93007 3.50362 1.66668 4.16666 1.66668H9.16666V4.16668C9.16666 4.60871 9.34226 5.03263 9.65482 5.34519C9.96738 5.65775 10.3913 5.83335 10.8333 5.83335H13.3333V15.8333ZM10.8333 7.50001C11.0543 7.50001 11.2663 7.58781 11.4226 7.74409C11.5789 7.90037 11.6667 8.11233 11.6667 8.33335C11.6667 8.55436 11.5789 8.76632 11.4226 8.9226C11.2663 9.07888 11.0543 9.16668 10.8333 9.16668H4.16666C3.94565 9.16668 3.73369 9.07888 3.57741 8.9226C3.42113 8.76632 3.33333 8.55436 3.33333 8.33335C3.33333 8.11233 3.42113 7.90037 3.57741 7.74409C3.73369 7.58781 3.94565 7.50001 4.16666 7.50001H10.8333ZM11.6667 11.6667C11.6667 11.8877 11.5789 12.0997 11.4226 12.2559C11.2663 12.4122 11.0543 12.5 10.8333 12.5H4.16666C3.94565 12.5 3.73369 12.4122 3.57741 12.2559C3.42113 12.0997 3.33333 11.8877 3.33333 11.6667C3.33333 11.4457 3.42113 11.2337 3.57741 11.0774C3.73369 10.9211 3.94565 10.8333 4.16666 10.8333H10.8333C11.0543 10.8333 11.2663 10.9211 11.4226 11.0774C11.5789 11.2337 11.6667 11.4457 11.6667 11.6667ZM11.5067 14.5108C11.6362 14.6891 11.6899 14.9113 11.656 15.129C11.6221 15.3467 11.5034 15.5421 11.3258 15.6725C10.4815 16.2741 9.4815 16.6193 8.44583 16.6667C7.84073 16.6638 7.25401 16.4584 6.77916 16.0833C6.50583 15.8958 6.40166 15.8333 6.19583 15.8333C5.63869 15.9196 5.11301 16.1474 4.66916 16.495C4.49312 16.6205 4.2752 16.6727 4.06141 16.6405C3.84762 16.6083 3.65471 16.4943 3.5234 16.3226C3.3921 16.1508 3.33268 15.9347 3.3577 15.72C3.38273 15.5053 3.49022 15.3086 3.6575 15.1717C4.39181 14.6016 5.27356 14.253 6.19916 14.1667C6.75427 14.1755 7.29093 14.3674 7.72583 14.7125C7.92407 14.8908 8.1793 14.9927 8.44583 15C9.12722 14.949 9.78247 14.7162 10.3433 14.3258C10.5222 14.1962 10.7451 14.1429 10.9633 14.1776C11.1814 14.2123 11.3769 14.3321 11.5067 14.5108Z" fill="#3EA3DC"/>
</svg>
