<svg width="18" height="20" viewBox="0 0 18 20" fill="none" xmlns="http://www.w3.org/2000/svg">
<path d="M14.3732 1.78353L9.15233 0.0427007C8.98139 -0.0142336 8.79661 -0.0142336 8.62567 0.0427007L3.40483 1.78353C2.57475 2.05927 1.85268 2.58958 1.3412 3.29912C0.829726 4.00867 0.554863 4.86135 0.555666 5.73603V10.0002C0.555666 16.3027 8.22233 19.7835 8.55067 19.9285C8.65718 19.9758 8.77244 20.0003 8.889 20.0003C9.00556 20.0003 9.12082 19.9758 9.22733 19.9285C9.55567 19.7835 17.2223 16.3027 17.2223 10.0002V5.73603C17.2231 4.86135 16.9483 4.00867 16.4368 3.29912C15.9253 2.58958 15.2032 2.05927 14.3732 1.78353ZM15.5557 10.0002C15.5557 14.546 10.2898 17.5277 8.889 18.241C7.4865 17.5302 2.22233 14.5577 2.22233 10.0002V5.73603C2.22238 5.21126 2.38756 4.69981 2.69447 4.27415C3.00138 3.84849 3.43445 3.53019 3.93233 3.36437L8.889 1.71187L13.8457 3.36437C14.3435 3.53019 14.7766 3.84849 15.0835 4.27415C15.3904 4.69981 15.5556 5.21126 15.5557 5.73603V10.0002Z" fill="#3EA3DC"/>
<path d="M11.6393 6.91673L8.14931 10.4167L6.27931 8.46673C6.20427 8.38468 6.11356 8.31847 6.01253 8.27202C5.9115 8.22556 5.8022 8.1998 5.69106 8.19624C5.57992 8.19268 5.46919 8.2114 5.3654 8.2513C5.26161 8.29119 5.16685 8.35146 5.08671 8.42854C5.00656 8.50562 4.94266 8.59797 4.89876 8.70013C4.85485 8.80229 4.83184 8.91221 4.83107 9.0234C4.83031 9.13459 4.8518 9.24482 4.89429 9.34757C4.93678 9.45033 4.99941 9.54355 5.07848 9.62173L7.00015 11.6217C7.14346 11.7765 7.31668 11.9006 7.50933 11.9866C7.70198 12.0725 7.91005 12.1185 8.12098 12.1217H8.14848C8.35519 12.1224 8.55998 12.082 8.75096 12.0029C8.94194 11.9238 9.1153 11.8076 9.26098 11.6609L12.821 8.1009C12.8987 8.02331 12.9604 7.93116 13.0026 7.82972C13.0447 7.72829 13.0665 7.61954 13.0666 7.5097C13.0667 7.39985 13.0452 7.29106 13.0033 7.18953C12.9613 7.08801 12.8998 6.99573 12.8222 6.91798C12.7446 6.84023 12.6525 6.77852 12.5511 6.73637C12.4496 6.69423 12.3409 6.67248 12.231 6.67236C12.1212 6.67225 12.0124 6.69377 11.9109 6.7357C11.8093 6.77762 11.7171 6.83914 11.6393 6.91673Z" fill="#3EA3DC"/>
</svg>
