<svg width="20" height="20" viewBox="0 0 20 20" fill="none" xmlns="http://www.w3.org/2000/svg">
<g clip-path="url(#clip0_91_1366)">
<path d="M10 0C8.02219 0 6.08879 0.586489 4.4443 1.6853C2.79981 2.78412 1.51809 4.3459 0.761209 6.17316C0.00433286 8.00042 -0.193701 10.0111 0.192152 11.9509C0.578004 13.8907 1.53041 15.6725 2.92894 17.0711C4.32746 18.4696 6.10929 19.422 8.0491 19.8078C9.98891 20.1937 11.9996 19.9957 13.8268 19.2388C15.6541 18.4819 17.2159 17.2002 18.3147 15.5557C19.4135 13.9112 20 11.9778 20 10C19.9971 7.34871 18.9426 4.80684 17.0679 2.9321C15.1932 1.05736 12.6513 0.00286757 10 0V0ZM10 18.3333C8.35183 18.3333 6.74066 17.8446 5.37025 16.9289C3.99984 16.0132 2.93174 14.7117 2.30101 13.189C1.67028 11.6663 1.50525 9.99075 1.82679 8.37424C2.14834 6.75774 2.94201 5.27288 4.10745 4.10744C5.27289 2.942 6.75774 2.14833 8.37425 1.82679C9.99076 1.50525 11.6663 1.67027 13.189 2.301C14.7118 2.93173 16.0132 3.99984 16.9289 5.37025C17.8446 6.74065 18.3333 8.35182 18.3333 10C18.3309 12.2094 17.4522 14.3276 15.8899 15.8899C14.3276 17.4521 12.2094 18.3309 10 18.3333Z" fill="#3EA3DC"/>
<path d="M10 5C9.77901 5 9.56705 5.0878 9.41077 5.24408C9.25449 5.40036 9.16669 5.61232 9.16669 5.83333V9.43749L6.35754 11.1975C6.16967 11.3148 6.03613 11.502 5.98627 11.7178C5.93642 11.9337 5.97434 12.1605 6.0917 12.3483C6.20906 12.5362 6.39624 12.6697 6.61206 12.7196C6.82788 12.7694 7.05467 12.7315 7.24253 12.6141L10.4425 10.6142C10.5634 10.5384 10.6629 10.4329 10.7313 10.3077C10.7997 10.1825 10.8349 10.0418 10.8333 9.89915V5.83333C10.8333 5.61232 10.7456 5.40036 10.5893 5.24408C10.433 5.0878 10.221 5 10 5Z" fill="#3EA3DC"/>
</g>
<defs>
<clipPath id="clip0_91_1366">
<rect width="20" height="20" fill="white"/>
</clipPath>
</defs>
</svg>
