<svg width="18" height="23" viewBox="0 0 18 23" fill="none" xmlns="http://www.w3.org/2000/svg">
<path d="M6.13551 12.2981L5.78196 11.9445L6.13551 11.591L6.48907 11.9445L6.13551 12.2981ZM6.63551 21.542C6.63551 21.8182 6.41166 22.042 6.13551 22.042C5.85937 22.042 5.63551 21.8182 5.63551 21.542L6.63551 21.542ZM0.646447 17.0801L5.78196 11.9445L6.48907 12.6516L1.35355 17.7872L0.646447 17.0801ZM6.48907 11.9445L11.6246 17.0801L10.9175 17.7872L5.78196 12.6516L6.48907 11.9445ZM6.63551 12.2981L6.63551 21.542L5.63551 21.542L5.63551 12.2981L6.63551 12.2981Z" fill="#3EA3DC"/>
<path d="M12.2986 10.2439L11.945 10.5974L12.2986 10.951L12.6522 10.5974L12.2986 10.2439ZM12.7986 0.999939C12.7986 0.723797 12.5747 0.499939 12.2986 0.499939C12.0225 0.499939 11.7986 0.723797 11.7986 0.999939L12.7986 0.999939ZM6.80953 5.4619L11.945 10.5974L12.6522 9.89031L7.51664 4.7548L6.80953 5.4619ZM12.6522 10.5974L17.7877 5.4619L17.0806 4.7548L11.945 9.89031L12.6522 10.5974ZM12.7986 10.2439L12.7986 0.999939L11.7986 0.999939L11.7986 10.2439L12.7986 10.2439Z" fill="#3EA3DC"/>
</svg>
