<svg width="20" height="23" viewBox="0 0 20 23" fill="none" xmlns="http://www.w3.org/2000/svg">
<path d="M10 1.8125C4.64844 1.8125 0.3125 6.14844 0.3125 11.5C0.3125 16.8516 4.64844 21.1875 10 21.1875C15.3516 21.1875 19.6875 16.8516 19.6875 11.5C19.6875 6.14844 15.3516 1.8125 10 1.8125ZM14.7266 14.0781C14.9219 14.2344 14.9219 14.5469 14.7266 14.7422L13.2031 16.2656C13.0078 16.4609 12.6953 16.4609 12.5391 16.2656L10 13.6875L7.42188 16.2656C7.26562 16.4609 6.95312 16.4609 6.75781 16.2656L5.23438 14.7031C5.03906 14.5469 5.03906 14.2344 5.23438 14.0391L7.8125 11.5L5.23438 8.96094C5.03906 8.80469 5.03906 8.49219 5.23438 8.29688L6.79688 6.77344C6.95312 6.57812 7.26562 6.57812 7.46094 6.77344L10 9.3125L12.5391 6.77344C12.6953 6.57812 13.0078 6.57812 13.2031 6.77344L14.7266 8.29688C14.9219 8.49219 14.9219 8.80469 14.7266 8.96094L12.1875 11.5L14.7266 14.0781Z" fill="#EBF2F8"/>
</svg>
