<svg width="11" height="11" viewBox="0 0 11 11" fill="none" xmlns="http://www.w3.org/2000/svg">
<path fill-rule="evenodd" clip-rule="evenodd" d="M5.7711 0.270882C2.8794 0.270877 0.541996 2.60828 0.542 5.49998C0.542004 8.39168 2.87942 10.7291 5.77111 10.7291C8.66281 10.7291 11.0002 8.39169 11.0002 5.5C11.0002 2.6083 8.6628 0.270886 5.7711 0.270882ZM7.12544 3.40835L5.77111 4.76268L4.41677 3.40834L3.67946 4.14565L5.0338 5.49999L3.67947 6.85432L4.41677 7.59163L5.77111 6.23729L7.12545 7.59163L7.86275 6.85433L6.50841 5.49999L7.86275 4.14565L7.12544 3.40835ZM1.58782 5.49998C1.58782 7.80602 3.46508 9.68327 5.77111 9.68327C8.07715 9.68328 9.9544 7.80603 9.95439 5.49999C9.95439 3.19396 8.07714 1.31671 5.7711 1.3167C3.46506 1.3167 1.58782 3.19395 1.58782 5.49998Z" fill="#A3A3A3"/>
</svg>
