<svg width="18" height="17" viewBox="0 0 18 17" fill="none" xmlns="http://www.w3.org/2000/svg">
<path d="M15.9824 0.117676H14.3059V1.79415C14.3059 2.12944 14.0265 2.35297 13.7471 2.35297C13.4677 2.35297 13.1882 2.12944 13.1882 1.79415V0.117676H4.24706V1.79415C4.24706 2.12944 3.96765 2.35297 3.68824 2.35297C3.40883 2.35297 3.12941 2.12944 3.12941 1.79415V0.117676H1.45294C0.614706 0.117676 0 0.844146 0 1.79415V3.80591H17.8824V1.79415C17.8824 0.844146 16.8765 0.117676 15.9824 0.117676ZM0 4.97944V15.2059C0 16.2118 0.614706 16.8824 1.50882 16.8824H16.0382C16.9324 16.8824 17.9382 16.1559 17.9382 15.2059V4.97944H0ZM4.97353 14.3677H3.63236C3.40883 14.3677 3.1853 14.2 3.1853 13.9206V12.5236C3.1853 12.3 3.35294 12.0765 3.63236 12.0765H5.02942C5.25294 12.0765 5.47647 12.2441 5.47647 12.5236V13.9206C5.42059 14.2 5.25294 14.3677 4.97353 14.3677ZM4.97353 9.33826H3.63236C3.40883 9.33826 3.1853 9.17062 3.1853 8.89121V7.49415C3.1853 7.27062 3.35294 7.04709 3.63236 7.04709H5.02942C5.25294 7.04709 5.47647 7.21474 5.47647 7.49415V8.89121C5.42059 9.17062 5.25294 9.33826 4.97353 9.33826ZM9.44412 14.3677H8.04706C7.82353 14.3677 7.60001 14.2 7.60001 13.9206V12.5236C7.60001 12.3 7.76765 12.0765 8.04706 12.0765H9.44412C9.66765 12.0765 9.89118 12.2441 9.89118 12.5236V13.9206C9.89118 14.2 9.72354 14.3677 9.44412 14.3677ZM9.44412 9.33826H8.04706C7.82353 9.33826 7.60001 9.17062 7.60001 8.89121V7.49415C7.60001 7.27062 7.76765 7.04709 8.04706 7.04709H9.44412C9.66765 7.04709 9.89118 7.21474 9.89118 7.49415V8.89121C9.89118 9.17062 9.72354 9.33826 9.44412 9.33826ZM13.9147 14.3677H12.5177C12.2941 14.3677 12.0706 14.2 12.0706 13.9206V12.5236C12.0706 12.3 12.2382 12.0765 12.5177 12.0765H13.9147C14.1382 12.0765 14.3618 12.2441 14.3618 12.5236V13.9206C14.3618 14.2 14.1941 14.3677 13.9147 14.3677ZM13.9147 9.33826H12.5177C12.2941 9.33826 12.0706 9.17062 12.0706 8.89121V7.49415C12.0706 7.27062 12.2382 7.04709 12.5177 7.04709H13.9147C14.1382 7.04709 14.3618 7.21474 14.3618 7.49415V8.89121C14.3618 9.17062 14.1941 9.33826 13.9147 9.33826Z" fill="#A3A3A3"/>
</svg>
