<svg width="10" height="18" viewBox="0 0 10 18" fill="none" xmlns="http://www.w3.org/2000/svg">
<path d="M8.8 1.51594C8.5 1.01594 8.1 0.815939 7.8 0.715939C7.6 0.615939 7.4 0.515939 7.1 0.415939H7C6.9 0.415939 6.8 0.315939 6.7 0.315939L6.4 0.215939C5.9 0.115939 5.5 0.015939 5.2 0.015939C4.9 0.015939 4.4 -0.084061 3.9 0.215939C3.4 0.515939 3.2 0.915939 3.1 1.21594C3 1.51594 2.9 1.91594 2.7 2.41594L0.1 12.3159C2.23517e-08 12.5159 0 12.7159 0 13.0159C0 13.3159 0.1 13.5159 0.2 13.8159L1 16.5159C0.9 16.6159 1 16.8159 1 17.0159C1.2 17.5159 1.6 17.7159 1.8 17.7159C1.9 17.7159 2 17.7159 2.1 17.7159C2.3 17.7159 2.6 17.6159 2.9 17.4159C3 17.3159 3.2 17.2159 3.3 17.0159L5.3 15.1159C5.5 14.9159 5.7 14.8159 5.8 14.5159C5.9 14.3159 6 14.0159 6.1 13.7159L8.7 3.81594C8.9 3.51594 9 3.11594 9 2.81594C9.1 2.51594 9.1 2.01594 8.8 1.51594ZM5.1 13.6159C5 13.8159 5 13.9159 4.9 14.1159C4.8 14.2159 4.7 14.3159 4.5 14.5159L2.5 16.4159C2.4 16.5159 2.3 16.6159 2.2 16.7159C2.1 16.8159 2 16.8159 2 16.8159C2 16.8159 1.9 16.8159 1.8 16.6159C1.8 16.5159 1.7 16.4159 1.7 16.2159L0.9 13.5159C1 13.3159 1 13.1159 1 13.0159C1 12.9159 1 12.7159 1.1 12.5159L3.5 3.51594L7.6 4.61594L5.1 13.6159Z" fill="#3EA3DC"/>
</svg>
