<svg width="16" height="13" viewBox="0 0 16 13" fill="none" xmlns="http://www.w3.org/2000/svg">
<path d="M14.5938 0.98584H1.40625C0.632438 0.98584 0 1.60308 0 2.36437V10.6356C0 11.3971 0.632844 12.0141 1.40625 12.0141H14.5938C15.3676 12.0141 16 11.3968 16 10.6356V2.36437C16 1.6029 15.3673 0.98584 14.5938 0.98584ZM14.3778 1.90486C13.9232 2.35202 8.58266 7.60432 8.36325 7.8201C8.18 8.00029 7.82009 8.00042 7.63675 7.8201L1.62219 1.90486H14.3778ZM0.9375 10.4666V2.53332L4.97078 6.49996L0.9375 10.4666ZM1.62219 11.0951L5.63263 7.15087L6.97278 8.4689C7.52197 9.00901 8.47825 9.0088 9.02725 8.4689L10.3674 7.1509L14.3778 11.0951H1.62219ZM15.0625 10.4666L11.0292 6.49996L15.0625 2.53332V10.4666Z" fill="white"/>
</svg>
