<svg width="16" height="17" viewBox="0 0 16 17" fill="none" xmlns="http://www.w3.org/2000/svg">
<g clip-path="url(#clip0_91_1045)">
<path fill-rule="evenodd" clip-rule="evenodd" d="M9.61438 15.0386C9.61438 14.4856 9.16606 14.0373 8.61306 14.0373H7.38694C7.12138 14.0373 6.86669 14.1428 6.67891 14.3305C6.49113 14.5183 6.38562 14.773 6.38562 15.0386C6.38562 15.5916 6.83394 16.0399 7.38694 16.0399H8.61306C9.16606 16.0399 9.61438 15.5916 9.61438 15.0386ZM2.10503 12.4566C2.27228 12.4694 2.47463 12.4767 2.67788 12.4648C2.78616 13.0139 3.05516 13.5233 3.45669 13.9248C3.98975 14.4579 4.71272 14.7573 5.46656 14.7573H5.84863C5.83178 14.8495 5.82312 14.9436 5.82312 15.0386C5.82312 15.1346 5.83178 15.2286 5.84837 15.3198H5.46656C4.56353 15.3198 3.69747 14.9611 3.05894 14.3226C2.54953 13.8131 2.21819 13.1589 2.10503 12.4566ZM1.81891 11.8581C1.37481 11.7832 0.961563 11.5721 0.638969 11.2494C0.229844 10.8403 0 10.2854 0 9.70682V8.37735C0 7.79876 0.229844 7.24385 0.638969 6.83473C1.04809 6.4256 1.603 6.19573 2.18159 6.19573H2.32681C2.55894 3.26585 5.01025 0.960449 8 0.960449C10.9897 0.960449 13.4411 3.26585 13.6732 6.19573H13.8184C14.397 6.19573 14.9519 6.4256 15.361 6.83473C15.7702 7.24385 16 7.79876 16 8.37735V9.70682C16 10.2854 15.7702 10.8403 15.361 11.2494C14.9519 11.6586 14.397 11.8884 13.8184 11.8884H13.1746C12.9076 11.8884 12.6912 11.672 12.6912 11.405V6.65164C12.6912 4.06076 10.5909 1.96045 8 1.96045C5.40913 1.96045 3.30881 4.06076 3.30881 6.65164V11.405C3.30881 11.5935 3.20091 11.7569 3.04347 11.8366C2.61009 11.9869 1.938 11.8782 1.81891 11.8581Z" fill="white"/>
</g>
<defs>
<clipPath id="clip0_91_1045">
<rect width="16" height="16" fill="white" transform="translate(0 0.5)"/>
</clipPath>
</defs>
</svg>
