<svg width="18" height="18" viewBox="0 0 18 18" fill="none" xmlns="http://www.w3.org/2000/svg">
<g clip-path="url(#clip0_91_1157)">
<path d="M10.5 5.25C10.5 5.54667 10.4121 5.83668 10.2472 6.08335C10.0824 6.33003 9.84814 6.52228 9.57405 6.63582C9.29996 6.74935 8.99836 6.77905 8.70739 6.72118C8.41642 6.6633 8.14915 6.52044 7.93937 6.31066C7.72959 6.10088 7.58673 5.8336 7.52885 5.54263C7.47097 5.25166 7.50068 4.95006 7.61421 4.67597C7.72774 4.40188 7.92 4.16762 8.16667 4.00279C8.41335 3.83797 8.70335 3.75 9.00003 3.75C9.39785 3.75 9.77938 3.90803 10.0607 4.18934C10.342 4.47064 10.5 4.85217 10.5 5.25ZM12.7125 8.96775L9.00003 12.6L5.29353 8.973C4.55792 8.23968 4.05636 7.30464 3.85232 6.28619C3.64828 5.26774 3.75093 4.21165 4.14728 3.25155C4.54363 2.29146 5.21586 1.47051 6.07892 0.89258C6.94199 0.314653 7.95709 0.00572455 8.99578 0.00488453C10.0345 0.00404451 11.0501 0.311331 11.9141 0.887861C12.7781 1.46439 13.4516 2.28425 13.8495 3.24371C14.2474 4.20316 14.3518 5.25908 14.1494 6.27786C13.947 7.29664 13.447 8.23249 12.7125 8.967V8.96775ZM12 5.25C12 4.65665 11.8241 4.07663 11.4944 3.58329C11.1648 3.08994 10.6963 2.70542 10.1481 2.47836C9.5999 2.2513 8.9967 2.19189 8.41476 2.30764C7.83281 2.4234 7.29826 2.70912 6.87871 3.12868C6.45915 3.54823 6.17343 4.08278 6.05767 4.66473C5.94192 5.24667 6.00133 5.84987 6.22839 6.39805C6.45545 6.94623 6.83997 7.41476 7.33332 7.74441C7.82666 8.07405 8.40668 8.25 9.00003 8.25C9.79568 8.25 10.5587 7.93393 11.1213 7.37132C11.684 6.80871 12 6.04565 12 5.25ZM16.4003 7.95975L15.324 7.59975C14.9891 8.51227 14.4599 9.34113 13.773 10.029L9.00003 14.7L4.24503 10.05C3.3424 9.15071 2.71309 8.01405 2.43003 6.77175C2.12083 6.74329 1.8091 6.77983 1.51487 6.87902C1.22064 6.97822 0.950415 7.13787 0.721562 7.34772C0.492708 7.55758 0.31029 7.81299 0.186028 8.09754C0.0617656 8.38209 -0.00159056 8.6895 3.03335e-05 9V16.314L5.98728 18.0247L12.0023 16.5247L18.0023 17.9857V10.1122C18.002 9.62887 17.846 9.15844 17.5575 8.77062C17.2689 8.3828 16.8632 8.09821 16.4003 7.959V7.95975Z" fill="#A3A3A3"/>
</g>
<defs>
<clipPath id="clip0_91_1157">
<rect width="18" height="18" fill="white"/>
</clipPath>
</defs>
</svg>
