<svg width="15" height="17" viewBox="0 0 15 17" fill="none" xmlns="http://www.w3.org/2000/svg">
<path d="M14.1983 1.4075C14.1983 0.855217 13.7506 0.407501 13.1983 0.407501H8.88794C8.33566 0.407501 7.88795 0.855216 7.88795 1.4075V4.80251C7.88795 5.35479 8.33566 5.80251 8.88795 5.80251H13.1983C13.7506 5.80251 14.1983 5.35479 14.1983 4.80251V1.4075ZM6.31036 1.4075C6.31036 0.855218 5.86264 0.407501 5.31036 0.407501H0.999999C0.447714 0.407501 0 0.855217 0 1.4075V8.39918C0 8.95146 0.447715 9.39918 1 9.39918H5.31036C5.86264 9.39918 6.31036 8.95147 6.31036 8.39918V1.4075ZM14.1983 8.60085C14.1983 8.04856 13.7506 7.60085 13.1983 7.60085H8.88794C8.33566 7.60085 7.88795 8.04856 7.88795 8.60085V15.5925C7.88795 16.1448 8.33566 16.5925 8.88795 16.5925H13.1983C13.7506 16.5925 14.1983 16.1448 14.1983 15.5925V8.60085ZM6.31036 12.1975C6.31036 11.6452 5.86264 11.1975 5.31036 11.1975H0.999999C0.447714 11.1975 0 11.6452 0 12.1975V15.5925C0 16.1448 0.447715 16.5925 1 16.5925H5.31036C5.86264 16.5925 6.31036 16.1448 6.31036 15.5925V12.1975Z" fill="#3EA3DC"/>
</svg>
