<svg width="13" height="15" viewBox="0 0 13 15" fill="none" xmlns="http://www.w3.org/2000/svg">
<path d="M11.2181 3.46001L9.04063 1.28126C8.63521 0.87385 8.15304 0.550846 7.62202 0.330926C7.09099 0.111007 6.52164 -0.00146492 5.94688 1.44054e-05H3.125C2.2965 0.00100682 1.50222 0.330565 0.916388 0.916401C0.330551 1.50224 0.000992411 2.29652 0 3.12501V11.875C0.000992411 12.7035 0.330551 13.4978 0.916388 14.0836C1.50222 14.6695 2.2965 14.999 3.125 15H9.375C10.2035 14.999 10.9978 14.6695 11.5836 14.0836C12.1695 13.4978 12.499 12.7035 12.5 11.875V6.55314C12.5016 5.9784 12.3891 5.40907 12.169 4.87812C11.949 4.34717 11.6258 3.86516 11.2181 3.46001ZM10.3344 4.34376C10.5252 4.5401 10.6894 4.76076 10.8225 5.00001H8.125C7.95924 5.00001 7.80027 4.93416 7.68306 4.81695C7.56585 4.69974 7.5 4.54077 7.5 4.37501V1.67751C7.73934 1.81059 7.96018 1.97449 8.15688 2.16501L10.3344 4.34376Z" fill="#414042"/>
</svg>
