<svg width="17" height="17" viewBox="0 0 17 17" fill="none" xmlns="http://www.w3.org/2000/svg">
<path d="M16.0124 8.49516C16.0138 10.0067 15.5876 11.4879 14.783 12.7675C13.9783 14.0471 12.8282 15.0731 11.4653 15.7268C10.1024 16.3806 8.58239 16.6355 7.08079 16.4621C5.57918 16.2888 4.15725 15.6942 2.97921 14.747C2.89445 14.6796 2.82469 14.5952 2.77442 14.4992C2.72415 14.4033 2.69446 14.2979 2.68725 14.1898C2.68005 14.0817 2.69548 13.9733 2.73257 13.8715C2.76967 13.7697 2.8276 13.6768 2.90266 13.5987L3.26628 13.2351C3.40039 13.1013 3.5787 13.021 3.76778 13.0092C3.95687 12.9975 4.14374 13.0551 4.29338 13.1713C5.18508 13.8773 6.26073 14.3123 7.39247 14.4249C8.52422 14.5374 9.66448 14.3226 10.6777 13.806C11.6909 13.2894 12.5346 12.4927 13.1083 11.5107C13.682 10.5287 13.9616 9.40257 13.9141 8.26624C13.8665 7.12991 13.4936 6.03113 12.8398 5.10051C12.186 4.16989 11.2788 3.44655 10.2259 3.01647C9.17304 2.5864 8.01882 2.46767 6.90044 2.6744C5.78206 2.88112 4.74655 3.40462 3.91699 4.18265L5.55651 5.82217C5.62756 5.89564 5.67553 5.98831 5.6945 6.08874C5.71347 6.18917 5.70261 6.29296 5.66325 6.38728C5.62389 6.4816 5.55777 6.56233 5.47304 6.61949C5.38831 6.67665 5.2887 6.70774 5.1865 6.70892H0.510364C0.374426 6.70724 0.244625 6.65206 0.149094 6.55533C0.0535626 6.4586 -2.33785e-06 6.32813 8.02289e-06 6.19218V1.47777C-0.000561551 1.37553 0.0292077 1.27543 0.0855491 1.19012C0.14189 1.10481 0.222272 1.03813 0.316521 0.998519C0.410771 0.958907 0.514653 0.948142 0.615022 0.967588C0.715391 0.987034 0.807736 1.03582 0.880372 1.10776L2.47523 2.70262C3.60914 1.61918 5.03627 0.89262 6.57947 0.613141C8.12267 0.333662 9.71398 0.513573 11.1558 1.13054C12.5977 1.7475 13.8266 2.77435 14.69 4.08361C15.5533 5.39286 16.0132 6.92686 16.0124 8.49516Z" fill="#414042"/>
<path d="M10.1752 11.0469L10.4878 10.645C10.5513 10.5648 10.5982 10.4729 10.6259 10.3744C10.6535 10.276 10.6614 10.173 10.6489 10.0715C10.6364 9.97004 10.6039 9.87203 10.5533 9.78321C10.5026 9.69438 10.4348 9.6165 10.3538 9.5541L9.03963 8.49511V5.13952C9.04048 5.03708 9.02092 4.93549 8.98211 4.84068C8.9433 4.74587 8.886 4.65973 8.81356 4.58729C8.74112 4.51485 8.65499 4.45756 8.56017 4.41875C8.46536 4.37993 8.36378 4.36038 8.26133 4.36123H7.7446C7.64269 4.36123 7.54179 4.3814 7.44772 4.42059C7.35365 4.45979 7.26827 4.51722 7.1965 4.58957C7.12474 4.66193 7.06802 4.74778 7.0296 4.84217C6.99119 4.93656 6.97184 5.03762 6.97268 5.13952V9.51583L9.08428 11.1617C9.24444 11.2905 9.44902 11.3507 9.65339 11.3291C9.85776 11.3076 10.0453 11.2062 10.1752 11.0469Z" fill="#414042"/>
</svg>
