<svg width="14" height="17" viewBox="0 0 14 17" fill="none" xmlns="http://www.w3.org/2000/svg">
<path d="M3.76273 14.1434V16.0246C3.7619 16.1072 3.77756 16.1891 3.80878 16.2655C3.84001 16.342 3.88616 16.4114 3.94455 16.4698C4.00295 16.5282 4.0724 16.5744 4.14885 16.6056C4.22529 16.6368 4.3072 16.6525 4.38978 16.6516H13.1685C13.2511 16.6525 13.333 16.6368 13.4094 16.6056C13.4859 16.5744 13.5553 16.5282 13.6137 16.4698C13.6721 16.4114 13.7183 16.342 13.7495 16.2655C13.7807 16.1891 13.7964 16.1072 13.7955 16.0246V4.73768C13.7964 4.6551 13.7807 4.5732 13.7495 4.49675C13.7183 4.4203 13.6721 4.35085 13.6137 4.29246C13.5553 4.23406 13.4859 4.18791 13.4094 4.15668C13.333 4.12546 13.2511 4.10981 13.1685 4.11063H11.2873V12.2623C11.2877 12.5094 11.2392 12.7542 11.1448 12.9826C11.0504 13.2109 10.9118 13.4185 10.7371 13.5932C10.5623 13.7679 10.3548 13.9065 10.1265 14.0009C9.89808 14.0953 9.65331 14.1438 9.40618 14.1434H3.76273Z" fill="#414042"/>
<path d="M9.40577 0.348328H0.627051C0.28074 0.348328 0 0.629068 0 0.975379V12.2623C0 12.6086 0.28074 12.8894 0.627051 12.8894H9.40577C9.75208 12.8894 10.0328 12.6086 10.0328 12.2623V0.975379C10.0328 0.629068 9.75208 0.348328 9.40577 0.348328Z" fill="#414042"/>
</svg>
