<svg width="17" height="19" viewBox="0 0 17 19" fill="none" xmlns="http://www.w3.org/2000/svg">
<path d="M13.6091 9.50675C13.1874 9.50675 12.8455 9.84859 12.8455 10.2703V12.4528C12.8455 13.5201 11.9803 14.3853 10.913 14.3853C9.84576 14.3853 8.98055 13.5201 8.98055 12.4528V6.67558C8.98055 4.69402 7.37418 3.08765 5.39262 3.08765C3.41106 3.08765 1.80469 4.69402 1.80469 6.67558V11.2973C1.80469 11.719 2.14653 12.0609 2.56822 12.0609C2.9899 12.0609 3.33174 11.719 3.33174 11.2973V6.67558C3.33174 5.53739 4.25443 4.6147 5.39262 4.6147C6.53081 4.6147 7.4535 5.53739 7.4535 6.67558V12.4528C7.4535 14.3634 9.00239 15.9123 10.913 15.9123C12.8237 15.9123 14.3726 14.3634 14.3726 12.4528V10.2703C14.3726 9.84859 14.0308 9.50675 13.6091 9.50675Z" fill="#414042" stroke="#414042" stroke-width="0.5"/>
<path d="M2.11524 13.6233C2.30857 13.2608 2.82814 13.2608 3.02147 13.6233L5.07558 17.4748C5.25801 17.8168 5.01014 18.23 4.62246 18.23H0.514238C0.126565 18.23 -0.12131 17.8168 0.0611242 17.4748L2.11524 13.6233ZM3.76658 17.2029H2.33748H1.37012H3.76658ZM14.1227 2.49872V3.38902C15.2947 3.62693 16.1768 4.6631 16.1768 5.9053C16.1768 7.32337 15.0273 8.47294 13.6092 8.47294C12.1911 8.47294 11.0416 7.32337 11.0416 5.9053C11.0416 4.6631 11.9237 3.62693 13.0957 3.38902V2.49872C12.8993 2.61223 12.6438 2.58498 12.4758 2.41696C12.2752 2.21641 12.2752 1.89127 12.4758 1.69072L13.2461 0.920428C13.4466 0.719883 13.7718 0.719883 13.9723 0.920428L14.7426 1.69072C14.9432 1.89127 14.9432 2.21641 14.7426 2.41696C14.5746 2.58498 14.3191 2.61223 14.1227 2.49872Z" fill="#414042"/>
</svg>
