<svg width="15" height="17" viewBox="0 0 15 17" fill="none" xmlns="http://www.w3.org/2000/svg">
<path d="M9.52245 14.7076C9.52245 15.5453 9.05551 16.1865 8.29718 16.6056C7.53909 17.0245 6.60499 17.0245 5.84831 16.6056C5.08975 16.1865 4.62305 15.5453 4.62305 14.7076" fill="#414042"/>
<path d="M7.07317 0.0802002C7.74137 0.0802002 8.27956 0.474249 8.27956 1.08022C8.27956 1.46163 8.29348 1.74622 8.54405 1.81912C10.6749 2.43456 12.0412 3.87715 12.0412 5.75058V8.89936C12.0412 10.3419 12.6582 10.634 13.4347 11.1858C14.5592 11.9836 14.3025 13.6449 13.0121 13.6437H1.13467C-0.155714 13.6449 -0.412422 11.9836 0.712092 11.1858C1.48764 10.634 2.10558 10.3419 2.10558 8.89936V5.75058C2.10558 3.87715 3.47194 2.43456 5.60276 1.81912C5.85263 1.74622 5.86725 1.46163 5.86725 1.08022C5.86749 0.474249 6.40592 0.0802002 7.07317 0.0802002Z" fill="#414042"/>
</svg>
