<svg width="24" height="25" viewBox="0 0 24 25" fill="none" xmlns="http://www.w3.org/2000/svg">
<path d="M10 15.5001L10 12.5001" stroke="#DC3E3E" stroke-linecap="round"/>
<path d="M14 15.5001L14 12.5001" stroke="#DC3E3E" stroke-linecap="round"/>
<path d="M3 7.50006H21V7.50006C20.0681 7.50006 19.6022 7.50006 19.2346 7.6523C18.7446 7.85529 18.3552 8.24464 18.1522 8.73469C18 9.10224 18 9.56818 18 10.5001V16.5001C18 18.3857 18 19.3285 17.4142 19.9143C16.8284 20.5001 15.8856 20.5001 14 20.5001H10C8.11438 20.5001 7.17157 20.5001 6.58579 19.9143C6 19.3285 6 18.3857 6 16.5001V10.5001C6 9.56818 6 9.10224 5.84776 8.73469C5.64477 8.24464 5.25542 7.85529 4.76537 7.6523C4.39782 7.50006 3.93188 7.50006 3 7.50006V7.50006Z" stroke="#DC3E3E" stroke-linecap="round"/>
<path d="M10.0681 3.87065C10.1821 3.76433 10.4332 3.67039 10.7825 3.60338C11.1318 3.53638 11.5597 3.50006 12 3.50006C12.4403 3.50006 12.8682 3.53638 13.2175 3.60338C13.5668 3.67039 13.8179 3.76433 13.9319 3.87065" stroke="#DC3E3E" stroke-linecap="round"/>
</svg>
