<svg width="15" height="22" viewBox="0 0 15 22" fill="none" xmlns="http://www.w3.org/2000/svg">
<path d="M5.5791 17.4798L5.22555 17.1262L4.87199 17.4798L5.22555 17.8333L5.5791 17.4798ZM8.88776 13.464L5.22555 17.1262L5.93265 17.8333L9.59487 14.1711L8.88776 13.464ZM5.22555 17.8333L8.88776 21.4955L9.59487 20.7884L5.93265 17.1262L5.22555 17.8333Z" fill="#3EA3DC"/>
<path d="M13.1292 8.24994C13.7342 9.29795 14.0347 10.4941 13.9968 11.7036C13.9589 12.9131 13.5841 14.0881 12.9146 15.0961C12.245 16.1042 11.3074 16.9053 10.2072 17.4093C9.10705 17.9133 7.88802 18.1002 6.68738 17.9489" stroke="#3EA3DC" stroke-linecap="round"/>
<path d="M9.23926 4.66216L9.59281 5.01571L9.94636 4.66216L9.59281 4.3086L9.23926 4.66216ZM5.9306 8.67792L9.59281 5.01571L8.8857 4.3086L5.22349 7.97082L5.9306 8.67792ZM9.59281 4.3086L5.9306 0.646388L5.22349 1.35349L8.8857 5.01571L9.59281 4.3086Z" fill="#3EA3DC"/>
<path d="M1.87083 13.7499C1.25699 12.6867 0.956798 11.4714 1.00502 10.2447C1.05323 9.0179 1.44789 7.82989 2.14329 6.81814C2.8387 5.80638 3.80642 5.01226 4.93443 4.52768C6.06245 4.04311 7.30464 3.8879 8.51721 4.08003" stroke="#3EA3DC" stroke-linecap="round"/>
</svg>
